<?xml version="1.0" encoding="UTF-8"?>
<svg width="500px" height="382px" viewBox="0 0 500 382" version="1.1" xmlns="http://www.w3.org/2000/svg" xmlns:xlink="http://www.w3.org/1999/xlink">
    <!-- Generator: Sketch 53.2 (72643) - https://sketchapp.com -->
    <title>404</title>
    <desc>Created with Sketch.</desc>
    <g id="404" stroke="none" stroke-width="1" fill="none" fill-rule="evenodd">
        <path d="M150.955,222.611 L150.955,208.766 C150.955,206.16 151.049,202.646 151.24,198.219 C151.429,193.795 151.578,191.473 151.688,191.256 L150.791,191.256 C148.945,195.438 146.854,199.348 144.521,202.984 L131.327,222.611 L150.955,222.611 Z M195.829,246.638 L182.717,246.638 L182.717,269.686 L150.955,269.686 L150.955,246.638 L103.474,246.638 L103.474,223.019 L152.99,150.617 L182.717,150.617 L182.717,222.611 L195.829,222.611 L195.829,246.638 L195.829,246.638 Z" id="Fill-4" fill="#FFD400"></path>
        <path d="M236.224,210.314 C236.224,223.78 237.065,233.037 238.749,238.086 C240.431,243.135 243.255,245.66 247.219,245.66 C251.236,245.66 254.072,243.054 255.729,237.841 C257.385,232.629 258.213,223.454 258.213,210.314 C258.213,197.12 257.37,187.876 255.689,182.582 C254.005,177.289 251.181,174.642 247.219,174.642 C243.255,174.642 240.431,177.195 238.749,182.297 C237.065,187.402 236.224,196.741 236.224,210.314 Z M290.22,210.314 C290.22,231.381 286.69,246.814 279.632,256.614 C272.574,266.415 261.769,271.314 247.219,271.314 C232.993,271.314 222.27,266.198 215.049,255.962 C207.828,245.729 204.218,230.512 204.218,210.314 C204.218,189.139 207.746,173.612 214.805,163.728 C221.862,153.847 232.668,148.906 247.219,148.906 C261.39,148.906 272.099,154.051 279.347,164.34 C286.596,174.63 290.22,189.953 290.22,210.314 L290.22,210.314 Z" id="Fill-5" fill="#FFD400"></path>
        <path d="M346.415,222.611 L346.415,208.766 C346.415,206.16 346.509,202.646 346.7,198.219 C346.89,193.795 347.039,191.473 347.148,191.256 L346.252,191.256 C344.406,195.438 342.315,199.348 339.981,202.984 L326.788,222.611 L346.415,222.611 Z M391.289,246.638 L378.178,246.638 L378.178,269.686 L346.415,269.686 L346.415,246.638 L298.934,246.638 L298.934,223.019 L348.451,150.617 L378.178,150.617 L378.178,222.611 L391.289,222.611 L391.289,246.638 L391.289,246.638 Z" id="Fill-6" fill="#FFD400"></path>
        <path d="M55.75,177.036 L103.887,177.036 M115.441,177.036 L125.717,177.036 M47.033,163.488 L133.208,163.488 M39.94,163.488 L32.847,163.488 M47.033,150.617 L75.643,150.617 M83.303,150.617 L143.389,150.617 M396.009,284.524 L447.521,284.524 M455.899,284.524 L463.35,284.524 M406.296,270.975 L473.803,270.975 M401.152,270.975 L396.009,270.975 M396.009,258.104 L427.041,258.104 M432.595,258.104 L455.899,258.104" id="Stroke-7" stroke="#0A090B" stroke-width="2.163" stroke-linecap="round" stroke-linejoin="round"></path>
        <path d="M157.119,222.157 L157.119,208.311 C157.119,205.705 157.213,202.191 157.404,197.764 C157.594,193.34 157.743,191.018 157.852,190.801 L156.956,190.801 C155.11,194.983 153.019,198.893 150.685,202.529 L137.491,222.157 L157.119,222.157 Z M201.994,246.183 L188.882,246.183 L188.882,269.231 L157.119,269.231 L157.119,246.183 L109.638,246.183 L109.638,222.564 L159.155,150.162 L188.882,150.162 L188.882,222.157 L201.994,222.157 L201.994,246.183 Z M242.389,209.859 C242.389,223.325 243.23,232.582 244.914,237.631 C246.596,242.68 249.42,245.205 253.384,245.205 C257.401,245.205 260.237,242.599 261.894,237.386 C263.55,232.174 264.377,222.999 264.377,209.859 C264.377,196.665 263.535,187.421 261.853,182.127 C260.17,176.834 257.346,174.187 253.384,174.187 C249.42,174.187 246.596,176.74 244.914,181.842 C243.23,186.947 242.389,196.286 242.389,209.859 Z M296.384,209.859 C296.384,230.926 292.854,246.359 285.797,256.16 C278.739,265.96 267.933,270.859 253.384,270.859 C239.158,270.859 228.434,265.743 221.214,255.508 C213.992,245.274 210.382,230.057 210.382,209.859 C210.382,188.684 213.911,173.157 220.97,163.273 C228.027,153.392 238.832,148.452 253.384,148.452 C267.554,148.452 278.263,153.596 285.512,163.885 C292.761,174.175 296.384,189.499 296.384,209.859 Z M352.58,222.157 L352.58,208.311 C352.58,205.705 352.673,202.191 352.865,197.764 C353.054,193.34 353.203,191.018 353.313,190.801 L352.417,190.801 C350.571,194.983 348.479,198.893 346.146,202.529 L332.952,222.157 L352.58,222.157 Z M397.454,246.183 L384.342,246.183 L384.342,269.231 L352.58,269.231 L352.58,246.183 L305.099,246.183 L305.099,222.564 L354.616,150.162 L384.342,150.162 L384.342,222.157 L397.454,222.157 L397.454,246.183 Z" id="Stroke-8" stroke="#0A090B" stroke-width="3.268"></path>
        <text id="PAGE-NOT-FOUND" font-family="Lato-Bold, Lato" font-size="20" font-weight="bold" letter-spacing="-0.000107568805" fill="#0A090B">
            <tspan x="164.325753" y="331">PAGE NOT FOUND</tspan>
        </text>
        <path d="M418.489,174.1 L418.489,163.061 M410.783,177.292 L402.978,169.486 M407.592,184.998 L396.553,184.998 M410.783,192.703 L402.978,200.509 M418.489,195.895 L418.489,206.934 M426.195,192.703 L434.001,200.509 M429.387,184.998 L440.426,184.998 M426.195,177.292 L434.001,169.486 M72.261,229.066 L72.261,221.087 M66.691,231.374 L61.049,225.731 M64.384,236.944 L56.405,236.944 M66.691,242.514 L61.049,248.156 M72.261,244.821 L72.261,252.8 M77.831,242.514 L83.473,248.156 M80.138,236.944 L88.118,236.944 M77.831,231.374 L83.473,225.731 M288.183,64.254 L288.183,56.274 M282.613,66.561 L276.971,60.919 M280.306,72.131 L272.326,72.131 M282.613,77.701 L276.971,83.343 M288.183,80.008 L288.183,87.987 M293.753,77.701 L299.395,83.343 M296.06,72.131 L304.039,72.131 M293.753,66.561 L299.395,60.919" id="Stroke-9" stroke="#0A090B" stroke-width="2.163" stroke-linecap="round" stroke-linejoin="round"></path>
        <path d="M133.208,131.198 L133.208,96.669 L312.701,96.669 L312.701,173.389 L133.208,131.198 Z M249.437,72.131 L249.437,115.36 L368.464,115.36 L368.464,135.029 L249.437,72.131 Z M137.491,135.481 C137.491,137.846 135.574,139.764 133.208,139.764 C130.843,139.764 128.925,137.846 128.925,135.481 C128.925,133.115 130.843,131.198 133.208,131.198 C135.574,131.198 137.491,133.115 137.491,135.481 Z M253.72,67.847 C253.72,70.213 251.802,72.131 249.437,72.131 C247.071,72.131 245.153,70.213 245.153,67.847 C245.153,65.482 247.071,63.564 249.437,63.564 C251.802,63.564 253.72,65.482 253.72,67.847 Z M372.747,139.764 C372.747,142.13 370.829,144.047 368.464,144.047 C366.098,144.047 364.18,142.13 364.18,139.764 C364.18,137.399 366.098,135.481 368.464,135.481 C370.829,135.481 372.747,137.399 372.747,139.764 Z M316.984,178.383 C316.984,180.749 315.067,182.666 312.701,182.666 C310.336,182.666 308.418,180.749 308.418,178.383 C308.418,176.018 310.336,174.1 312.701,174.1 C315.067,174.1 316.984,176.018 316.984,178.383 Z M105.295,264.163 L95.161,274.298 L105.295,264.163 Z M95.161,264.163 L105.295,274.298 L95.161,264.163 Z M110.362,117 L100.228,127.134 L110.362,117 Z M100.228,117 L110.362,127.134 L100.228,117 Z M439.068,231.876 L428.933,242.011 L439.068,231.876 Z M428.933,231.876 L439.068,242.011 L428.933,231.876 Z" id="Stroke-11" stroke="#0A090B" stroke-width="2.163" stroke-linecap="round" stroke-linejoin="round"></path>
        <path d="M151.47,59.161 C148.238,59.161 145.28,60.324 142.983,62.25 C140.637,55.189 133.989,50.09 126.14,50.09 C117.352,50.09 110.075,56.479 108.653,64.862 C107.726,64.597 106.752,64.446 105.74,64.446 C99.897,64.446 95.161,69.183 95.161,75.025 C95.161,80.4 99.173,84.829 104.363,85.505 L104.363,85.605 L151.47,85.605 C158.772,85.605 164.692,79.685 164.692,72.383 C164.692,65.081 158.772,59.161 151.47,59.161 Z" id="Stroke-12" stroke="#0A090B" stroke-width="2.261" stroke-linecap="round" stroke-linejoin="round"></path>
        <path d="M396.605,126.417 C398.953,126.417 401.102,127.262 402.77,128.661 C404.475,123.531 409.304,119.827 415.007,119.827 C421.39,119.827 426.677,124.469 427.711,130.558 C428.383,130.366 429.092,130.256 429.826,130.256 C434.071,130.256 437.512,133.697 437.512,137.942 C437.512,141.847 434.598,145.064 430.827,145.555 L430.827,145.628 L396.605,145.628 C391.3,145.628 386.999,141.327 386.999,136.022 C386.999,130.718 391.3,126.417 396.605,126.417 Z M443.789,308.113 C441.82,308.113 440.017,308.822 438.618,309.995 C437.189,305.693 433.138,302.586 428.356,302.586 C423.002,302.586 418.569,306.479 417.702,311.586 C417.138,311.425 416.544,311.333 415.927,311.333 C412.368,311.333 409.482,314.219 409.482,317.779 C409.482,321.053 411.926,323.751 415.088,324.163 L415.088,324.224 L443.789,324.224 C448.238,324.224 451.844,320.618 451.844,316.169 C451.844,311.72 448.238,308.113 443.789,308.113 Z M54.253,291.114 C56.601,291.114 58.75,291.959 60.419,293.358 C62.123,288.228 66.953,284.524 72.655,284.524 C79.039,284.524 84.326,289.165 85.359,295.255 C86.032,295.062 86.74,294.953 87.475,294.953 C91.72,294.953 95.161,298.394 95.161,302.639 C95.161,306.544 92.246,309.761 88.475,310.252 L88.475,310.324 L54.253,310.324 C48.948,310.324 44.648,306.024 44.648,300.719 C44.648,295.414 48.948,291.114 54.253,291.114 Z" id="Stroke-13" stroke="#0A090B" stroke-width="2.163" stroke-linecap="round" stroke-linejoin="round"></path>
        <path d="M164.692,52.818 C164.692,52.818 225.132,3.541 307.252,26.243 C393.515,50.09 410.783,111.6 410.783,111.6" id="Stroke-14" stroke="#0A090B" stroke-width="2.163" stroke-linecap="round" stroke-linejoin="round" stroke-dasharray="3.268,7.624000000000001"></path>
        <path d="M73.433,196.04 C50.001,199.674 38.222,249.403 64.579,269.144" id="Stroke-15" stroke="#0A090B" stroke-width="2.017" stroke-linecap="round" stroke-linejoin="round" stroke-dasharray="3.047,7.109"></path>
        <path d="M368.464,339.526 C368.464,339.526 408.601,357.072 426.195,332.592" id="Stroke-16" stroke="#0A090B" stroke-width="2.163" stroke-linecap="round" stroke-linejoin="round" stroke-dasharray="3.268,7.624000000000001"></path>
        <path d="M177.513,139.764 L177.513,114.418 M171.395,139.764 L171.395,127.134 M270.67,145.628 L270.67,127.091 M263.72,144.047 L263.72,136.359 M257.554,144.047 L257.554,131.198 M183.394,139.764 L183.394,127.091 M351.395,143.292 L351.395,137.623 M345.277,143.292 L345.277,129.482 M357.276,143.292 L357.276,133.428" id="Stroke-17" stroke="#0A090B" stroke-width="2.163" stroke-linecap="round" stroke-linejoin="round"></path>
    </g>
</svg>