<?xml version="1.0" encoding="UTF-8"?>
<svg width="90px" height="90px" viewBox="0 0 90 90" version="1.1" xmlns="http://www.w3.org/2000/svg" xmlns:xlink="http://www.w3.org/1999/xlink">
    <!-- Generator: Sketch 52.4 (67378) - http://www.bohemiancoding.com/sketch -->
    <title>agency</title>
    <desc>Created with Sketch.</desc>
    <g id="agency" stroke="none" stroke-width="1" fill="none" fill-rule="evenodd">
        <rect id="Rectangle" fill="#FFEC5B" x="0" y="0" width="64" height="64"></rect>
        <g id="031-management" transform="translate(26.000000, 26.000000)" fill="#000000" fill-rule="nonzero">
            <path d="M60.9032258,16.516129 L60.9032258,0 L48.516129,0 L48.516129,16.516129 L48.1486452,16.516129 L43.1607742,5.54116129 L36.4325161,0.158967742 L35.0596129,8.39432258 L38.6694194,16.516129 L35.0967742,16.516129 L35.0967742,22.7096774 L37.1612903,22.7096774 L37.1612903,25.8064516 L5.16129032,25.8064516 C2.31535484,25.8064516 0,28.1218065 0,30.9677419 L0,52.6451613 C0,55.4910968 2.31535484,57.8064516 5.16129032,57.8064516 L16.516129,57.8064516 L16.516129,61.9354839 L12.3870968,61.9354839 L12.3870968,64 L35.0967742,64 L35.0967742,61.9354839 L30.9677419,61.9354839 L30.9677419,57.8064516 L42.3225806,57.8064516 C45.1685161,57.8064516 47.483871,55.4910968 47.483871,52.6451613 L47.483871,47.483871 L58.8387097,47.483871 C60.5460645,47.483871 61.9354839,46.0944516 61.9354839,44.3870968 L61.9354839,22.7096774 L64,22.7096774 L64,16.516129 L60.9032258,16.516129 Z M50.5806452,2.06451613 L58.8387097,2.06451613 L58.8387097,4.12903226 L56.7741935,4.12903226 L56.7741935,6.19354839 L58.8387097,6.19354839 L58.8387097,8.25806452 L54.7096774,8.25806452 L54.7096774,10.3225806 L58.8387097,10.3225806 L58.8387097,12.3870968 L56.7741935,12.3870968 L56.7741935,14.4516129 L58.8387097,14.4516129 L58.8387097,16.516129 L50.5806452,16.516129 L50.5806452,2.06451613 Z M37.8900645,3.96903226 L41.1065806,6.54348387 L37.2469677,7.82967742 L37.8900645,3.96903226 Z M37.9334194,9.77651613 L42.1739355,8.36335484 L45.8807742,16.516129 L40.9290323,16.516129 L37.9334194,9.77651613 Z M28.9032258,61.9354839 L18.5806452,61.9354839 L18.5806452,57.8064516 L28.9032258,57.8064516 L28.9032258,61.9354839 Z M42.3225806,55.7419355 L5.16129032,55.7419355 C3.45393548,55.7419355 2.06451613,54.3525161 2.06451613,52.6451613 L45.4193548,52.6451613 C45.4193548,54.3525161 44.0299355,55.7419355 42.3225806,55.7419355 Z M45.4193548,50.5806452 L2.06451613,50.5806452 L2.06451613,30.9677419 C2.06451613,29.2603871 3.45393548,27.8709677 5.16129032,27.8709677 L37.1612903,27.8709677 L37.1612903,44.3870968 C37.1612903,46.0944516 38.5507097,47.483871 40.2580645,47.483871 L45.4193548,47.483871 L45.4193548,50.5806452 Z M59.8709677,40.2580645 L57.8064516,40.2580645 L57.8064516,42.3225806 L59.8709677,42.3225806 L59.8709677,44.3870968 C59.8709677,44.9569032 59.4085161,45.4193548 58.8387097,45.4193548 L40.2580645,45.4193548 C39.6882581,45.4193548 39.2258065,44.9569032 39.2258065,44.3870968 L39.2258065,42.3225806 L55.7419355,42.3225806 L55.7419355,40.2580645 L39.2258065,40.2580645 L39.2258065,22.7096774 L59.8709677,22.7096774 L59.8709677,40.2580645 Z M61.9354839,20.6451613 L37.1612903,20.6451613 L37.1612903,18.5806452 L61.9354839,18.5806452 L61.9354839,20.6451613 Z" id="Shape"></path>
            <path d="M4.12903226,48.516129 L35.0967742,48.516129 L35.0967742,29.9354839 L4.12903226,29.9354839 L4.12903226,48.516129 Z M6.19354839,32 L33.0322581,32 L33.0322581,46.4516129 L6.19354839,46.4516129 L6.19354839,32 Z" id="Shape"></path>
            <path d="M25.7806452,39.2258065 C25.5184516,36.3365161 23.0854194,34.0645161 20.1290323,34.0645161 C17.9963871,34.0645161 16.0629677,35.2856774 15.1019355,37.1612903 L12.8670968,37.1612903 L8.43148387,43.8141935 L10.1491613,44.9589677 L13.9716129,39.2258065 L18.0283871,39.2258065 L21.8508387,44.96 L23.5685161,43.8152258 L21.8859355,41.2903226 L26.3225806,41.2903226 L29.1096774,45.0064516 L30.7612903,43.7687742 L27.3548387,39.2258065 L25.7806452,39.2258065 Z M20.5089032,39.2258065 L19.1329032,37.1612903 L17.6227097,37.1612903 C18.2812903,36.5150968 19.1741935,36.1290323 20.1290323,36.1290323 C21.9437419,36.1290323 23.4363871,37.4792258 23.6892903,39.2258065 L20.5089032,39.2258065 Z" id="Shape"></path>
        </g>
    </g>
</svg>