<svg height="512pt" viewBox="0 0 512 512" width="512pt" xmlns="http://www.w3.org/2000/svg"><path d="m47.933594 135.886719c3.1875 1.320312 6.859375.589843 9.300781-1.855469l19.566406-19.566406 19.566407 19.566406c1.601562 1.601562 3.769531 2.5 6.03125 2.503906 1.125 0 2.234374-.21875 3.269531-.648437 3.1875-1.324219 5.265625-4.4375 5.265625-7.886719v-51.199219c0-2.265625-.898438-4.433593-2.5-6.035156l-25.601563-25.597656c-3.332031-3.332031-8.734375-3.332031-12.066406 0l-25.597656 25.597656c-1.601563 1.601563-2.5 3.769531-2.5 6.035156v51.199219c-.003907 3.449219 2.074219 6.5625 5.265625 7.886719zm11.800781-55.554688 17.066406-17.066406 17.066407 17.066406v27.070313l-11.035157-11.035156c-3.332031-3.332032-8.734375-3.332032-12.066406 0l-11.03125 11.035156zm0 0"/><path d="m51.199219 170.667969h51.199219c4.714843 0 8.535156-3.820313 8.535156-8.535157 0-4.710937-3.820313-8.53125-8.535156-8.53125h-51.199219c-4.710938 0-8.53125 3.820313-8.53125 8.53125 0 4.714844 3.820312 8.535157 8.53125 8.535157zm0 0"/><path d="m213.332031 59.734375h8.535157c4.710937 0 8.53125-3.820313 8.53125-8.535156 0-4.710938-3.820313-8.53125-8.53125-8.53125h-8.535157c-4.710937 0-8.53125 3.820312-8.53125 8.53125 0 4.714843 3.820313 8.535156 8.53125 8.535156zm0 0"/><path d="m256 59.734375h68.265625c4.714844 0 8.535156-3.820313 8.535156-8.535156 0-4.710938-3.820312-8.53125-8.535156-8.53125h-68.265625c-4.710938 0-8.535156 3.820312-8.535156 8.53125 0 4.714843 3.824218 8.535156 8.535156 8.535156zm0 0"/><path d="m238.933594 93.867188h85.332031c4.714844 0 8.535156-3.820313 8.535156-8.535157 0-4.710937-3.820312-8.53125-8.535156-8.53125h-85.332031c-4.714844 0-8.535156 3.820313-8.535156 8.53125 0 4.714844 3.820312 8.535157 8.535156 8.535157zm0 0"/><path d="m486.398438 281.601562h-119.464844v-17.066406h85.332031c14.140625 0 25.601563-11.464844 25.601563-25.601562v-102.398438c0-14.140625-11.460938-25.601562-25.601563-25.601562h-85.332031v-93.867188c0-9.425781-7.640625-17.066406-17.066406-17.066406h-332.800782c-9.425781 0-17.066406 7.640625-17.066406 17.066406v477.867188c0 9.425781 7.640625 17.066406 17.066406 17.066406h469.332032c14.140624 0 25.601562-11.460938 25.601562-25.601562v-179.199219c0-14.136719-11.460938-25.597657-25.601562-25.597657zm-25.597657-145.066406v102.398438c0 4.710937-3.820312 8.53125-8.535156 8.53125h-187.730469c-4.714844 0-8.535156-3.820313-8.535156-8.53125v-102.398438c0-4.714844 3.820312-8.535156 8.535156-8.535156h187.730469c4.714844 0 8.535156 3.820312 8.535156 8.535156zm-443.734375-119.46875h332.800782v93.867188h-85.332032c-14.140625 0-25.601562 11.460937-25.601562 25.601562v102.398438c0 14.136718 11.460937 25.601562 25.601562 25.601562h85.332032v17.066406h-179.199219c-14.140625 0-25.601563 11.460938-25.601563 25.597657v119.46875h-93.867187c-4.710938 0-8.53125 3.820312-8.53125 8.53125 0 4.714843 3.820312 8.535156 8.53125 8.535156h93.867187v17.066406h-51.199218c-4.714844 0-8.535157 3.820313-8.535157 8.53125 0 4.714844 3.820313 8.535157 8.535157 8.535157h51.199218v8.53125c.027344 2.914062.558594 5.800781 1.570313 8.535156h-129.570313zm477.867188 469.332032c0 4.714843-3.820313 8.535156-8.535156 8.535156h-315.730469c-4.714844 0-8.535157-3.820313-8.535157-8.535156v-179.199219c0-4.710938 3.820313-8.53125 8.535157-8.53125h315.730469c4.714843 0 8.535156 3.820312 8.535156 8.53125zm0 0"/><path d="m463.300781 318.234375-23.101562 23.097656h-223.332031l-23.101563-23.097656c-3.347656-3.234375-8.667969-3.1875-11.960937.101563-3.292969 3.292968-3.339844 8.617187-.105469 11.964843l25.601562 25.597657c1.597657 1.601562 3.769531 2.5 6.03125 2.5h230.402344c2.261719 0 4.433594-.898438 6.03125-2.5l25.601563-25.597657c3.234374-3.347656 3.1875-8.671875-.105469-11.964843-3.289063-3.289063-8.613281-3.335938-11.960938-.101563zm0 0"/><path d="m366.933594 426.667969h-76.800782c-4.710937 0-8.53125 3.820312-8.53125 8.53125 0 4.714843 3.820313 8.535156 8.53125 8.535156h76.800782c4.710937 0 8.53125-3.820313 8.53125-8.535156 0-4.710938-3.820313-8.53125-8.53125-8.53125zm0 0"/><path d="m366.933594 460.800781h-76.800782c-4.710937 0-8.53125 3.820313-8.53125 8.53125 0 4.714844 3.820313 8.535157 8.53125 8.535157h76.800782c4.710937 0 8.53125-3.820313 8.53125-8.535157 0-4.710937-3.820313-8.53125-8.53125-8.53125zm0 0"/><path d="m304.699219 139.035156c-3.332031-3.332031-8.734375-3.332031-12.066407 0l-17.066406 17.066406c-3.234375 3.347657-3.1875 8.667969.105469 11.960938 3.289063 3.292969 8.613281 3.335938 11.960937.105469l11.035157-11.035157 11.03125 11.035157c3.347656 3.230469 8.671875 3.1875 11.964843-.105469 3.289063-3.292969 3.335938-8.613281.101563-11.960938zm0 0"/><path d="m307.199219 179.199219h-17.066407c-4.710937 0-8.53125 3.820312-8.53125 8.535156 0 4.710937 3.820313 8.53125 8.53125 8.53125h17.066407c4.714843 0 8.535156-3.820313 8.535156-8.53125 0-4.714844-3.820313-8.535156-8.535156-8.535156zm0 0"/><path d="m375.464844 170.667969h17.070312c4.710938 0 8.53125-3.820313 8.53125-8.535157 0-4.710937-3.820312-8.53125-8.53125-8.53125h-17.070312c-4.710938 0-8.53125 3.820313-8.53125 8.53125 0 4.714844 3.820312 8.535157 8.53125 8.535157zm0 0"/><path d="m426.667969 170.667969h8.53125c4.714843 0 8.535156-3.820313 8.535156-8.535157 0-4.710937-3.820313-8.53125-8.535156-8.53125h-8.53125c-4.714844 0-8.535157 3.820313-8.535157 8.53125 0 4.714844 3.820313 8.535157 8.535157 8.535157zm0 0"/><path d="m435.199219 179.199219h-42.664063c-4.714844 0-8.535156 3.820312-8.535156 8.535156 0 4.710937 3.820312 8.53125 8.535156 8.53125h42.664063c4.714843 0 8.535156-3.820313 8.535156-8.53125 0-4.714844-3.820313-8.535156-8.535156-8.535156zm0 0"/><path d="m375.464844 230.398438h17.070312c4.710938 0 8.53125-3.820313 8.53125-8.53125 0-4.714844-3.820312-8.535157-8.53125-8.535157h-17.070312c-4.710938 0-8.53125 3.820313-8.53125 8.535157 0 4.710937 3.820312 8.53125 8.53125 8.53125zm0 0"/><path d="m435.199219 213.332031h-8.53125c-4.714844 0-8.535157 3.820313-8.535157 8.535157 0 4.710937 3.820313 8.53125 8.535157 8.53125h8.53125c4.714843 0 8.535156-3.820313 8.535156-8.53125 0-4.714844-3.820313-8.535157-8.535156-8.535157zm0 0"/></svg>