<?xml version="1.0" encoding="UTF-8"?>
<svg width="90px" height="90px" viewBox="0 0 90 90" version="1.1" xmlns="http://www.w3.org/2000/svg" xmlns:xlink="http://www.w3.org/1999/xlink">
    <!-- Generator: Sketch 52.4 (67378) - http://www.bohemiancoding.com/sketch -->
    <title>company</title>
    <desc>Created with Sketch.</desc>
    <g id="company" stroke="none" stroke-width="1" fill="none" fill-rule="evenodd">
        <rect id="Rectangle" fill="#FFEC5B" x="0" y="0" width="64" height="64"></rect>
        <g id="031-organization" transform="translate(26.000000, 26.000000)" fill="#000000">
            <path d="M13.4193548,53.6774194 C13.4193548,51.4002581 11.5674839,49.5483871 9.29032258,49.5483871 C7.01316129,49.5483871 5.16129032,51.4002581 5.16129032,53.6774194 C5.16129032,55.9545806 7.01316129,57.8064516 9.29032258,57.8064516 C11.5674839,57.8064516 13.4193548,55.9545806 13.4193548,53.6774194 Z M9.29032258,55.7419355 C8.15174194,55.7419355 7.22580645,54.816 7.22580645,53.6774194 C7.22580645,52.5388387 8.15174194,51.6129032 9.29032258,51.6129032 C10.4289032,51.6129032 11.3548387,52.5388387 11.3548387,53.6774194 C11.3548387,54.816 10.4289032,55.7419355 9.29032258,55.7419355 Z" id="Shape" fill-rule="nonzero"></path>
            <path d="M36.1290323,53.6774194 C36.1290323,51.4002581 34.2771613,49.5483871 32,49.5483871 C29.7228387,49.5483871 27.8709677,51.4002581 27.8709677,53.6774194 C27.8709677,55.9545806 29.7228387,57.8064516 32,57.8064516 C34.2771613,57.8064516 36.1290323,55.9545806 36.1290323,53.6774194 Z M32,55.7419355 C30.8614194,55.7419355 29.9354839,54.816 29.9354839,53.6774194 C29.9354839,52.5388387 30.8614194,51.6129032 32,51.6129032 C33.1385806,51.6129032 34.0645161,52.5388387 34.0645161,53.6774194 C34.0645161,54.816 33.1385806,55.7419355 32,55.7419355 Z" id="Shape" fill-rule="nonzero"></path>
            <path d="M55.7419355,47.483871 L55.7419355,42.3225806 L33.0322581,42.3225806 L33.0322581,39.2258065 L53.4709677,39.2258065 L53.4709677,0 L10.5290323,0 L10.5290323,39.2258065 L30.9677419,39.2258065 L30.9677419,42.3225806 L8.25806452,42.3225806 L8.25806452,47.483871 L0,47.483871 L0,64 L18.5806452,64 L18.5806452,47.483871 L10.3225806,47.483871 L10.3225806,44.3870968 L30.9677419,44.3870968 L30.9677419,47.483871 L22.7096774,47.483871 L22.7096774,64 L41.2903226,64 L41.2903226,47.483871 L33.0322581,47.483871 L33.0322581,44.3870968 L53.6774194,44.3870968 L53.6774194,47.483871 L45.4193548,47.483871 L45.4193548,64 L64,64 L64,47.483871 L55.7419355,47.483871 Z M6.19354839,61.9354839 C6.19354839,60.7969032 7.11948387,59.8709677 8.25806452,59.8709677 L10.3225806,59.8709677 C11.4611613,59.8709677 12.3870968,60.7969032 12.3870968,61.9354839 L6.19354839,61.9354839 Z M16.516129,49.5483871 L16.516129,61.9354839 L14.4516129,61.9354839 C14.4516129,59.6583226 12.5997419,57.8064516 10.3225806,57.8064516 L9.29032258,57.8064516 L8.25806452,57.8064516 C5.98090323,57.8064516 4.12903226,59.6583226 4.12903226,61.9354839 L2.06451613,61.9354839 L2.06451613,49.5483871 L9.29032258,49.5483871 L16.516129,49.5483871 Z M28.9032258,61.9354839 C28.9032258,60.7969032 29.8291613,59.8709677 30.9677419,59.8709677 L33.0322581,59.8709677 C34.1708387,59.8709677 35.0967742,60.7969032 35.0967742,61.9354839 L28.9032258,61.9354839 Z M39.2258065,49.5483871 L39.2258065,61.9354839 L37.1612903,61.9354839 C37.1612903,59.6583226 35.3094194,57.8064516 33.0322581,57.8064516 L32,57.8064516 L30.9677419,57.8064516 C28.6905806,57.8064516 26.8387097,59.6583226 26.8387097,61.9354839 L24.7741935,61.9354839 L24.7741935,49.5483871 L32,49.5483871 L39.2258065,49.5483871 Z M12.5935484,37.1612903 L12.5935484,2.06451613 L51.4064516,2.06451613 L51.4064516,37.1612903 L12.5935484,37.1612903 Z M51.6129032,61.9354839 C51.6129032,60.7969032 52.5388387,59.8709677 53.6774194,59.8709677 L55.7419355,59.8709677 C56.8805161,59.8709677 57.8064516,60.7969032 57.8064516,61.9354839 L51.6129032,61.9354839 Z M61.9354839,61.9354839 L59.8709677,61.9354839 C59.8709677,59.6583226 58.0190968,57.8064516 55.7419355,57.8064516 L54.7096774,57.8064516 L53.6774194,57.8064516 C51.4002581,57.8064516 49.5483871,59.6583226 49.5483871,61.9354839 L47.483871,61.9354839 L47.483871,49.5483871 L54.7096774,49.5483871 L61.9354839,49.5483871 L61.9354839,61.9354839 Z" id="Shape" fill-rule="nonzero"></path>
            <path d="M58.8387097,53.6774194 C58.8387097,51.4002581 56.9868387,49.5483871 54.7096774,49.5483871 C52.4325161,49.5483871 50.5806452,51.4002581 50.5806452,53.6774194 C50.5806452,55.9545806 52.4325161,57.8064516 54.7096774,57.8064516 C56.9868387,57.8064516 58.8387097,55.9545806 58.8387097,53.6774194 Z M54.7096774,55.7419355 C53.5710968,55.7419355 52.6451613,54.816 52.6451613,53.6774194 C52.6451613,52.5388387 53.5710968,51.6129032 54.7096774,51.6129032 C55.8482581,51.6129032 56.7741935,52.5388387 56.7741935,53.6774194 C56.7741935,54.816 55.8482581,55.7419355 54.7096774,55.7419355 Z" id="Shape" fill-rule="nonzero"></path>
            <path d="M43.3548387,28.9032258 L37.1612903,28.9032258 L37.1612903,30.9677419 L14.4516129,30.9677419 L14.4516129,33.0322581 L37.1612903,33.0322581 L37.1612903,35.0967742 L43.3548387,35.0967742 L43.3548387,33.0322581 L49.5483871,33.0322581 L49.5483871,30.9677419 L43.3548387,30.9677419 L43.3548387,28.9032258 Z M41.2903226,33.0322581 L39.2258065,33.0322581 L39.2258065,30.9677419 L41.2903226,30.9677419 L41.2903226,33.0322581 Z" id="Shape" fill-rule="nonzero"></path>
            <path d="M14.4516129,18.5806452 L49.5483871,18.5806452 L49.5483871,4.12903226 L14.4516129,4.12903226 L14.4516129,18.5806452 Z M16.516129,6.19354839 L47.483871,6.19354839 L47.483871,16.516129 L16.516129,16.516129 L16.516129,6.19354839 Z" id="Shape" fill-rule="nonzero"></path>
            <polygon id="Path" points="43.3548387 10.3225806 41.2903226 10.3225806 41.2903226 12.3870968 39.2258065 12.3870968 39.2258065 10.3225806 37.1612903 10.3225806 37.1612903 12.3870968 35.0967742 12.3870968 35.0967742 10.3225806 33.0322581 10.3225806 33.0322581 12.3870968 30.9677419 12.3870968 30.9677419 10.3225806 28.9032258 10.3225806 28.9032258 12.3870968 26.8387097 12.3870968 26.8387097 10.3225806 24.7741935 10.3225806 24.7741935 12.3870968 22.7096774 12.3870968 22.7096774 10.3225806 20.6451613 10.3225806 20.6451613 12.3870968 18.5806452 12.3870968 18.5806452 14.4516129 45.4193548 14.4516129 45.4193548 12.3870968 43.3548387 12.3870968"></polygon>
            <path d="M22.7096774,24.7741935 C22.7096774,22.4970323 20.8578065,20.6451613 18.5806452,20.6451613 C16.3034839,20.6451613 14.4516129,22.4970323 14.4516129,24.7741935 C14.4516129,27.0513548 16.3034839,28.9032258 18.5806452,28.9032258 C20.8578065,28.9032258 22.7096774,27.0513548 22.7096774,24.7741935 Z M16.516129,24.7741935 C16.516129,23.6356129 17.4420645,22.7096774 18.5806452,22.7096774 C19.7192258,22.7096774 20.6451613,23.6356129 20.6451613,24.7741935 C20.6451613,25.9127742 19.7192258,26.8387097 18.5806452,26.8387097 C17.4420645,26.8387097 16.516129,25.9127742 16.516129,24.7741935 Z" id="Shape" fill-rule="nonzero"></path>
            <path d="M33.0322581,24.7741935 C33.0322581,22.4970323 31.1803871,20.6451613 28.9032258,20.6451613 C26.6260645,20.6451613 24.7741935,22.4970323 24.7741935,24.7741935 C24.7741935,27.0513548 26.6260645,28.9032258 28.9032258,28.9032258 C31.1803871,28.9032258 33.0322581,27.0513548 33.0322581,24.7741935 Z M26.8387097,24.7741935 C26.8387097,23.6356129 27.7646452,22.7096774 28.9032258,22.7096774 C30.0418065,22.7096774 30.9677419,23.6356129 30.9677419,24.7741935 C30.9677419,25.9127742 30.0418065,26.8387097 28.9032258,26.8387097 C27.7646452,26.8387097 26.8387097,25.9127742 26.8387097,24.7741935 Z" id="Shape" fill-rule="nonzero"></path>
            <path d="M35.0967742,26.8387097 L49.5483871,26.8387097 L49.5483871,20.6451613 L35.0967742,20.6451613 L35.0967742,26.8387097 Z M43.3548387,22.7096774 L47.483871,22.7096774 L47.483871,24.7741935 L43.3548387,24.7741935 L43.3548387,22.7096774 Z M37.1612903,22.7096774 L41.2903226,22.7096774 L41.2903226,24.7741935 L37.1612903,24.7741935 L37.1612903,22.7096774 Z" id="Shape" fill-rule="nonzero"></path>
        </g>
    </g>
</svg>