<?xml version="1.0" encoding="UTF-8"?>
<svg width="800px" height="230px" viewBox="0 0 800 230" version="1.1" xmlns="http://www.w3.org/2000/svg" xmlns:xlink="http://www.w3.org/1999/xlink">
    <!-- Generator: Sketch 53.1 (72631) - https://sketchapp.com -->
    <title>design-thinking</title>
    <desc>Created with Sketch.</desc>
    <defs>
        <linearGradient x1="1.11022302e-14%" y1="60.117216%" x2="100%" y2="39.882784%" id="linearGradient-1">
            <stop stop-color="#3D1030" offset="0%"></stop>
            <stop stop-color="#96043E" offset="100%"></stop>
        </linearGradient>
        <linearGradient x1="100%" y1="50%" x2="0%" y2="50%" id="linearGradient-2">
            <stop stop-color="#FF5728" offset="0%"></stop>
            <stop stop-color="#FFC400" offset="100%"></stop>
        </linearGradient>
        <linearGradient x1="1.11022302e-14%" y1="60.9948523%" x2="100%" y2="39.0051477%" id="linearGradient-3">
            <stop stop-color="#96043E" offset="0%"></stop>
            <stop stop-color="#C90035" offset="100%"></stop>
        </linearGradient>
        <linearGradient x1="50%" y1="100%" x2="50%" y2="3.061617e-15%" id="linearGradient-4">
            <stop stop-color="#C90035" offset="0%"></stop>
            <stop stop-color="#FF5728" offset="100%"></stop>
        </linearGradient>
    </defs>
    <g id="design-thinking" stroke="none" stroke-width="1" fill="none" fill-rule="evenodd">
        <rect fill="#FFFFFF" x="0" y="0" width="800" height="230"></rect>
        <g id="idea" transform="translate(369.000000, 97.000000)" fill="#C6273A" fill-rule="nonzero">
            <path d="M40.909028,12.5874441 C40.909028,7.38157343 36.6743706,3.14691608 31.4685,3.14691608 C26.2626294,3.14691608 22.027972,7.38157343 22.027972,12.5874441 C22.027972,15.7332587 23.6212552,18.6839056 26.2238601,20.4283007 L26.2238601,22.0815 C25.0279615,22.3249091 24.1259161,23.3842343 24.1259161,24.6504021 C24.1259161,25.5839476 24.6189021,26.3978811 25.3541958,26.8637727 C25.2429545,27.1543217 25.1748881,27.4668986 25.1748881,27.7973182 C25.1748881,29.2438951 26.3507413,30.4197483 27.7973182,30.4197483 L35.1399021,30.4197483 C36.586479,30.4197483 37.7623322,29.2438951 37.7623322,27.7973182 C37.7623322,27.4668986 37.6940455,27.1543217 37.5830245,26.8637727 C38.3183182,26.3981014 38.8113042,25.5839476 38.8113042,24.6504021 C38.8113042,23.3833531 37.9092587,22.3249091 36.7133601,22.0815 L36.7133601,20.4283007 C39.3157448,18.6839056 40.909028,15.7332587 40.909028,12.5874441 Z M35.1399021,28.3215839 L27.7970979,28.3215839 C27.5085315,28.3215839 27.2726119,28.0856643 27.2726119,27.7970979 C27.2726119,27.5085315 27.5085315,27.2726119 27.7970979,27.2726119 L35.1396818,27.2726119 C35.4282483,27.2726119 35.6641678,27.5085315 35.6641678,27.7970979 C35.6641678,28.0856643 35.4282483,28.3215839 35.1399021,28.3215839 Z M36.1888741,25.1748881 L35.1399021,25.1748881 L27.7970979,25.1748881 L26.7481259,25.1748881 C26.4595594,25.1748881 26.2236399,24.9389685 26.2236399,24.6504021 C26.2236399,24.3618357 26.4597797,24.1259161 26.7483462,24.1259161 L36.1888741,24.1259161 C36.4774406,24.1259161 36.7133601,24.3618357 36.7133601,24.6504021 C36.7133601,24.9389685 36.4774406,25.1748881 36.1888741,25.1748881 Z M30.419528,12.5874441 C30.419528,12.0083287 30.8893846,11.538472 31.4685,11.538472 C32.0476154,11.538472 32.517472,12.0083287 32.517472,12.5874441 C32.517472,13.1665594 32.0476154,13.6364161 31.4685,13.6364161 C30.8896049,13.6364161 30.419528,13.1663392 30.419528,12.5874441 Z M35.1388007,18.9398706 L34.6154161,19.2429755 L34.6154161,22.027972 L32.517472,22.027972 L32.517472,15.5411748 C33.7353986,15.1070035 34.6154161,13.952958 34.6154161,12.5872238 C34.6154161,10.8523007 33.2034231,9.44030769 31.4685,9.44030769 C29.7335769,9.44030769 28.3215839,10.8523007 28.3215839,12.5872238 C28.3215839,13.952958 29.2016014,15.1067832 30.419528,15.5411748 L30.419528,22.027972 L28.3215839,22.027972 L28.3215839,19.2429755 L27.7981993,18.9398706 C25.5335035,17.6276643 24.1259161,15.1929126 24.1259161,12.5874441 C24.1259161,8.53958392 27.4206399,5.24486014 31.4685,5.24486014 C35.5163601,5.24486014 38.8110839,8.53958392 38.8110839,12.5874441 C38.8110839,15.1931329 37.4034965,17.6276643 35.1388007,18.9398706 Z" id="Shape"></path>
            <path d="M40.3111888,49.1957308 C39.8338427,47.9852937 38.6842028,47.2026399 37.3836713,47.2026399 L36.7133601,47.2026399 L36.7133601,35.1396818 C36.7133601,33.1153112 35.066549,31.4682797 33.041958,31.4682797 C31.0173671,31.4682797 29.3705559,33.1150909 29.3705559,35.1396818 L29.3705559,40.1274755 C28.9982832,39.9690944 28.6037622,39.8600559 28.1852308,39.8600559 L27.1897867,39.8600559 C25.5009021,39.8600559 24.1256958,41.2352622 24.1256958,42.9241469 L24.1256958,43.006972 L22.9938986,43.006972 C21.305014,43.006972 19.9298077,44.3821783 19.9298077,46.0710629 L19.9298077,46.1538881 L19.8472028,46.1538881 C18.1583182,46.1538881 16.7831119,47.5290944 16.7831119,49.217979 L16.7831119,49.3008042 L16.7831119,49.5146958 L16.7831119,51.6199091 C16.7831119,53.0631818 17.0736608,54.4657028 17.6474895,55.790465 L19.2376888,59.4607657 C19.6971923,60.5211923 19.930028,61.6426364 19.930028,62.7975629 L19.930028,62.937 L22.027972,62.937 L22.027972,62.7964615 C22.027972,61.3531888 21.7374231,59.9506678 21.1635944,58.6259056 L19.5733951,54.9556049 C19.3006888,54.3262657 19.1171958,53.6726958 19.0059545,53.0065699 L22.9500629,56.9506783 C23.5637622,57.5643776 24.3693252,57.8705664 25.1748881,57.8705664 C25.980451,57.8705664 26.786014,57.5643776 27.3997133,56.9506783 L27.5801224,56.7702692 C28.0772937,56.2730979 28.3625559,55.6490455 28.4570559,55.0027448 C28.4989091,55.0049476 28.5398811,55.0141993 28.5819545,55.0141993 C29.1474126,55.0141993 29.7159545,54.8589021 30.2173112,54.5410385 L30.2811923,54.5011678 C30.4312028,54.4005 30.5664545,54.2850734 30.6944371,54.1623776 C31.1675979,54.5881783 31.7453916,54.9082448 32.396979,55.0708112 L33.8036853,55.4232587 L34.6711469,58.0236608 L36.6600524,57.3597378 L35.4295699,53.6663077 L32.9058252,53.0347657 C32.0592902,52.823958 31.4687203,52.0686189 31.4687203,51.196972 C31.4687203,50.1510839 32.3194406,49.3003636 33.3653287,49.3003636 L34.6156364,49.3003636 L36.7135804,49.3003636 L37.3838916,49.3003636 C37.8107937,49.3003636 38.2031119,49.5677832 38.3595105,49.9642867 L39.6424196,53.2202413 C39.7871434,53.5894301 39.8604965,53.9775629 39.8604965,54.372965 L39.8604965,54.6038182 C39.8604965,55.089535 39.7461713,55.5772343 39.5289755,56.0114056 L38.3163357,58.4366853 C37.9544161,59.1594231 37.7625524,59.9713741 37.7625524,60.780021 L37.7625524,62.9365594 L39.8604965,62.9365594 L39.8604965,60.780021 C39.8604965,60.2943042 39.9748217,59.8066049 40.1920175,59.3724336 L41.4046573,56.9471538 C41.7665769,56.2244161 41.9584406,55.412465 41.9584406,54.6038182 L41.9584406,54.372965 C41.9584406,53.7132273 41.8357448,53.0669266 41.5934371,52.4512448 L40.3111888,49.1957308 Z M26.0967587,55.2871259 L25.9163497,55.467535 C25.5061888,55.8776958 24.8433671,55.8776958 24.4332063,55.467535 L19.1643357,50.1986643 C18.9817238,50.0160524 18.8810559,49.7728636 18.8810559,49.5146958 L18.8810559,49.3008042 L18.8810559,49.217979 C18.8810559,48.6851224 19.3143462,48.2518322 19.8472028,48.2518322 L20.1441399,48.2518322 C20.4020874,48.2518322 20.6454965,48.3525 20.827007,48.5351119 L26.0958776,53.8039825 C26.5060385,54.213042 26.5060385,54.8780664 26.0967587,55.2871259 Z M29.5031643,52.2051923 C29.4586678,52.3741469 29.358,52.5860559 29.133535,52.7433357 L29.1126084,52.756993 C28.7297622,53.0107552 28.2189336,52.9605315 27.8946818,52.6362797 L27.579021,52.3206189 L22.3101503,47.0517483 C22.1286399,46.8691364 22.027972,46.6259476 22.027972,46.3677797 L22.027972,46.0708427 C22.027972,45.537986 22.4612622,45.1046958 22.9941189,45.1046958 L24.1668881,45.1046958 C24.4688916,45.1046958 24.7552552,45.2483182 24.9367657,45.4886434 L27.3704161,48.732042 L29.3529336,51.3701119 C29.3613042,51.3806853 29.3685734,51.398528 29.3771643,51.398528 C29.3782657,51.398528 29.3782657,51.398528 29.3793671,51.398528 L29.3899406,51.417472 C29.4046993,51.6829091 29.4465524,51.9430594 29.511535,52.1937378 C29.508451,52.1979231 29.5073497,52.2021084 29.5031643,52.2051923 Z M31.4676189,47.509049 C31.4687203,47.7995979 30.5477308,48.2516119 30.115542,49.3005839 C30.1144406,49.3005839 30.1133392,49.3005839 30.112458,49.3005839 L27.862521,46.0959545 L26.6183811,44.3359196 L26.4179266,43.9918427 C26.2899441,43.8209056 26.2238601,43.5953392 26.2238601,43.3834301 L26.2238601,42.9241469 C26.2238601,42.3912902 26.6571503,41.958 27.190007,41.958 L28.185451,41.958 C28.5356958,41.958 28.6753531,42.1489825 28.8451888,42.4551713 L31.4676189,47.5079476 C31.4676189,47.509049 31.4676189,47.509049 31.4676189,47.509049 Z M34.6154161,47.2028601 L34.0669196,47.2028601 L31.4687203,42.526542 L31.4687203,35.1399021 C31.4685,34.2724406 32.1744965,33.5664441 33.041958,33.5664441 C33.9094196,33.5664441 34.6154161,34.2724406 34.6154161,35.1399021 L34.6154161,47.2028601 Z" id="Shape"></path>
            <rect id="Rectangle" x="30.419528" y="0" width="2.09794406" height="2.09794406"></rect>
            <polygon id="Rectangle" transform="translate(25.699391, 2.595125) rotate(60.007099) translate(-25.699391, -2.595125) " points="24.6504034 1.54613786 26.7483781 1.54613786 26.7483781 3.64411256 24.6504034 3.64411256"></polygon>
            <polygon id="Rectangle" transform="translate(21.475375, 6.818313) rotate(29.992901) translate(-21.475375, -6.818313) " points="20.4263875 5.76932603 22.5243622 5.76932603 22.5243622 7.86730073 20.4263875 7.86730073"></polygon>
            <rect id="Rectangle" x="18.8810559" y="11.538472" width="2.09794406" height="2.09794406"></rect>
            <polygon id="Rectangle" transform="translate(21.475104, 18.357373) rotate(-119.992901) translate(-21.475104, -18.357373) " points="20.4261171 17.3083855 22.5240918 17.3083855 22.5240918 19.4063602 20.4261171 19.4063602"></polygon>
            <polygon id="Rectangle" transform="translate(41.459695, 18.355397) rotate(-150.007099) translate(-41.459695, -18.355397) " points="40.4107081 17.3064095 42.5086828 17.3064095 42.5086828 19.4043842 40.4107081 19.4043842"></polygon>
            <rect id="Rectangle" x="41.958" y="11.538472" width="2.09794406" height="2.09794406"></rect>
            <polygon id="Rectangle" transform="translate(41.461663, 6.820149) rotate(60.007099) translate(-41.461663, -6.820149) " points="40.4126757 5.77116184 42.5106504 5.77116184 42.5106504 7.86913654 40.4126757 7.86913654"></polygon>
            <polygon id="Rectangle" transform="translate(37.236676, 2.594151) rotate(29.992901) translate(-37.236676, -2.594151) " points="36.1876886 1.54516396 38.2856633 1.54516396 38.2856633 3.64313866 36.1876886 3.64313866"></polygon>
            <polygon id="Path" points="60.8390559 12.5874441 60.8390559 10.4895 58.7413322 10.4895 58.7413322 12.5874441 56.6433881 12.5874441 56.6433881 14.6853881 58.7413322 14.6853881 58.7413322 16.7831119 60.8390559 16.7831119 60.8390559 14.6853881 62.937 14.6853881 62.937 12.5874441"></polygon>
            <polygon id="Path" points="50.3495559 6.29361189 52.4475 6.29361189 52.4475 4.19588811 54.5454441 4.19588811 54.5454441 2.09794406 52.4475 2.09794406 52.4475 0 50.3495559 0 50.3495559 2.09794406 48.2518322 2.09794406 48.2518322 4.19588811 50.3495559 4.19588811"></polygon>
            <polygon id="Path" points="4.19588811 16.7831119 2.09794406 16.7831119 2.09794406 18.8810559 0 18.8810559 0 20.979 2.09794406 20.979 2.09794406 23.0769441 4.19588811 23.0769441 4.19588811 20.979 6.29361189 20.979 6.29361189 18.8810559 4.19588811 18.8810559"></polygon>
            <polygon id="Path" points="13.6364161 8.39155594 11.538472 8.39155594 11.538472 6.29361189 9.44052797 6.29361189 9.44052797 8.39155594 7.34258392 8.39155594 7.34258392 10.4895 9.44052797 10.4895 9.44052797 12.5874441 11.538472 12.5874441 11.538472 10.4895 13.6364161 10.4895"></polygon>
            <polygon id="Path" points="16.7831119 33.5664441 16.7831119 31.4685 18.8810559 31.4685 18.8810559 29.3705559 16.7831119 29.3705559 16.7831119 27.2728322 14.6853881 27.2728322 14.6853881 29.3705559 12.5874441 29.3705559 12.5874441 31.4685 14.6853881 31.4685 14.6853881 33.5664441"></polygon>
            <polygon id="Path" points="53.496472 22.027972 51.398528 22.027972 51.398528 24.1259161 49.3008042 24.1259161 49.3008042 26.2238601 51.398528 26.2238601 51.398528 28.3215839 53.496472 28.3215839 53.496472 26.2238601 55.5944161 26.2238601 55.5944161 24.1259161 53.496472 24.1259161"></polygon>
        </g>
        <text id="MY-DESIGN-PROCESS" font-family="Lato-Regular, Lato" font-size="17" font-weight="normal" fill="#000000">
            <tspan x="312.7125" y="38">MY DESIGN PROCESS</tspan>
        </text>
        <polyline id="Path-17" stroke="url(#linearGradient-1)" stroke-width="15" stroke-linecap="round" stroke-linejoin="round" points="160 110 134 68 59.0322581 68 21 133 59.0322581 198 135.225806 198 209 68 283.588645 68 310 110"></polyline>
        <polyline id="Path-17" stroke="url(#linearGradient-2)" stroke-width="15" stroke-linecap="round" stroke-linejoin="round" transform="translate(633.500000, 133.000000) scale(-1, -1) translate(-633.500000, -133.000000) " points="628 110 602 68 527.032258 68 489 133 527.032258 198 603.225806 198 677 68 751.588645 68 778 110"></polyline>
        <polyline id="Path" stroke="url(#linearGradient-3)" stroke-width="15" stroke-linecap="round" stroke-linejoin="round" points="184.774194 154 211.032258 198 287.225806 198 361 68 435.588645 68 462 110"></polyline>
        <polyline id="Path" stroke="url(#linearGradient-4)" stroke-width="15" stroke-linecap="round" stroke-linejoin="round" points="336.774194 154 363.032258 198 439.225806 198 513 68 587.588645 68 614 110"></polyline>
        <text id="Define" font-family="Lato-Bold, Lato" font-size="12" font-weight="bold" fill="#3D1030">
            <tspan x="79.584" y="185">Define</tspan>
        </text>
        <path d="M87.478692,157.25 L87.478692,150.004717 L75.664346,150.004717 C71.7262307,150.004717 69.757173,148.394654 69.757173,145.174528 C69.757173,141.954403 69.757173,137.929245 69.757173,133.099057 L63.85,133.099057 L72.1200422,121.023585 L73.1200422,110.15566 M112.288819,135.514151 C112.288819,141.954403 112.288819,149.199686 112.288819,157.25" id="Shape" stroke="#5B1647" stroke-width="2" stroke-linecap="square" stroke-linejoin="round"></path>
        <g id="Group-2" transform="translate(80.000000, 99.000000)" stroke="#5B1647" stroke-width="2">
            <polygon id="Polygon" stroke-linecap="round" stroke-linejoin="round" points="16.6666667 5 25.904271 11 25.904271 23 16.6666667 29 7.42906236 23 7.42906236 11"></polygon>
            <polyline id="Path-19" points="7.42906236 11 16.6666667 16.5555556 25.904271 11"></polyline>
            <path d="M16.6666667,16.5555556 L16.6666667,29" id="Path-20"></path>
            <path d="M17,34 C26.3888407,34 34,26.3888407 34,17 C34,7.61115925 26.3888407,0 17,0 C7.61115925,0 0,7.61115925 0,17 C0,26.3888407 7.61115925,34 17,34 Z" id="Oval" stroke-linejoin="round" stroke-dasharray="3,4"></path>
        </g>
        <text id="Research" font-family="Lato-Bold, Lato" font-size="12" font-weight="bold" fill="#96043E">
            <tspan x="223.169" y="185">Research</tspan>
        </text>
        <text id="Design" font-family="Lato-Bold, Lato" font-size="12" font-weight="bold" fill="#C90035">
            <tspan x="380.044" y="185">Design</tspan>
        </text>
        <text id="Production" font-family="Lato-Bold, Lato" font-size="12" font-weight="bold" fill="#FF5728">
            <tspan x="522.425" y="185">Production</tspan>
        </text>
        <text id="Analyze" font-family="Lato-Bold, Lato" font-size="12" font-weight="bold" fill="#FFC002">
            <tspan x="680.337" y="185">Analyze</tspan>
        </text>
        <g id="Group" transform="translate(670.000000, 93.000000)" stroke="#FFBC03" stroke-width="2">
            <g id="alambic" transform="translate(0.000000, 20.620690)" stroke-linejoin="round">
                <path d="M14.7931034,10.8103448 C7.16334853,12.38981 0,19.1482675 0,27.2461293 C0,36.5159432 7.5146689,44.0306121 16.7844828,44.0306121 C26.0542966,44.0306121 33.5689655,36.5159432 33.5689655,27.2461293 C33.5689655,20.8047099 29.9404334,15.2107796 24.6158636,12.396833 C23.3044927,11.7037952 20.8330826,11.1372611 19.3448276,10.8103448" id="Path"></path>
                <polyline id="Path" points="13.6551724 5.12068966 13.6551724 0 13.6551724 0 20.4827586 0 20.4827586 5.12068966"></polyline>
                <path d="M19.6293103,3.4137931 L19.6293103,11.3793103 M14.5086207,11.3793103 L14.5086207,3.4137931" id="Shape"></path>
                <path d="M4.4137931,28.1551724 C4.4137931,34.2826765 10.0102337,39.25 16.9137931,39.25 C23.8173525,39.25 29.4137931,34.2826765 29.4137931,28.1551724 L4.4137931,28.1551724 Z" id="Path"></path>
            </g>
            <g id="alambic" transform="translate(32.431034, 32.568966)" stroke-linejoin="round">
                <polygon id="Path-5" points="0 32.4310345 25.0344828 32.4310345 16.7303354 13.6551724 16.7303354 5.68965517 17.637931 5.68965517 17.637931 -1.1357432e-13 7.62688717 -1.1357432e-13 7.62688717 5.68965517 8.53448276 5.68965517 8.53448276 13.6551724"></polygon>
                <polygon id="Path-6" points="3.69219427 25.6034483 15.362069 25.6034483 21.3301253 25.6034483"></polygon>
            </g>
            <path d="M17,17.6754838 L17,5.00358836 C17.0488873,1.66786279 18.9475898,-8.40744929e-14 22.6961075,0 C26.4446252,8.37279107e-14 28.5229342,1.66786279 28.9310345,5.00358836 L28.9310345,26.5 C28.9310345,28.8333333 29.7643678,30 31.4310345,30 C33.0977011,30 33.9310345,28.8333333 33.9310345,26.5 L33.9310345,14.5470494 C34.9885057,10.917982 36.9195402,9.10344828 39.7241379,9.10344828 C42.5287356,9.10344828 44.2643678,10.917982 44.9310345,14.5470494 L44.9310345,29" id="Path-18"></path>
            <g id="Group-3" transform="translate(5.000000, 9.000000)">
                <circle id="Oval" cx="3" cy="3" r="3"></circle>
                <circle id="Oval" cx="56" cy="14" r="1"></circle>
                <circle id="Oval" cx="52" cy="12" r="1"></circle>
                <circle id="Oval" cx="48" cy="14" r="1"></circle>
                <circle id="Oval" transform="translate(56.000000, 19.000000) scale(1, -1) translate(-56.000000, -19.000000) " cx="56" cy="19" r="1"></circle>
                <circle id="Oval" transform="translate(52.000000, 21.000000) scale(1, -1) translate(-52.000000, -21.000000) " cx="52" cy="21" r="1"></circle>
                <circle id="Oval" transform="translate(48.000000, 19.000000) scale(1, -1) translate(-48.000000, -19.000000) " cx="48" cy="19" r="1"></circle>
            </g>
        </g>
        <g id="approval" transform="translate(224.000000, 100.000000)" fill="#96043E" fill-rule="nonzero">
            <path d="M60,22.2580645 C60,14.5799206 54.0050088,8.29243319 46.4516129,7.79107863 L46.4516129,0 L0,0 L0,52.2580645 L40.6451613,52.2580645 L40.6451613,55.1612903 C40.6451613,57.8291961 42.8159652,60 45.483871,60 C48.1517768,60 50.3225806,57.8291961 50.3225806,55.1612903 L50.3225806,40.6451613 L48.3870968,40.6451613 L48.3870968,36.4821699 C55.0044103,35.133096 60,29.2685232 60,22.2580645 Z M58.0645161,22.2580645 C58.0645161,29.1948085 52.4206149,34.8387097 45.483871,34.8387097 C38.547127,34.8387097 32.9032258,29.1948085 32.9032258,22.2580645 C32.9032258,15.3213206 38.547127,9.67741935 45.483871,9.67741935 C52.4206149,9.67741935 58.0645161,15.3213206 58.0645161,22.2580645 Z M40.6451613,40.6451613 L40.6451613,50.3225806 L1.93548387,50.3225806 L1.93548387,1.93548387 L44.516129,1.93548387 L44.516129,7.79107863 C36.9627331,8.29243319 30.9677419,14.5799206 30.9677419,22.2580645 C30.9677419,29.2685232 35.9633317,35.133096 42.5806452,36.4821699 L42.5806452,40.6451613 L40.6451613,40.6451613 Z M48.3870968,55.1612903 C48.3870968,56.7617503 47.0843309,58.0645161 45.483871,58.0645161 C43.883411,58.0645161 42.5806452,56.7617503 42.5806452,55.1612903 L42.5806452,42.5806452 L48.3870968,42.5806452 L48.3870968,55.1612903 Z M46.4516129,40.6451613 L44.516129,40.6451613 L44.516129,36.7250504 C44.8374496,36.7463142 45.15688,36.7741935 45.483871,36.7741935 C45.8108619,36.7741935 46.1302923,36.7463142 46.4516129,36.7250504 L46.4516129,40.6451613 Z" id="Shape"></path>
            <path d="M34.8387097,22.2580645 C34.8387097,28.1273626 39.6145729,32.9032258 45.483871,32.9032258 C51.3531691,32.9032258 56.1290323,28.1273626 56.1290323,22.2580645 C56.1290323,16.3887664 51.3531691,11.6129032 45.483871,11.6129032 C39.6145729,11.6129032 34.8387097,16.3887664 34.8387097,22.2580645 Z M54.1935484,22.2580645 C54.1935484,27.0608619 50.2857232,30.9677419 45.483871,30.9677419 C40.6820187,30.9677419 36.7741935,27.0608619 36.7741935,22.2580645 C36.7741935,17.4552671 40.6820187,13.5483871 45.483871,13.5483871 C50.2857232,13.5483871 54.1935484,17.4552671 54.1935484,22.2580645 Z" id="Shape"></path>
            <path d="M46.4516129,55.1612903 C46.4516129,55.6957221 46.0183027,56.1290323 45.483871,56.1290323 C44.9494392,56.1290323 44.516129,55.6957221 44.516129,55.1612903 C44.516129,54.6268586 44.9494392,54.1935484 45.483871,54.1935484 C46.0183027,54.1935484 46.4516129,54.6268586 46.4516129,55.1612903 Z" id="Path"></path>
            <polygon id="Path" points="42.1501701 24.3560988 41.0756364 25.9664819 44.8917906 28.5096397 50.2209866 17.85172 48.4886908 16.9869896 44.1404675 25.6839087"></polygon>
            <path d="M17.344695,32.3078377 L15.5585308,31.56313 L14.1938635,34.8387097 L3.87096774,34.8387097 L3.87096774,48.3870968 L19.3548387,48.3870968 L19.3548387,34.8387097 L16.2900075,34.8387097 L17.344695,32.3078377 Z M17.4193548,36.7741935 L17.4193548,46.4516129 L5.80645161,46.4516129 L5.80645161,36.7741935 L13.3877268,36.7741935 L11.2759892,41.8420804 L9.39484621,39.9609375 L8.02639863,41.3293851 L11.9517074,45.2546938 L15.483871,36.7741935 L17.4193548,36.7741935 Z" id="Shape"></path>
            <path d="M17.344695,13.9207409 L15.5585308,13.1760333 L14.1938635,16.4516129 L3.87096774,16.4516129 L3.87096774,30 L19.3548387,30 L19.3548387,16.4516129 L16.2900075,16.4516129 L17.344695,13.9207409 Z M17.4193548,18.3870968 L17.4193548,28.0645161 L5.80645161,28.0645161 L5.80645161,18.3870968 L13.3877268,18.3870968 L11.2759892,23.4549836 L9.39484621,21.5738407 L8.02639863,22.9422883 L11.9517074,26.8675971 L15.483871,18.3870968 L17.4193548,18.3870968 Z" id="Shape"></path>
            <polygon id="Path" points="27.0967742 7.74193548 29.0322581 7.74193548 29.0322581 9.67741935 27.0967742 9.67741935"></polygon>
            <polygon id="Path" points="3.87096774 7.74193548 25.1612903 7.74193548 25.1612903 9.67741935 3.87096774 9.67741935"></polygon>
            <polygon id="Path" points="21.2903226 34.8387097 32.9032258 34.8387097 32.9032258 36.7741935 21.2903226 36.7741935"></polygon>
            <polygon id="Path" points="21.2903226 38.7096774 32.9032258 38.7096774 32.9032258 40.6451613 21.2903226 40.6451613"></polygon>
            <polygon id="Path" points="21.2903226 42.5806452 32.9032258 42.5806452 32.9032258 44.516129 21.2903226 44.516129"></polygon>
            <polygon id="Path" points="21.2903226 46.4516129 32.9032258 46.4516129 32.9032258 48.3870968 21.2903226 48.3870968"></polygon>
            <polygon id="Path" points="21.2903226 16.4516129 29.0322581 16.4516129 29.0322581 18.3870968 21.2903226 18.3870968"></polygon>
            <polygon id="Path" points="21.2903226 20.3225806 29.0322581 20.3225806 29.0322581 22.2580645 21.2903226 22.2580645"></polygon>
            <polygon id="Path" points="21.2903226 24.1935484 29.0322581 24.1935484 29.0322581 26.1290323 21.2903226 26.1290323"></polygon>
            <polygon id="Path" points="21.2903226 28.0645161 29.0322581 28.0645161 29.0322581 30 21.2903226 30"></polygon>
            <polygon id="Path" points="3.87096774 3.87096774 29.0322581 3.87096774 29.0322581 5.80645161 3.87096774 5.80645161"></polygon>
        </g>
        <g id="graphic-tool" transform="translate(526.000000, 106.000000)" fill="#FF5927" fill-rule="nonzero">
            <path d="M49.5914865,13.5022568 L41.9086622,13.5022568 C42.0022973,13.2396216 42.0625541,12.9601216 42.0625541,12.6656892 C42.0625541,11.2820676 40.936473,10.1559865 39.5528514,10.1559865 L38.7162838,10.1559865 L38.7162838,2.62705405 C38.7162838,1.24343243 37.5902027,0.117351351 36.2065811,0.117351351 L16.1294865,0.117351351 C14.7458649,0.117351351 13.6197838,1.24343243 13.6197838,2.62705405 L13.6197838,9.31941892 C13.6197838,9.78127027 13.2441892,10.1559865 12.7832162,10.1559865 L5.25445946,10.1559865 L5.25445946,8.48285135 C5.25445946,7.09922973 4.12837838,5.97314865 2.74475676,5.97314865 L0.235054054,5.97314865 L0.235054054,16.0117838 L2.74475676,16.0117838 C4.12837838,16.0117838 5.25445946,14.8857027 5.25445946,13.5020811 L5.25445946,11.8289459 L12.7833919,11.8289459 C14.1670135,11.8289459 15.2930946,10.7028649 15.2930946,9.31924324 L15.2930946,2.62705405 C15.2930946,2.1652027 15.6686892,1.79048649 16.1296622,1.79048649 L36.2067568,1.79048649 C36.6677297,1.79048649 37.0433243,2.1652027 37.0433243,2.62705405 L37.0433243,10.1559865 L36.2067568,10.1559865 C34.8231351,10.1559865 33.6970541,11.2820676 33.6970541,12.6656892 C33.6970541,12.9601216 33.7573108,13.2396216 33.8509459,13.5022568 L26.1681216,13.5022568 C24.7845,13.5022568 23.6584189,14.6283378 23.6584189,16.0119595 L7.47043243,16.0119595 L2.24197297,20.1947973 L7.47043243,24.3776351 L23.6585946,24.3776351 L23.6585946,26.0507703 L11.1629595,26.0507703 L4.05722973,25.1623784 L0,30.2332568 L4.05722973,35.3044865 L11.1629595,34.4160946 L23.6585946,34.4160946 L23.6585946,36.9257973 L0.235054054,36.9257973 L0.235054054,49.4741351 L29.8306081,49.4741351 C32.1219459,51.0534595 34.8934054,51.9838378 37.8798919,51.9838378 C45.7217027,51.9838378 52.1011892,45.6043514 52.1011892,37.7625405 L52.1011892,16.0117838 C52.1011892,14.6281622 50.9752838,13.5022568 49.5914865,13.5022568 Z M3.58132432,13.5022568 C3.58132432,13.9641081 3.20572973,14.3388243 2.74475676,14.3388243 L1.90818919,14.3388243 L1.90818919,7.64628378 L2.74475676,7.64628378 C3.20572973,7.64628378 3.58132432,8.021 3.58132432,8.48285135 L3.58132432,13.5022568 Z M6.92741892,21.7999459 L4.9205,20.1946216 L6.92741892,18.5884189 L6.92741892,21.7999459 Z M23.6584189,22.7041486 L8.60055405,22.7041486 L8.60055405,21.0310135 L23.6584189,21.0310135 L23.6584189,22.7041486 Z M23.6584189,19.3580541 L8.60055405,19.3580541 L8.60055405,17.6849189 L23.6584189,17.6849189 L23.6584189,19.3580541 Z M10.2736892,32.8467838 L4.77837838,33.5284054 L2.81256757,31.0698243 L3.73609459,31.0698243 C4.08164865,32.0411351 5.00183784,32.7429595 6.09102703,32.7429595 C7.47464865,32.7429595 8.60072973,31.6168784 8.60072973,30.2332568 C8.60072973,28.8496351 7.47464865,27.7235541 6.09102703,27.7235541 C5.00183784,27.7235541 4.08164865,28.4253784 3.73521622,29.3966892 L2.81256757,29.3966892 L4.77837838,26.9389865 L10.2736892,27.6258784 L10.2736892,32.8467838 Z M5.25445946,30.2332568 C5.25445946,29.7714054 5.63005405,29.3966892 6.09102703,29.3966892 C6.552,29.3966892 6.92759459,29.7714054 6.92759459,30.2332568 C6.92759459,30.6951081 6.552,31.0698243 6.09102703,31.0698243 C5.63005405,31.0698243 5.25445946,30.6949324 5.25445946,30.2332568 Z M23.6584189,32.7426081 L15.2929189,32.7426081 L15.2929189,27.7235541 L13.6197838,27.7235541 L13.6197838,32.7427838 L11.9466486,32.7427838 L11.9466486,27.7175811 L23.6584189,27.7233784 L23.6584189,32.7426081 Z M36.2067568,11.8291216 L39.553027,11.8291216 C40.014,11.8291216 40.3895946,12.2038378 40.3895946,12.6656892 C40.3895946,13.1275405 40.014,13.5022568 39.553027,13.5022568 L36.2067568,13.5022568 C35.7457838,13.5022568 35.3701892,13.1273649 35.3701892,12.6656892 C35.3701892,12.2038378 35.7457838,11.8291216 36.2067568,11.8291216 Z M1.90818919,47.8008243 L1.90818919,38.5987568 L3.58132432,38.5987568 L3.58132432,41.1084595 L5.25445946,41.1084595 L5.25445946,38.5987568 L6.92759459,38.5987568 L6.92759459,41.945027 L8.60072973,41.945027 L8.60072973,38.5987568 L10.2738649,38.5987568 L10.2738649,41.1084595 L11.947,41.1084595 L11.947,38.5987568 L13.6201351,38.5987568 L13.6201351,41.945027 L15.2932703,41.945027 L15.2932703,38.5987568 L16.9664054,38.5987568 L16.9664054,41.1084595 L18.6395405,41.1084595 L18.6395405,38.5987568 L20.3126757,38.5987568 L20.3126757,41.945027 L21.9858108,41.945027 L21.9858108,38.5987568 L23.7016351,38.5987568 C23.9115676,42.1792027 25.435027,45.4125135 27.8175405,47.8008243 L1.90818919,47.8008243 Z M50.4280541,37.7620135 C50.4280541,44.6811757 44.7990541,50.3103514 37.8798919,50.3103514 C30.9607297,50.3103514 25.3315541,44.6811757 25.3315541,37.7620135 L25.3315541,34.4157432 L25.3315541,26.0502432 L25.3315541,25.2136757 L50.4280541,25.2136757 L50.4280541,37.7620135 Z M50.4282297,23.5407162 L38.7164595,23.5407162 L38.7164595,16.8483514 L37.0433243,16.8483514 L37.0433243,23.5407162 L25.3315541,23.5407162 L25.3315541,16.0117838 C25.3315541,15.5501081 25.7071486,15.1752162 26.1681216,15.1752162 L36.2067568,15.1752162 L39.553027,15.1752162 L49.5916622,15.1752162 C50.0526351,15.1752162 50.4282297,15.5499324 50.4282297,16.0117838 L50.4282297,23.5407162 Z" id="Shape"></path>
        </g>
        <path d="M111.928008,135.248107 C117.192339,130.754398 121,123.963992 121,116.5 C121,102.969024 110.030976,92 96.5,92 C85.2757969,92 76.0570662,99.1007911 73.157335,109.3977" id="Shape" stroke="#443658" stroke-width="2" stroke-linejoin="round"></path>
    </g>
</svg>