<svg height="496pt" viewBox="0 0 496 496" width="496pt" xmlns="http://www.w3.org/2000/svg"><path d="m456 128h-8v-128h-400v128h-8c-22.054688 0-40 17.945312-40 40v240c0 22.054688 17.945312 40 40 40h104v32h-32v16h272v-16h-32v-32h104c22.054688 0 40-17.945312 40-40v-240c0-22.054688-17.945312-40-40-40zm-189.800781 192-5.839844-11.6875 19.640625-6.542969v-13.769531c30.878906 0 56-25.128906 56-56v-92.105469l25.214844 40.34375 13.570312-8.484375-46.785156-74.851562-46.785156 74.851562 13.570312 8.484375 25.214844-40.34375v92.105469c0 22.054688-17.945312 40-40 40v-13.769531l-19.648438-6.542969 9.265626-18.519531-30.785157-30.785157-18.511719 9.257813-6.550781-19.640625h-43.53125l-6.550781 19.640625-18.511719-9.257813-30.785156 30.785157 9.265625 18.519531-19.65625 6.542969v43.53125l19.648438 6.542969-5.847657 11.695312h-53.800781v-240h368v240zm-16.046875 3.679688-14.472656 14.472656-17.296876-8.648438-3.460937 1.550782c-1 .449218-2.011719.839843-3.035156 1.242187l-3.527344 1.351563-6.128906 18.351562h-20.46875l-6.121094-18.351562-3.527344-1.351563c-1.023437-.402344-2.042969-.800781-3.035156-1.242187l-3.460937-1.550782-17.296876 8.648438-14.472656-14.472656 8.648438-17.296876-1.550782-3.460937c-.441406-.984375-.839843-1.984375-1.226562-3l-1.34375-3.5625-18.375-6.128906v-20.46875l18.382812-6.128907 1.34375-3.5625c.386719-1.015624.785157-2.015624 1.226563-3l1.550781-3.460937-8.648437-17.296875 14.472656-14.472656 17.296875 8.648437 3.464844-1.550781c1-.449219 2.007812-.839844 3.03125-1.242188l3.527344-1.351562 6.121093-18.34375h20.46875l6.121094 18.351562 3.527344 1.351563c1.023437.402344 2.042969.800781 3.035156 1.242187l3.460937 1.550782 17.296876-8.648438 14.472656 14.472656-8.648438 17.296876 1.550782 3.460937c.441406.984375.839843 1.984375 1.226562 3l1.34375 3.5625 18.375 6.128906v20.46875l-18.382812 6.128907-1.34375 3.5625c-.386719 1.015624-.785157 2.015624-1.226563 3l-1.550781 3.460937zm181.847656-307.679688v48h-368v-48zm-392 128h8v192h75.542969l21.625 21.617188 18.511719-9.257813 6.550781 19.640625h43.53125l6.550781-19.640625 18.511719 9.257813 21.632812-21.617188h187.542969v-192h8c13.230469 0 24 10.769531 24 24v216h-464v-216c0-13.230469 10.769531-24 24-24zm296 336h-176v-32h176zm120-48h-416c-13.230469 0-24-10.769531-24-24v-8h464v8c0 13.230469-10.769531 24-24 24zm0 0"/><path d="m80 32h16v16h-16zm0 0"/><path d="m112 32h16v16h-16zm0 0"/><path d="m144 32h16v16h-16zm0 0"/><path d="m192 240c-22.054688 0-40 17.945312-40 40s17.945312 40 40 40 40-17.945312 40-40-17.945312-40-40-40zm0 64c-13.230469 0-24-10.769531-24-24s10.769531-24 24-24 24 10.769531 24 24-10.769531 24-24 24zm0 0"/><path d="m130.34375 98.34375-18.34375 18.34375-18.34375-18.34375-11.3125 11.3125 18.34375 18.34375-18.34375 18.34375 11.3125 11.3125 18.34375-18.34375 18.34375 18.34375 11.3125-11.3125-18.34375-18.34375 18.34375-18.34375zm0 0"/><path d="m248 96c-17.648438 0-32 14.351562-32 32s14.351562 32 32 32 32-14.351562 32-32-14.351562-32-32-32zm0 48c-8.824219 0-16-7.175781-16-16s7.175781-16 16-16 16 7.175781 16 16-7.175781 16-16 16zm0 0"/><path d="m384 240c-17.648438 0-32 14.351562-32 32s14.351562 32 32 32 32-14.351562 32-32-14.351562-32-32-32zm0 48c-8.824219 0-16-7.175781-16-16s7.175781-16 16-16 16 7.175781 16 16-7.175781 16-16 16zm0 0"/></svg>