<?xml version="1.0" encoding="UTF-8"?>
<svg version="1.1" viewBox="0 0 20 20" xmlns="http://www.w3.org/2000/svg" xmlns:xlink="http://www.w3.org/1999/xlink">
    <!--Generated by IJSVG (https://github.com/iconjar/IJSVG)-->
    <path d="M10,0.399963c-5.30194,0 -9.59998,4.2981 -9.59998,9.60004c0,5.30194 4.29803,9.59998 9.59998,9.59998c5.30194,0 9.59998,-4.29803 9.59998,-9.59998c0,-5.30194 -4.29803,-9.60004 -9.59998,-9.60004Zm-3.76868,6.60004h7.51959c0.398804,0 0.193542,0.511719 -0.0234985,0.643066c-0.217041,0.130859 -3.22131,1.94702 -3.33331,2.0144c-0.112,0.0673828 -0.256958,0.0996094 -0.402771,0.0996094c-0.145874,0 -0.290833,-0.0322266 -0.402771,-0.0996094c-0.112,-0.0673828 -3.11633,-1.88354 -3.33337,-2.0144c-0.21698,-0.131348 -0.422302,-0.643066 -0.0238648,-0.643066Zm7.76868,5.5c0,0.209961 -0.251709,0.5 -0.444458,0.5h-7.11108c-0.192749,0 -0.444458,-0.290039 -0.444458,-0.5c0,0 0,-3.55444 0,-3.64673c0,-0.0917969 -0.001709,-0.211426 0.171875,-0.109375c0.246521,0.144531 3.26562,1.92505 3.41669,2.01392c0.151001,0.0888672 0.256897,0.0995483 0.402771,0.0995483c0.145813,0 0.251709,-0.0106812 0.402771,-0.0995483c0.151062,-0.0888671 3.1875,-1.8689 3.43402,-2.01343c0.173584,-0.102051 0.171875,0.0175781 0.171875,0.109375c0,0.0922851 0,3.64624 0,3.64624Z" fill="#FFD400"></path>
</svg>