<?xml version="1.0" encoding="UTF-8"?>
<svg width="800px" height="230px" viewBox="0 0 800 230" version="1.1" xmlns="http://www.w3.org/2000/svg" xmlns:xlink="http://www.w3.org/1999/xlink">
    <!-- Generator: Sketch 52.6 (67491) - http://www.bohemiancoding.com/sketch -->
    <title>Artboard</title>
    <desc>Created with Sketch.</desc>
    <g id="Artboard" stroke="none" stroke-width="1" fill="none" fill-rule="evenodd">
        <rect id="Rectangle" stroke="#000000" fill="#FFFFFF" x="0.5" y="0.5" width="265" height="229"></rect>
        <rect id="Rectangle" stroke="#000000" fill="#FFFFFF" x="267.5" y="0.5" width="265" height="229"></rect>
        <rect id="Rectangle" stroke="#000000" fill="#FFFFFF" x="534.5" y="0.5" width="265" height="229"></rect>
        <rect id="Rectangle" fill="#FFFFFF" x="0" y="0" width="800" height="230"></rect>
        <g id="Group" transform="translate(90.000000, 73.000000)">
            <text id="RESEARCH" font-family="Lato-Regular, Lato" font-size="17" font-weight="normal" fill="#000000">
                <tspan x="0" y="119">RESEARCH</tspan>
            </text>
            <rect id="Rectangle" fill="#FFEC5B" x="27" y="0" width="64" height="64"></rect>
            <g id="031-job-search" transform="translate(3.000000, 7.000000)" fill="#000000" fill-rule="nonzero">
                <path d="M77.483871,65.3367742 L63.1148387,50.9677419 L65.4283871,48.6541935 L63.603871,46.8296774 L61.2903226,49.1432258 L58.0722581,45.9251613 C60.5303226,41.4877419 61.9354839,36.3896774 61.9354839,30.9677419 C61.9354839,13.8929032 48.0425806,0 30.9677419,0 C13.8929032,0 0,13.8929032 0,30.9677419 C0,48.0425806 13.8929032,61.9354839 30.9677419,61.9354839 C36.3896774,61.9354839 41.4877419,60.5303226 45.9251613,58.0722581 L49.1432258,61.2903226 L46.8296774,63.603871 L48.6541935,65.4283871 L50.9677419,63.1148387 L65.3367742,77.483871 C66.96,79.1070968 69.116129,80 71.4103226,80 C76.1470968,80 80,76.1470968 80,71.4103226 C80,69.1148387 79.1070968,66.96 77.483871,65.3367742 Z M8.92129032,48.8219355 C4.96,43.9419355 2.58064516,37.7290323 2.58064516,30.9677419 C2.58064516,15.3148387 15.3148387,2.58064516 30.9677419,2.58064516 C46.6206452,2.58064516 59.3548387,15.3148387 59.3548387,30.9677419 C59.3548387,37.7290323 56.9754839,43.9419355 53.0154839,48.8232258 C52.4722581,48.1277419 51.8554839,47.4980645 51.1754839,46.9470968 C54.7870968,42.3909677 56.7741935,36.7909677 56.7741935,30.9677419 C56.7741935,17.163871 45.8722581,5.89032258 32.2309677,5.22580645 C31.9754839,5.20387097 31.7187097,5.19612903 31.4606452,5.18709677 C31.2954839,5.18322581 31.1341935,5.16129032 30.9677419,5.16129032 C30.9006452,5.16129032 30.836129,5.17032258 30.7690323,5.1716129 C30.356129,5.17548387 29.9419355,5.19741935 29.5264516,5.23483871 C15.9677419,5.98967742 5.16129032,17.2245161 5.16129032,30.9677419 C5.16129032,36.7909677 7.1483871,42.3909677 10.7612903,46.9458065 C10.08,47.4980645 9.46451613,48.1264516 8.92129032,48.8219355 Z M30.9677419,23.2258065 C24.1045161,23.2258065 21.1741935,22.0490323 21.1535484,22.04 L19.3548387,21.2696774 L19.3548387,26.2206452 C18.3109677,24.0516129 17.8735484,21.6116129 18.1483871,19.1548387 C18.7793548,13.4980645 23.3032258,8.76645161 28.9058065,7.90193548 C29.1974194,7.85677419 29.4877419,7.82709677 29.7780645,7.80258065 C30.0606452,7.7883871 30.3406452,7.76387097 30.6258065,7.75870968 C30.956129,7.75096774 31.283871,7.75612903 31.6103226,7.77419355 C31.7548387,7.77806452 31.8967742,7.78967742 32.0412903,7.79612903 C36.4283871,8.17419355 40.3896774,10.7535484 42.4503226,14.7806452 L42.8103226,15.483871 L43.5987097,15.483871 C44.4606452,15.483871 45.1612903,16.1845161 45.1612903,17.0464516 L45.1612903,21.9354839 C45.1612903,24.5987097 44.2219355,27.1690323 42.5793548,29.2154839 L42.5729032,21.2993548 L40.7896774,22.036129 C40.7612903,22.0490323 37.8309677,23.2258065 30.9677419,23.2258065 Z M40,24.9470968 L40,30.9677419 C40,35.9470968 35.9470968,40 30.9677419,40 C25.9883871,40 21.9354839,35.9470968 21.9354839,30.9677419 L21.9354839,24.9470968 C23.6219355,25.3406452 26.5509677,25.8064516 30.9677419,25.8064516 C35.3845161,25.8064516 38.3135484,25.3406452 40,24.9470968 Z M15.5832258,18.8670968 C15.0941935,23.236129 16.4774194,27.5587097 19.3548387,30.836129 L19.3548387,30.9677419 C19.3548387,34.396129 20.8567742,37.4722581 23.2258065,39.5987097 L23.2258065,42.843871 L15.4541935,44.6387097 C14.5780645,44.84 13.7406452,45.1509677 12.9470968,45.5419355 C9.59354839,41.4064516 7.74193548,36.2929032 7.74193548,30.9677419 C7.74193548,22.6812903 12.1174194,15.4154839 18.6658065,11.3032258 C17.0064516,13.476129 15.8941935,16.0735484 15.5832258,18.8670968 Z M24.2993548,45.2451613 L28.8877419,47.9974194 L26.0077419,50.8774194 L22.5264516,45.6541935 L24.2993548,45.2451613 Z M25.8064516,43.1406452 L25.8064516,41.3548387 C27.363871,42.1316129 29.1122581,42.5806452 30.9677419,42.5806452 C32.8232258,42.5806452 34.5716129,42.1329032 36.1290323,41.3548387 L36.1290323,43.1393548 L30.9677419,46.236129 L25.8064516,43.1406452 Z M37.636129,45.2451613 L39.4103226,45.6541935 L35.9290323,50.8774194 L33.0490323,47.9974194 L37.636129,45.2451613 Z M38.7096774,42.843871 L38.7096774,39.5987097 C40.596129,37.9058065 41.923871,35.6116129 42.3883871,33.0141935 C45.7406452,30.3380645 47.7419355,26.236129 47.7419355,21.9354839 L47.7419355,17.0464516 C47.7419355,15.04 46.3083871,13.3625806 44.4116129,12.9832258 C44.08,12.4012903 43.7070968,11.8541935 43.3096774,11.3290323 C49.836129,15.4451613 54.1935484,22.6993548 54.1935484,30.9677419 C54.1935484,36.2929032 52.3419355,41.4064516 48.9883871,45.5419355 C48.1948387,45.1509677 47.3574194,44.8412903 46.4812903,44.6387097 L38.7096774,42.843871 Z M30.9677419,59.3548387 C23.0154839,59.3548387 15.8219355,56.0645161 10.6632258,50.7780645 C11.9380645,48.9574194 13.8503226,47.6567742 16.0335484,47.1535484 L19.8374194,46.276129 L25.6064516,54.9290323 L30.9677419,49.5664516 L36.3290323,54.9277419 L42.0980645,46.2748387 L45.9019355,47.1522581 C48.083871,47.6554839 49.9974194,48.9574194 51.2722581,50.7767742 C46.1135484,56.0645161 38.92,59.3548387 30.9677419,59.3548387 Z M48.1922581,56.6890323 C51.5458065,54.436129 54.4374194,51.5445161 56.6903226,48.1909677 L59.4658065,50.9664516 L50.9677419,59.4658065 L48.1922581,56.6890323 Z M52.7922581,61.2903226 L61.2903226,52.7922581 L63.9819355,55.483871 L55.483871,63.9819355 L52.7922581,61.2903226 Z M71.4103226,77.4193548 C69.8051613,77.4193548 68.2967742,76.7948387 67.1612903,75.6593548 L57.3083871,65.8064516 L65.8064516,57.3083871 L75.6593548,67.1612903 C76.7948387,68.2967742 77.4193548,69.8051613 77.4193548,71.4103226 C77.4193548,74.723871 74.723871,77.4193548 71.4103226,77.4193548 Z" id="Shape"></path>
            </g>
        </g>
        <g id="Group-2" transform="translate(354.000000, 72.000000)">
            <g id="Group">
                <rect id="Rectangle" fill="#FFEC5B" x="0" y="25" width="64" height="64"></rect>
                <g id="idea-1" transform="translate(7.000000, 0.000000)" fill="#000000">
                    <path d="M74,0.0253016211 L66.1120353,5.85029705 L58.179332,24.0969828 L51.800228,24.0969828 L49.2954337,18.7420352 L50.9319563,18.7420352 C53.9254561,18.7420352 56.3598654,16.3659319 56.3598654,13.4126705 L56.3598654,8.03214017 L59.0738199,8.03214017 L59.0738199,0 L50.9319563,0 L50.9319563,8.03214017 L53.6459108,8.03214017 L53.6459108,13.4126705 C53.6459108,14.8880361 52.4288487,16.0645615 50.9319563,16.0645615 L48.0430366,16.0645615 L44.5745092,8.66158828 L48.7295041,6.61862294 L35.1246813,0.870094636 L31.9262956,11.9131277 C31.8393829,5.34285898 26.4020702,0.0241771046 19.721764,0.0241771046 C12.9873155,0.0241771046 7.50925348,5.42860336 7.50925348,12.0725279 C7.50925348,16.0873329 9.57036575,19.8530575 12.9371626,22.0793191 L12.9371626,24.0967016 L9.65072434,24.0967016 L9.43899941,25.1945109 C8.77960306,28.569466 8.71833676,32.0380371 9.25719523,35.497331 L0,51.7761128 L10.223208,54.079966 L10.223208,70.9516492 L23.7926958,70.9516492 L23.7926958,83 L56.3595804,83 L56.3595804,64.3451148 C65.8581364,57.7158089 71.2831959,47.0570794 71.275217,35.6859686 L71.2780666,30.8024746 C71.2780666,28.9616411 71.1056661,27.0702044 70.7583004,25.2065994 L70.5574039,24.0967016 L67.8936023,24.0967016 L74,9.66409473 L74,0.0253016211 Z M53.6456259,5.38024915 L53.6456259,2.70277539 L56.3595804,2.70277539 L56.3595804,5.38024915 L53.6456259,5.38024915 Z M48.8110025,24.0967016 L43.6640635,24.0967016 L41.1971689,18.7417541 L46.3062083,18.7417541 L48.8110025,24.0967016 Z M36.8860162,4.53152033 L42.2800151,6.81147752 L41.0071009,7.4271503 L45.0535262,16.0645615 L39.9635791,16.0645615 L36.6566238,8.90392158 L35.4421263,9.50891145 L36.8860162,4.53152033 Z M40.6828169,24.0969828 L34.648514,24.0969828 L34.648514,21.4450918 C34.648514,19.9686016 35.8655761,18.7423164 37.3624685,18.7423164 L38.2159223,18.7423164 L38.2159223,18.7420352 L40.6828169,24.0969828 Z M35.3540738,12.5529776 L37,16.1261288 C34.1774759,16.3136419 31.9345594,18.6135592 31.9345594,21.4448106 L31.9345594,24.0967016 L26.5066503,24.0967016 L26.5066503,22.0793191 C29.2220297,20.2840285 31.064578,17.4822956 31.6860747,14.3617624 L35.3540738,12.5529776 Z M10.223493,12.0739336 C10.223493,6.90790481 14.4856326,2.70305652 19.7220489,2.70305652 C24.9584652,2.70305652 29.2206049,6.90790481 29.2206049,12.0739336 C29.2206049,15.39941 27.3997135,18.506449 24.4700446,20.1811352 L23.7929808,20.5665632 L23.7929808,24.0967016 L21.0790262,24.0967016 L21.0790262,15.8421883 C22.6545674,15.2880828 23.7929808,13.8152474 23.7929808,12.0722468 C23.7929808,9.85807383 21.9663902,8.05603615 19.7220489,8.05603615 C17.4777077,8.05603615 15.6511171,9.85835495 15.6511171,12.0725279 C15.6511171,13.8155285 16.7895304,15.2880828 18.3650717,15.8424695 L18.3650717,24.0969828 L15.6511171,24.0969828 L15.6511171,20.5665632 L14.9740533,20.1797296 C12.0443844,18.5050434 10.223493,15.3991288 10.223493,12.0739336 Z M19.7220489,13.4126705 C18.9728903,13.4126705 18.3650717,12.8113353 18.3650717,12.0739336 C18.3650717,11.3348451 18.9728903,10.7351967 19.7220489,10.7351967 C20.4712075,10.7351967 21.0790262,11.3348451 21.0790262,12.0739336 C21.0790262,12.813022 20.4712075,13.4126705 19.7220489,13.4126705 Z M68.2734533,26.7744565 C68.4703604,28.1129123 68.5695263,29.4704848 68.5695263,30.7903861 L68.5723759,35.6834384 C68.5806397,46.4079522 63.2165615,56.4507279 54.242901,62.5458884 L53.6459108,62.9476219 L53.6459108,80.3228074 L26.5069353,80.3228074 L26.5069353,68.2744565 L12.9371626,68.2744565 L12.9371626,51.9447903 L4.14274162,49.9647979 L12.0862734,35.9926805 L12.0090494,35.514761 C11.5043861,32.5856766 11.4758901,29.4516492 11.9141579,26.7744565 L12.9371626,26.7744565 L26.5066503,26.7744565 L68.2734533,26.7744565 Z M64.9531049,24.0967016 L61.1306578,24.0967016 L67.8950271,8.53817259 L70.9033448,10.0160684 L64.9531049,24.0967016 Z M71.2860455,7.22895427 L69.7851636,6.48874129 L71.2860455,5.38024915 L71.2860455,7.22895427 Z" id="Shape" fill-rule="nonzero"></path>
                    <path d="M22,35.2 C19.6845023,35.2 17.8,33.8 17.8,31 L15,31 C15,35.2 18.1401512,38 22,38 C25.8598488,38 29,35.2 29,31 L26.2,31 C26.199706,33.8 24.3154977,35.2 22,35.2 Z" id="Path"></path>
                </g>
            </g>
            <text id="IDEATION" font-family="Lato-Regular, Lato" font-size="17" font-weight="normal" fill="#000000">
                <tspan x="5" y="120">IDEATION</tspan>
            </text>
        </g>
        <g id="Group" transform="translate(619.000000, 79.000000)">
            <text id="OUTCOMES" font-family="Lato-Regular, Lato" font-size="17" font-weight="normal" fill="#3D4752">
                <tspan x="0.128" y="113">OUTCOMES</tspan>
            </text>
            <rect id="Rectangle" fill="#FFEC5B" x="2" y="0" width="64" height="64"></rect>
            <g id="insight" transform="translate(12.000000, 1.000000)" fill="#000000">
                <polygon id="Path" points="69.2258065 20 66.8387097 20 66.8387097 71.6 64.4516129 71.6 64.4516129 20 62.0645161 20 62.0645161 71.6 59.6774194 71.6 59.6774194 47.6 57.2903226 47.6 57.2903226 71.6 54.9032258 71.6 54.9032258 47.6 52.516129 47.6 52.516129 71.6 50.1290323 71.6 50.1290323 41.6 47.7419355 41.6 47.7419355 71.6 45.3548387 71.6 45.3548387 41.6 42.9677419 41.6 42.9677419 71.6 40.5806452 71.6 40.5806452 44 38.1935484 44 38.1935484 71.6 35.8064516 71.6 35.8064516 44 33.4193548 44 33.4193548 71.6 31.0322581 71.6 31.0322581 27.2 28.6451613 27.2 28.6451613 71.6 26.2580645 71.6 26.2580645 27.2 23.8709677 27.2 23.8709677 71.6 21.483871 71.6 21.483871 50 19.0967742 50 19.0967742 71.6 16.7096774 71.6 16.7096774 50 14.3225806 50 14.3225806 71.6 11.9354839 71.6 11.9354839 45.2 9.5483871 45.2 9.5483871 71.6 7.16129032 71.6 7.16129032 45.2 4.77419355 45.2 4.77419355 71.6 0 71.6 0 74 74 74 74 71.6 69.2258065 71.6"></polygon>
                <path d="M8.5,42 C13.1859286,42 17,38.1859286 17,33.5 C17,28.8140714 13.1859286,25 8.5,25 C3.81407143,25 0,28.8140714 0,33.5 C0,38.1859286 3.81407143,42 8.5,42 Z M10.9285714,39.0565714 C10.183,39.3844286 9.36457143,39.5714286 8.5,39.5714286 C7.63542857,39.5714286 6.817,39.3844286 6.07142857,39.0565714 L6.07142857,38.3571429 C6.07142857,37.0177857 7.16064286,35.9285714 8.5,35.9285714 C9.83935714,35.9285714 10.9285714,37.0177857 10.9285714,38.3571429 L10.9285714,39.0565714 Z M7.28571429,32.2857143 C7.28571429,31.6154286 7.82971429,31.0714286 8.5,31.0714286 C9.17028571,31.0714286 9.71428571,31.6154286 9.71428571,32.2857143 C9.71428571,32.956 9.17028571,33.5 8.5,33.5 C7.82971429,33.5 7.28571429,32.956 7.28571429,32.2857143 Z M8.5,27.4285714 C11.8477857,27.4285714 14.5714286,30.1522143 14.5714286,33.5 C14.5714286,34.9304286 14.0541429,36.2285 13.2235714,37.2667143 C12.9612857,36.1301429 12.2970714,35.1538571 11.3912143,34.4762857 C11.8562857,33.8655 12.1428571,33.1114286 12.1428571,32.2857143 C12.1428571,30.2772857 10.5084286,28.6428571 8.5,28.6428571 C6.49157143,28.6428571 4.85714286,30.2772857 4.85714286,32.2857143 C4.85714286,33.1114286 5.14371429,33.8655 5.60878571,34.4775 C4.70292857,35.1538571 4.03871429,36.1313571 3.77642857,37.2679286 C2.94585714,36.2285 2.42857143,34.9304286 2.42857143,33.5 C2.42857143,30.1522143 5.15221429,27.4285714 8.5,27.4285714 Z" id="Shape" fill-rule="nonzero"></path>
                <path d="M27.5,24 C32.1859286,24 36,20.1859286 36,15.5 C36,10.8140714 32.1859286,7 27.5,7 C22.8140714,7 19,10.8140714 19,15.5 C19,20.1859286 22.8140714,24 27.5,24 Z M29.9285714,21.0565714 C29.183,21.3844286 28.3645714,21.5714286 27.5,21.5714286 C26.6354286,21.5714286 25.817,21.3844286 25.0714286,21.0565714 L25.0714286,20.3571429 C25.0714286,19.0177857 26.1606429,17.9285714 27.5,17.9285714 C28.8393571,17.9285714 29.9285714,19.0177857 29.9285714,20.3571429 L29.9285714,21.0565714 Z M26.2857143,14.2857143 C26.2857143,13.6154286 26.8297143,13.0714286 27.5,13.0714286 C28.1702857,13.0714286 28.7142857,13.6154286 28.7142857,14.2857143 C28.7142857,14.956 28.1702857,15.5 27.5,15.5 C26.8297143,15.5 26.2857143,14.956 26.2857143,14.2857143 Z M27.5,9.42857143 C30.8477857,9.42857143 33.5714286,12.1522143 33.5714286,15.5 C33.5714286,16.9304286 33.0541429,18.2285 32.2235714,19.2667143 C31.9612857,18.1301429 31.2970714,17.1538571 30.3912143,16.4762857 C30.8562857,15.8655 31.1428571,15.1114286 31.1428571,14.2857143 C31.1428571,12.2772857 29.5084286,10.6428571 27.5,10.6428571 C25.4915714,10.6428571 23.8571429,12.2772857 23.8571429,14.2857143 C23.8571429,15.1114286 24.1437143,15.8655 24.6087857,16.4775 C23.7029286,17.1538571 23.0387143,18.1313571 22.7764286,19.2679286 C21.9458571,18.2285 21.4285714,16.9304286 21.4285714,15.5 C21.4285714,12.1522143 24.1522143,9.42857143 27.5,9.42857143 Z" id="Shape" fill-rule="nonzero"></path>
                <path d="M46.5,38 C51.1859286,38 55,34.1859286 55,29.5 C55,24.8140714 51.1859286,21 46.5,21 C41.8140714,21 38,24.8140714 38,29.5 C38,34.1859286 41.8140714,38 46.5,38 Z M48.9285714,35.0565714 C48.183,35.3844286 47.3645714,35.5714286 46.5,35.5714286 C45.6354286,35.5714286 44.817,35.3844286 44.0714286,35.0565714 L44.0714286,34.3571429 C44.0714286,33.0177857 45.1606429,31.9285714 46.5,31.9285714 C47.8393571,31.9285714 48.9285714,33.0177857 48.9285714,34.3571429 L48.9285714,35.0565714 Z M45.2857143,28.2857143 C45.2857143,27.6154286 45.8297143,27.0714286 46.5,27.0714286 C47.1702857,27.0714286 47.7142857,27.6154286 47.7142857,28.2857143 C47.7142857,28.956 47.1702857,29.5 46.5,29.5 C45.8297143,29.5 45.2857143,28.956 45.2857143,28.2857143 Z M46.5,23.4285714 C49.8477857,23.4285714 52.5714286,26.1522143 52.5714286,29.5 C52.5714286,30.9304286 52.0541429,32.2285 51.2235714,33.2667143 C50.9612857,32.1301429 50.2970714,31.1538571 49.3912143,30.4762857 C49.8562857,29.8655 50.1428571,29.1114286 50.1428571,28.2857143 C50.1428571,26.2772857 48.5084286,24.6428571 46.5,24.6428571 C44.4915714,24.6428571 42.8571429,26.2772857 42.8571429,28.2857143 C42.8571429,29.1114286 43.1437143,29.8655 43.6087857,30.4775 C42.7029286,31.1538571 42.0387143,32.1313571 41.7764286,33.2679286 C40.9458571,32.2285 40.4285714,30.9304286 40.4285714,29.5 C40.4285714,26.1522143 43.1522143,23.4285714 46.5,23.4285714 Z" id="Shape" fill-rule="nonzero"></path>
                <path d="M65.5,17 C70.1859286,17 74,13.1859286 74,8.5 C74,3.81407143 70.1859286,0 65.5,0 C60.8140714,0 57,3.81407143 57,8.5 C57,13.1859286 60.8140714,17 65.5,17 Z M67.9285714,14.0565714 C67.183,14.3844286 66.3645714,14.5714286 65.5,14.5714286 C64.6354286,14.5714286 63.817,14.3844286 63.0714286,14.0565714 L63.0714286,13.3571429 C63.0714286,12.0177857 64.1606429,10.9285714 65.5,10.9285714 C66.8393571,10.9285714 67.9285714,12.0177857 67.9285714,13.3571429 L67.9285714,14.0565714 Z M64.2857143,7.28571429 C64.2857143,6.61542857 64.8297143,6.07142857 65.5,6.07142857 C66.1702857,6.07142857 66.7142857,6.61542857 66.7142857,7.28571429 C66.7142857,7.956 66.1702857,8.5 65.5,8.5 C64.8297143,8.5 64.2857143,7.956 64.2857143,7.28571429 Z M65.5,2.42857143 C68.8477857,2.42857143 71.5714286,5.15221429 71.5714286,8.5 C71.5714286,9.93042857 71.0541429,11.2285 70.2235714,12.2667143 C69.9612857,11.1301429 69.2970714,10.1538571 68.3912143,9.47628571 C68.8562857,8.8655 69.1428571,8.11142857 69.1428571,7.28571429 C69.1428571,5.27728571 67.5084286,3.64285714 65.5,3.64285714 C63.4915714,3.64285714 61.8571429,5.27728571 61.8571429,7.28571429 C61.8571429,8.11142857 62.1437143,8.8655 62.6087857,9.4775 C61.7029286,10.1538571 61.0387143,11.1313571 60.7764286,12.2679286 C59.9458571,11.2285 59.4285714,9.93042857 59.4285714,8.5 C59.4285714,5.15221429 62.1522143,2.42857143 65.5,2.42857143 Z" id="Shape" fill-rule="nonzero"></path>
            </g>
        </g>
        <text id="DIGITAL-STRATEGY" font-family="Lato-Regular, Lato" font-size="17" font-weight="normal" fill="#000000">
            <tspan x="323" y="37">DIGITAL STRATEGY</tspan>
        </text>
    </g>
</svg>