<?xml version="1.0" encoding="UTF-8"?>
<svg version="1.1" viewBox="0 0 20 20" xmlns="http://www.w3.org/2000/svg" xmlns:xlink="http://www.w3.org/1999/xlink">
    <!--Generated by IJSVG (https://github.com/iconjar/IJSVG)-->
    <path d="M10,0.4c-5.302,0 -9.6,4.298 -9.6,9.6c0,5.302 4.298,9.6 9.6,9.6c5.302,0 9.6,-4.298 9.6,-9.6c0,-5.302 -4.298,-9.6 -9.6,-9.6Zm0.657,11.875c-0.616,-0.047 -0.874,-0.352 -1.356,-0.644c-0.265,1.391 -0.589,2.725 -1.549,3.422c-0.297,-2.104 0.434,-3.682 0.774,-5.359c-0.579,-0.975 0.069,-2.936 1.291,-2.454c1.503,0.596 -1.302,3.625 0.581,4.004c1.966,0.394 2.769,-3.412 1.55,-4.648c-1.762,-1.787 -5.127,-0.041 -4.713,2.517c0.1,0.625 0.747,0.815 0.258,1.678c-1.127,-0.25 -1.464,-1.139 -1.42,-2.324c0.069,-1.94 1.743,-3.299 3.421,-3.486c2.123,-0.236 4.115,0.779 4.391,2.777c0.309,2.254 -0.959,4.693 -3.228,4.517Z" fill="#FFD400"></path>
</svg>