<?xml version="1.0" encoding="UTF-8" standalone="no"?><!DOCTYPE svg PUBLIC "-//W3C//DTD SVG 1.1//EN" "http://www.w3.org/Graphics/SVG/1.1/DTD/svg11.dtd"><svg width="100%" height="100%" viewBox="0 0 11 10" version="1.1" xmlns="http://www.w3.org/2000/svg" xmlns:xlink="http://www.w3.org/1999/xlink" xml:space="preserve" xmlns:serif="http://www.serif.com/" style="fill-rule:evenodd;clip-rule:evenodd;stroke-linejoin:round;stroke-miterlimit:1.41421;"><rect id="Artboard1" x="0" y="0" width="10.649" height="9.324" style="fill:none;"/><path d="M2.039,0.055c-1.11,0 -2.01,0.925 -2.01,2.068c0,1.141 0.9,2.068 2.01,2.068c2.01,0 0.67,3.997 -2.01,3.997l0,0.966c4.784,0 6.658,-9.099 2.01,-9.099Zm5.791,0c-1.109,0 -2.01,0.925 -2.01,2.068c0,1.141 0.901,2.068 2.01,2.068c2.01,0 0.671,3.997 -2.01,3.997l0,0.966c4.783,0 6.658,-9.099 2.01,-9.099Z" style="fill:#ffec5b;fill-rule:nonzero;"/></svg>