<?xml version="1.0" encoding="UTF-8"?>
<svg width="700px" height="700px" viewBox="0 0 700 700" version="1.1" xmlns="http://www.w3.org/2000/svg" xmlns:xlink="http://www.w3.org/1999/xlink">
    <!-- Generator: Sketch 53.1 (72631) - https://sketchapp.com -->
    <title>roadmap</title>
    <desc>Created with Sketch.</desc>
    <defs>
        <polygon id="path-1" points="0.280877419 0.20421895 127.028645 0.20421895 127.028645 91.6901408 0.280877419 91.6901408"></polygon>
        <polygon id="path-3" points="0.0236113684 165 155.023611 165 155.023611 0 0.0236113684 0"></polygon>
        <polygon id="path-5" points="0.08912 0.178806584 5.50192 0.178806584 5.50192 24.8690741 0.08912 24.8690741"></polygon>
        <polygon id="path-7" points="0.08912 0.178806584 5.50192 0.178806584 5.50192 24.8690741 0.08912 24.8690741"></polygon>
        <path d="M-2.27373675e-13,93 L-3.55271368e-13,10.5 C-3.55271368e-13,4.70101013 3.13400675,4.54747351e-13 7,4.54747351e-13 L11,4.54747351e-13 C14.8659932,4.54747351e-13 18,4.70101013 18,10.5 L18,29" id="path-9"></path>
        <mask id="mask-10" maskContentUnits="userSpaceOnUse" maskUnits="objectBoundingBox" x="0" y="0" width="18" height="93" fill="white">
            <use xlink:href="#path-9"></use>
        </mask>
        <rect id="path-11" x="6" y="0" width="36" height="36"></rect>
        <mask id="mask-12" maskContentUnits="userSpaceOnUse" maskUnits="objectBoundingBox" x="0" y="0" width="36" height="36" fill="white">
            <use xlink:href="#path-11"></use>
        </mask>
        <rect id="path-13" x="8" y="16" width="36" height="36"></rect>
        <mask id="mask-14" maskContentUnits="userSpaceOnUse" maskUnits="objectBoundingBox" x="0" y="0" width="36" height="36" fill="white">
            <use xlink:href="#path-13"></use>
        </mask>
        <polygon id="path-15" points="0 0 36 0 36 36 0 36"></polygon>
        <polygon id="path-17" points="0.681636344 0.708273457 29.6816363 0.708273457 29.6816363 29.7082735 0.681636344 29.7082735"></polygon>
        <polygon id="path-19" points="0.307107692 0.846222222 21.7324923 0.846222222 21.7324923 31.9998222 0.307107692 31.9998222"></polygon>
        <polygon id="path-21" points="0.000884615385 0.846222222 21.4262692 0.846222222 21.4262692 31.9998222 0.000884615385 31.9998222"></polygon>
        <polygon id="path-23" points="0.953438462 0.846222222 22.3788231 0.846222222 22.3788231 31.9998222 0.953438462 31.9998222"></polygon>
        <polygon id="path-25" points="0.0002 0.0124 59.988 0.0124 59.988 60 0.0002 60"></polygon>
        <polygon id="path-27" points="0.636915385 0.069825641 48.5068205 0.069825641 48.5068205 39.0472615 0.636915385 39.0472615"></polygon>
    </defs>
    <g id="roadmap" stroke="none" stroke-width="1" fill="none" fill-rule="evenodd">
        <g id="user" transform="translate(2.976389, 507.000000)">
            <g id="Group-3" transform="translate(28.023611, 73.000000)">
                <mask id="mask-2" fill="white">
                    <use xlink:href="#path-1"></use>
                </mask>
                <g id="Clip-2"></g>
                <path d="M102.568361,91.6901408 L24.7412645,91.6901408 C11.2331355,91.6901408 0.280877419,80.6362692 0.280877419,67.0004866 L0.280877419,54.6337788 C0.280877419,24.6448512 24.3665548,0.334460627 54.0759742,0.334460627 L73.1046194,0.20421895 C102.815071,0.20421895 127.028748,24.6448512 127.028748,54.6337788 L127.028748,67.0004866 C127.028748,80.6362692 116.077523,91.6901408 102.568361,91.6901408" id="Fill-1" fill="#FFD400" mask="url(#mask-2)"></path>
            </g>
            <path d="M66.7379449,75 C65.2799614,75 64.489526,76.6876836 65.4340911,77.785707 L78.5069963,92.9944118 C87.4079858,103.347939 103.444763,103.706057 112.811266,93.7940034 C112.875834,93.7116773 112.941443,93.6283222 113.007052,93.5459962 C118.309947,85.5912436 112.535291,75 102.894895,75 L66.7379449,75 Z" id="Fill-4" fill="#FFAEB6"></path>
            <mask id="mask-4" fill="white">
                <use xlink:href="#path-3"></use>
            </mask>
            <g id="Clip-7"></g>
            <polygon id="Fill-6" fill="#FFAEB6" mask="url(#mask-4)" points="81.0236114 77 102.023611 77 102.023611 50 81.0236114 50"></polygon>
            <path d="M51.0236114,111 L51.0236114,118.353071 C51.0236114,130.308253 60.8202684,140 72.9038193,140 L122.143403,140 C134.226954,140 144.023611,130.308253 144.023611,118.353071 L144.023611,111" id="Stroke-8" stroke="#EE78AC" stroke-width="0.611" mask="url(#mask-4)"></path>
            <path d="M68.413184,0 C68.1604883,11.825504 68.0236114,13.3713283 68.0236114,14.9501962 L68.0236114,36.5597248 C68.0236114,52.2668276 81.0069102,65 97.0236114,65 C113.03926,65 126.023611,52.2668276 126.023611,36.5597248 L126.023611,14.9501962 L126.023611,14.9026959 C126.008871,6.6624303 119.16608,0 110.763945,0 L68.413184,0 Z" id="Fill-9" fill="#FFAEB6" mask="url(#mask-4)"></path>
            <path d="M97.0236114,26 C97.0236114,30.4184143 93.4420257,34 89.0236114,34 C84.605197,34 81.0236114,30.4184143 81.0236114,26 C81.0236114,21.5815857 84.605197,18 89.0236114,18 C93.4420257,18 97.0236114,21.5815857 97.0236114,26 Z" id="Stroke-11" stroke="#2E2A5D" stroke-width="2.445" mask="url(#mask-4)"></path>
            <path d="M121.023611,26 C121.023611,30.4184143 117.441797,34 113.024123,34 C108.605426,34 105.023611,30.4184143 105.023611,26 C105.023611,21.5815857 108.605426,18 113.024123,18 C117.441797,18 121.023611,21.5815857 121.023611,26 Z" id="Stroke-12" stroke="#2E2A5D" stroke-width="2.445" mask="url(#mask-4)"></path>
            <path d="M97.0236114,25.5 L104.023611,25.5" id="Stroke-13" stroke="#2E2A5D" stroke-width="2.445" mask="url(#mask-4)"></path>
            <polygon id="Fill-15" fill="#2E2A5D" mask="url(#mask-4)" points="90.0236114 1 68.0236114 23 68.0236114 1"></polygon>
            <path d="M92.0236114,0.469694527 C92.0236114,0.469694527 87.8919848,17.1105975 79.3055056,23.3423632 C70.7190264,29.5730897 66.1991088,39.0636209 70.7777948,47.0951895 C75.3575302,55.1277972 78.0094531,58.515417 78.0094531,63.535537 C78.0094531,68.5556571 78.1721156,74.26681 78.1721156,74.26681 C78.1721156,74.26681 64.5347045,74.8092448 53.8587998,82.1497805 C43.1818456,89.4903162 30.6925167,106.192529 29.0407057,116 C29.0407057,116 -6.3987226,99.3580579 1.05331708,70.962322 C8.5064062,42.5676252 40.4228803,46.2430888 45.282815,33.175813 C50.143799,20.107498 53.8462066,1.52650721 68.9255416,0.469694527 C84.0038272,-0.587118158 92.0236114,0.469694527 92.0236114,0.469694527" id="Fill-16" fill="#2E2A5D" mask="url(#mask-4)"></path>
            <path d="M83.0236114,0 L114.153696,0 C114.153696,0 126.023611,2.60786811 126.023611,16 C126.023611,16 95.4293074,8.94738959 83.0236114,0" id="Fill-17" fill="#2E2A5D" mask="url(#mask-4)"></path>
        </g>
        <g id="keyboard" transform="translate(298.404832, 362.000000)">
            <path d="M91,9 L96,9 L96,14 L91,14 L91,9 Z M102,9 L107,9 L107,14 L102,14 L102,9 Z M112,9 L117,9 L117,14 L112,14 L112,9 Z M122,9 L127,9 L127,14 L122,14 L122,9 Z" id="Combined-Shape" fill="#3D4752"></path>
            <path d="M126,44 L131,44 L131,49 L126,49 L126,44 Z M137,44 L142,44 L142,49 L137,49 L137,44 Z M147,44 L152,44 L152,49 L147,49 L147,44 Z M157,44 L162,44 L162,49 L157,49 L157,44 Z" id="Combined-Shape" fill="#3D4752" transform="translate(144.000000, 46.500000) rotate(-270.000000) translate(-144.000000, -46.500000) "></path>
            <path d="M61,39 L66,39 L66,44 L61,44 L61,39 Z M72,39 L77,39 L77,44 L72,44 L72,39 Z M82,39 L87,39 L87,44 L82,44 L82,39 Z" id="Combined-Shape" fill="#3D4752" transform="translate(74.000000, 41.500000) rotate(-270.000000) translate(-74.000000, -41.500000) "></path>
            <path d="M101.5,79.5 L106.5,79.5 L106.5,84.5 L101.5,84.5 L101.5,79.5 Z M112.5,79.5 L117.5,79.5 L117.5,84.5 L112.5,84.5 L112.5,79.5 Z M122.5,79.5 L127.5,79.5 L127.5,84.5 L122.5,84.5 L122.5,79.5 Z" id="Combined-Shape" fill="#3D4752" transform="translate(114.500000, 82.000000) rotate(-180.000000) translate(-114.500000, -82.000000) "></path>
            <g id="Group-4" transform="translate(0.000000, 59.000000)">
                <rect id="Rectangle" stroke="#3D4752" stroke-width="5" fill="#FFFFFF" x="2.5" y="2.5" width="93" height="41" rx="4"></rect>
                <path d="M10,11 L17,11 L17,16 L10,16 L10,11 Z M22,11 L29,11 L29,16 L22,16 L22,11 Z M34,11 L41,11 L41,16 L34,16 L34,11 Z M46,11 L53,11 L53,16 L46,16 L46,11 Z M57,11 L64,11 L64,16 L57,16 L57,11 Z M69,11 L76,11 L76,16 L69,16 L69,11 Z M81,11 L88,11 L88,16 L81,16 L81,11 Z M10,21 L17,21 L17,26 L10,26 L10,21 Z M22,21 L29,21 L29,26 L22,26 L22,21 Z M34,21 L41,21 L41,26 L34,26 L34,21 Z M46,21 L53,21 L53,26 L46,26 L46,21 Z M57,21 L64,21 L64,26 L57,26 L57,21 Z M69,21 L76,21 L76,26 L69,26 L69,21 Z M81,21 L88,21 L88,26 L81,26 L81,21 Z M10,30 L17,30 L17,35 L10,35 L10,30 Z M22,30 L29,30 L29,35 L22,35 L22,30 Z M34,30 L76,30 L76,35 L34,35 L34,30 Z M81,30 L88,30 L88,35 L81,35 L81,30 Z" id="Combined-Shape" fill="#7A8999"></path>
            </g>
            <rect id="Rectangle" stroke="#3D4752" stroke-width="5" x="65.5" y="2.5" width="18" height="18"></rect>
            <rect id="Rectangle" stroke="#3D4752" stroke-width="5" x="134.5" y="2.5" width="18" height="18"></rect>
            <rect id="Rectangle" stroke="#3D4752" stroke-width="5" x="134.5" y="71.5" width="18" height="18"></rect>
        </g>
        <g id="whiteboard" transform="translate(17.000000, 14.000000)">
            <g id="Group" transform="translate(14.000000, 108.000000)" stroke="#3D4752" stroke-linecap="square" stroke-width="5">
                <path d="M19.5,6 L0.5,37.5" id="Line"></path>
                <path d="M110.5,6 L91.5,37.5" id="Line" transform="translate(101.000000, 22.000000) scale(-1, 1) translate(-101.000000, -22.000000) "></path>
                <path d="M65.5,3 L46.5,34.5" id="Line" transform="translate(56.000000, 19.000000) scale(-1, 1) rotate(-30.000000) translate(-56.000000, -19.000000) "></path>
            </g>
            <rect id="Rectangle" fill="#FFD400" x="0" y="4" width="139" height="109"></rect>
            <path d="M48.5,1.5 L90.6067302,1.5" id="Line-3" stroke="#3D4752" stroke-width="5" stroke-linecap="square"></path>
            <rect id="Rectangle" stroke="#3D4752" stroke-width="5" fill="#FFFFFF" x="9.5" y="14.5" width="120" height="89"></rect>
        </g>
        <g id="Group-2" transform="translate(156.000000, 72.000000)">
            <path d="M0,0 L19,0 C72.019336,-7.10542736e-15 115,42.980664 115,96 C115,149.019336 72.019336,192 19,192 L0,192" id="Path" stroke="#E4E7EC" stroke-width="40"></path>
            <path d="M0,0 L19,0 C72.019336,0 115,42.980664 115,96 M12,192 L0,192" id="Shape" stroke="#3D4752" stroke-width="5"></path>
            <path d="M0,0 L19,0 C72.019336,0 115,42.980664 115,96 M19,192 L0,192" id="Shape" stroke="#3D4752" stroke-width="5" stroke-dasharray="10,10" transform="translate(57.500000, 96.000000) scale(1, -1) translate(-57.500000, -96.000000) "></path>
        </g>
        <g id="bulb" transform="translate(50.000000, 176.000000)">
            <path d="M99.7038297,144 L78.5,144 L57.2961703,144 C56.5788297,144 56,144.58134 56,145.298521 C56,145.790761 56.2813958,146.223115 56.7144246,146.456819 C57.4171851,146.833668 58.3838453,147.826913 58.3838453,150.423955 L58.3838453,159.382144 C58.3838453,168.55943 65.8109448,176 74.9716174,176 L78.5,176 L82.0269246,176 C91.1875972,176 98.6146967,168.55943 98.6146967,159.382144 L98.6146967,150.423955 C98.6146967,147.826913 99.5828149,146.833668 100.284117,146.456819 C100.717146,146.223115 101,145.790761 101,145.298521 C101,144.58134 100.419712,144 99.7038297,144" id="Fill-1" fill="#3D4752"></path>
            <g id="Group-5" transform="translate(75.000000, 0.000000)">
                <mask id="mask-6" fill="white">
                    <use xlink:href="#path-5"></use>
                </mask>
                <g id="Clip-4"></g>
                <path d="M2.79472,24.8690741 L2.79472,24.8690741 C1.30032,24.8690741 0.08912,23.7787449 0.08912,22.4334774 L0.08912,2.61454733 C0.08912,1.26927984 1.30032,0.177510288 2.79472,0.177510288 C4.29072,0.177510288 5.50192,1.26927984 5.50192,2.61454733 L5.50192,22.4334774 C5.50192,23.7787449 4.29072,24.8690741 2.79472,24.8690741" id="Fill-3" fill="#FFCC00" mask="url(#mask-6)"></path>
            </g>
            <path d="M107.134178,30.6156063 L107.134178,30.6156063 C105.981049,29.8993451 105.653055,28.4246069 106.401706,27.3227749 L117.424086,11.0837686 C118.172737,9.98193652 119.714164,9.6681325 120.865822,10.3843937 C122.018951,11.1006549 122.346945,12.5753931 121.598294,13.6772251 L110.575914,29.9162314 C109.827263,31.0180635 108.285836,31.3318675 107.134178,30.6156063" id="Fill-6" fill="#FFD400"></path>
            <path d="M125.211418,50.5463532 L125.211418,50.5463532 C124.663604,49.3101724 125.217185,47.862654 126.446884,47.3140445 L144.56801,39.2122836 C145.797709,38.6622266 147.239326,39.2180737 147.788582,40.4528069 C148.336396,41.6889877 147.782815,43.1365062 146.553116,43.6880107 L128.430549,51.7868765 C127.20085,52.3383811 125.759233,51.782534 125.211418,50.5463532" id="Fill-8" fill="#FFD400"></path>
            <path d="M131.031,77.062526 L131.031,77.062526 C131.246025,75.7287288 132.522915,74.8183363 133.88228,75.0307612 L153.897202,78.1405464 C155.256567,78.3515262 156.182939,79.6043997 155.969387,80.938197 C155.75289,82.2705492 154.477473,83.1794966 153.118108,82.9699618 L133.101713,79.8601766 C131.742348,79.6477517 130.815976,78.3963233 131.031,77.062526" id="Fill-10" fill="#FFD400"></path>
            <g id="Group-14" transform="translate(75.000000, 0.000000)">
                <mask id="mask-8" fill="white">
                    <use xlink:href="#path-7"></use>
                </mask>
                <g id="Clip-13"></g>
                <path d="M2.79472,24.8690741 L2.79472,24.8690741 C4.29072,24.8690741 5.50192,23.7787449 5.50192,22.4334774 L5.50192,2.61454733 C5.50192,1.26927984 4.29072,0.177510288 2.79472,0.177510288 C1.30032,0.177510288 0.08912,1.26927984 0.08912,2.61454733 L0.08912,22.4334774 C0.08912,23.7787449 1.30032,24.8690741 2.79472,24.8690741" id="Fill-12" fill="#FFCC00" mask="url(#mask-8)"></path>
            </g>
            <path d="M48.866426,30.6156063 L48.866426,30.6156063 C50.0196015,29.8993451 50.3461384,28.4246069 49.5989277,27.3227749 L38.5746289,11.0837686 C37.8274183,9.98193652 36.2859286,9.6681325 35.134224,10.3843937 C33.9810485,11.1006549 33.6530407,12.5753931 34.4017222,13.6772251 L45.4245501,29.9162314 C46.1732317,31.0180635 47.7132505,31.3318675 48.866426,30.6156063" id="Fill-15" fill="#FFD400"></path>
            <path d="M30.7885819,50.5463532 L30.7885819,50.5463532 C31.3363963,49.3101724 30.7828154,47.862654 29.5531161,47.3140445 L11.4319905,39.2122836 C10.2008496,38.6622266 8.75923257,39.2180737 8.21141811,40.4528069 C7.66360365,41.6889877 8.21718458,43.1365062 9.44688388,43.6880107 L27.5680095,51.7868765 C28.7991504,52.3383811 30.2407674,51.782534 30.7885819,50.5463532" id="Fill-17" fill="#FFD400"></path>
            <path d="M24.9689995,77.062526 L24.9689995,77.062526 C24.753966,75.7287288 23.4770204,74.8183363 22.1175961,75.0307612 L2.10180412,78.1405464 C0.742379836,78.3515262 -0.184031727,79.6043997 0.0310017996,80.938197 C0.246035326,82.2705492 1.52298099,83.1794966 2.88093244,82.9699618 L22.8967244,79.8601766 C24.2576215,79.6477517 25.1840331,78.3963233 24.9689995,77.062526" id="Fill-19" fill="#FFD400"></path>
            <path d="M91.612802,79.6333483 C91.1135833,84.461004 89.9477695,88.1232631 88.1211823,90.6215823 C86.6730115,92.5940161 84.5873546,94.1352532 81.8598451,95.2423801 C80.4698922,95.8061407 79.5544155,97.1507172 79.5544155,98.6526221 L79.5544155,101.669543 C79.5544155,103.70316 77.9068484,105.352196 75.875043,105.352196 L75.790627,105.352196 C73.7588216,105.352196 72.1112545,103.70316 72.1112545,101.669543 L72.1112545,94.8548857 C72.1112545,93.3238458 73.061662,91.947221 74.4938228,91.4111385 C75.6712803,90.9697445 76.5620144,90.5400045 77.1631144,90.1204617 C78.1193438,89.4547288 78.867444,88.9069924 79.4088707,88.4772524 C79.9488419,88.0460556 80.4262288,87.4720977 80.8439424,86.7495518 C82.3110339,84.197333 83.1158967,80.7157104 83.2541642,76.304684 C83.3109267,74.3628418 83.3371248,71.650381 83.3371248,68.1687584 C83.3371248,64.6871358 83.1712037,62.3140968 82.8393616,61.0525549 C82.506064,59.7895563 81.5425574,59.1587853 79.9488419,59.1587853 C78.3551263,59.1587853 77.3712435,59.8114074 76.9971934,61.115195 C76.6231432,62.4189825 76.4353904,65.2071941 76.4353904,69.4783729 L76.4353904,73.9534962 C76.4353904,75.9871134 74.7878233,77.6361497 72.7560179,77.6361497 L71.6746201,77.6361497 C69.6428147,77.6361497 67.9952476,75.9871134 67.9952476,73.9534962 L67.9952476,68.8971313 C67.9952476,64.4861049 68.2717827,61.5026894 68.8263084,59.9497983 C69.8523992,57.0086284 71.2103322,54.9065442 72.9015627,53.6435455 C74.5913378,52.3820036 76.9346091,51.7497759 79.9284656,51.7497759 C84.5567902,51.7497759 87.7034687,53.0972658 89.3670458,55.7878754 C90.5022952,57.6743613 91.2183756,59.9075527 91.5080097,62.4874496 C91.7990993,65.0688032 91.9460996,68.0303675 91.9460996,71.3721425 C91.9460996,74.716831 91.8340301,77.4700807 91.612802,79.6333483 L91.612802,79.6333483 Z M79.595168,118.398812 C79.595168,120.433886 77.9476009,122.082922 75.9157955,122.082922 C73.8825347,122.082922 72.236423,120.433886 72.236423,118.398812 L72.236423,117.150381 C72.236423,115.115307 73.8825347,113.467727 75.9157955,113.467727 C77.9476009,113.467727 79.595168,115.115307 79.595168,117.150381 L79.595168,118.398812 Z M52.7668954,53.3172344 C45.5347743,60.9360152 42.8873145,71.1448902 42.7650568,78.953048 C42.7446806,80.2612057 41.738966,81.3362842 40.4348846,81.4032945 L40.4319737,81.4032945 C39.0129119,81.4775885 37.8194446,80.3354998 37.8354545,78.9151726 C37.9664448,68.2051771 42.1974321,57.2970641 49.195226,49.9215598 C55.1800281,43.6138503 62.9695857,40.0186015 71.8507293,39.4300762 C73.2668802,39.3383012 74.4661693,40.4760197 74.4661693,41.8978037 C74.4661693,43.2001345 73.4488112,44.2650157 72.1490961,44.3480502 C64.458509,44.8462573 57.9468347,47.857351 52.7668954,53.3172344 L52.7668954,53.3172344 Z M77.999997,33 C45.1985659,33 30.897334,59.6511654 32.0660587,79.3361721 C33.051397,95.9255939 44.3456733,107.585388 47.824194,115.47658 C51.0334568,122.755939 52.5689544,129.682766 53.2501041,133.62909 C53.5863126,135.578216 55.267355,137 57.2423979,137 L77.999997,137 L98.7575961,137 C100.732639,137 102.413681,135.578216 102.74989,133.62909 C103.43104,129.682766 104.967993,122.755939 108.1758,115.47658 C111.654321,107.585388 122.948597,95.9255939 123.933935,79.3361721 C125.10266,59.6511654 110.802884,33 77.999997,33 L77.999997,33 Z" id="Fill-21" fill="#FFD400"></path>
        </g>
        <g id="lens" transform="translate(220.000000, 89.000000)">
            <rect id="Rectangle" stroke="#3D4752" stroke-width="5" fill="#FFFFFF" x="2.5" y="33.5" width="71" height="20"></rect>
            <path d="M76,36 L90,36" id="Line-2" stroke="#3D4752" stroke-width="5" stroke-linecap="square"></path>
            <path d="M76,49 L90,49" id="Line-2" stroke="#3D4752" stroke-width="5" stroke-linecap="square"></path>
            <path d="M10,31 L64,31 L64,56 L10,56 L10,31 Z M18,36 L18,41 L54,41 L54,36 L18,36 Z" id="Combined-Shape" fill="#FFD400"></path>
            <circle id="Oval" stroke="#3D4752" stroke-width="5" cx="133" cy="43" r="43"></circle>
            <circle id="Oval" fill="#7A8999" cx="133" cy="43" r="31"></circle>
            <path d="M158,43 C158,29.1928813 146.807119,18 133,18" id="Path" stroke="#FFFFFF" stroke-width="5" stroke-linecap="round"></path>
        </g>
        <path d="M127.595168,358.5 L127.595168,419.200706" id="Line-4" stroke="#3D4752" stroke-width="5" stroke-linecap="square" stroke-dasharray="5,9"></path>
        <g id="ruler" transform="translate(17.000000, 421.000000)">
            <rect id="Rectangle" fill="#FFD400" x="0" y="0" width="241" height="46"></rect>
            <path d="M10.5,0 L10.5,16.5 L10.5,0 Z M20.5,0 L20.5,10.6764706 L20.5,0 Z M30.5,0 L30.5,16.5 L30.5,0 Z M40.5,0 L40.5,10.6764706 L40.5,0 Z M50.5,0 L50.5,16.5 L50.5,0 Z M60.5,0 L60.5,10.6764706 L60.5,0 Z M70.5,0 L70.5,16.5 L70.5,0 Z M80.5,0 L80.5,10.6764706 L80.5,0 Z M90.5,0 L90.5,16.5 L90.5,0 Z M100.5,0 L100.5,10.6764706 L100.5,0 Z M110.5,0 L110.5,16.5 L110.5,0 Z M120.5,0 L120.5,10.6764706 L120.5,0 Z M130.5,0 L130.5,16.5 L130.5,0 Z M140.5,0 L140.5,10.6764706 L140.5,0 Z M150.5,0 L150.5,16.5 L150.5,0 Z M160.5,0 L160.5,10.6764706 L160.5,0 Z M170.5,0 L170.5,16.5 L170.5,0 Z M180.5,0 L180.5,10.6764706 L180.5,0 Z M190.5,0 L190.5,16.5 L190.5,0 Z M200.5,0 L200.5,10.6764706 L200.5,0 Z M210.5,0 L210.5,16.5 L210.5,0 Z M220.5,0 L220.5,10.6764706 L220.5,0 Z M230.5,0 L230.5,16.5 L230.5,0 Z" id="Combined-Shape" stroke="#3D4752" stroke-width="5"></path>
        </g>
        <rect id="Rectangle" fill="#FFD400" x="58" y="371" width="20" height="20"></rect>
        <rect id="Rectangle" fill="#FFD400" x="168" y="371" width="20" height="20"></rect>
        <g id="website" transform="translate(167.000000, 552.000000)">
            <rect id="Rectangle" stroke="#3D4752" stroke-width="5" fill="#FFFFFF" x="33.5" y="2.5" width="119" height="109"></rect>
            <rect id="Rectangle" fill="#3D4752" x="40" y="23" width="5" height="5"></rect>
            <path d="M31,56.538 L0,56.538" id="Line-6" stroke="#3D4752" stroke-width="5" stroke-linecap="square"></path>
            <path d="M185,56.538 L154,56.538" id="Line-6" stroke="#3D4752" stroke-width="5" stroke-linecap="square"></path>
            <rect id="Rectangle" fill="#3D4752" x="51" y="23" width="40" height="5"></rect>
            <rect id="Rectangle" fill="#3D4752" x="40" y="89" width="32" height="5"></rect>
            <rect id="Rectangle" fill="#FFD400" x="40" y="68" width="32" height="17"></rect>
            <path d="M40,32 L146,32 L146,63 L40,63 L40,32 Z M73,45 L73,50 L113,50 L113,45 L73,45 Z" id="Combined-Shape" fill="#7A8999"></path>
            <rect id="Rectangle" fill="#3D4752" x="40" y="99" width="32" height="5"></rect>
            <rect id="Rectangle" fill="#3D4752" x="77" y="89" width="32" height="5"></rect>
            <rect id="Rectangle" fill="#FFD400" x="77" y="68" width="32" height="17"></rect>
            <rect id="Rectangle" fill="#3D4752" x="77" y="99" width="32" height="5"></rect>
            <rect id="Rectangle" fill="#3D4752" x="114" y="89" width="32" height="5"></rect>
            <rect id="Rectangle" fill="#FFD400" x="114" y="68" width="32" height="17"></rect>
            <rect id="Rectangle" fill="#3D4752" x="114" y="99" width="32" height="5"></rect>
            <rect id="Rectangle" fill="#3D4752" x="36" y="14" width="114" height="5"></rect>
            <path d="M39,7 L44,7 L44,12 L39,12 L39,7 Z M46.5,7 L51.5,7 L51.5,12 L46.5,12 L46.5,7 Z M54,7 L59,7 L59,12 L54,12 L54,7 Z" id="Combined-Shape" fill="#3D4752"></path>
        </g>
        <path d="M178.086684,466.826641 C194.187174,497.262044 226.171783,518 263,518" id="Path" stroke="#3D4752" stroke-width="5" stroke-dasharray="5,10"></path>
        <path d="M263,518 C300.289408,518 332.613137,496.739399 348.510689,465.678695" id="Path" stroke="#3D4752" stroke-width="5"></path>
        <g id="pencil" transform="translate(270.000000, 265.000000)">
            <rect id="Rectangle" fill="#7A8999" x="0" y="10" width="21" height="13"></rect>
            <polygon id="Path-2" stroke="#3D4752" stroke-width="5" points="2 132 10.5 148 19.5 132 19.5 27 2 27"></polygon>
            <polyline id="Path" stroke="#3D4752" stroke-width="5" points="19.5 8 19.5 0 2 0 2 8 2 8"></polyline>
            <path d="M2,129.5 L19.5,129.5" id="Line-7" stroke="#3D4752" stroke-width="5"></path>
            <path d="M10.75,126.5 L10.75,27" id="Line-8" stroke="#3D4752" stroke-width="5" stroke-linecap="square"></path>
        </g>
        <g id="clouds" transform="translate(13.000000, 305.000000)" fill="#7A8999">
            <path d="M16,0 L54,0 L54,11 L16,11 L16,0 Z M0,0 L11,0 L11,11 L0,11 L0,0 Z M34,17 L72,17 L72,28 L34,28 L34,17 Z M18,17 L29,17 L29,28 L18,28 L18,17 Z" id="Combined-Shape"></path>
        </g>
        <path d="M409,355.5 L409,235.5 C409,198.773064 438.773064,169 475.5,169 C512.226936,169 542,198.773064 542,235.5 L542,355.5" id="Path" stroke="#3D4752" stroke-width="5"></path>
        <g id="pencil" transform="translate(376.928208, 322.508466) rotate(-90.000000) translate(-376.928208, -322.508466) translate(366.428208, 259.008466)">
            <polygon id="Path-2" stroke="#3D4752" stroke-width="5" points="2 112.322314 10.5 127 19.5 112.322314 19.5 16 2 16"></polygon>
            <polyline id="Path" stroke="#3D4752" stroke-width="5" points="19.5 8 19.5 0 2 0 2 8 2 8"></polyline>
            <rect id="Rectangle" stroke="#FFD400" fill="#FFD400" x="-0.5" y="8.5" width="22" height="104"></rect>
        </g>
        <circle id="Oval" fill="#E4E7EC" cx="476.5" cy="236.5" r="51.5"></circle>
        <g id="diamond" transform="translate(433.000000, 198.000000)">
            <polygon id="Stroke-33" stroke="#3D4752" stroke-width="5" fill="#FFFFFF" stroke-linecap="round" stroke-linejoin="round" points="74.8291 50.7489 86.2301 34.0409 74.2301 17.8139 43.2301 17.8139 12.2301 17.8139 0.2301 34.0409 43.2301 97.4999"></polygon>
            <path d="M0.2305,34.0409 L43.2305,34.0409" id="Stroke-1" stroke="#3D4752" stroke-width="5" stroke-linecap="round" stroke-linejoin="round"></path>
            <polyline id="Stroke-2" stroke="#3D4752" stroke-width="5" stroke-linecap="round" stroke-linejoin="round" points="12.2305 17.8139 24.6055 34.0409 43.2305 17.8139"></polyline>
            <path d="M43.2305,95.7274 L24.6055,34.0404" id="Stroke-3" stroke="#3D4752" stroke-width="5" stroke-linecap="round" stroke-linejoin="round"></path>
            <path d="M86.2305,34.0409 L43.2305,34.0409" id="Stroke-6" stroke="#3D4752" stroke-width="5" stroke-linecap="round" stroke-linejoin="round"></path>
            <polyline id="Stroke-7" stroke="#3D4752" stroke-width="5" stroke-linecap="round" stroke-linejoin="round" points="74.2305 17.8139 61.8555 34.0409 43.2305 17.8139"></polyline>
            <path d="M61.8555,34.0409 L43.2305,95.7279" id="Stroke-8" stroke="#3D4752" stroke-width="5" stroke-linecap="round" stroke-linejoin="round"></path>
            <g id="Group-35" transform="translate(0.000000, 17.100000)"></g>
            <rect id="Rectangle" fill="#3D4752" x="63" y="0" width="11" height="11"></rect>
            <rect id="Rectangle" fill="#3D4752" x="37.5" y="0" width="11" height="11"></rect>
            <rect id="Rectangle" fill="#3D4752" x="12" y="0" width="11" height="11"></rect>
        </g>
        <g id="face" transform="translate(427.000000, 33.000000)">
            <path d="M104,39.5 L118,64 L108.585935,64 C108.855666,64.9536636 109,65.9599762 109,67 L109,79 C109,85.0751322 104.075132,90 98,90 L80,90 L80,105 L37,105 L37,67.854934 C29.5992131,60.6759192 25,50.6250615 25,39.5 C25,17.6847524 42.6847524,0 64.5,0 C86.3152476,0 104,17.6847524 104,39.5 Z" id="Combined-Shape" stroke="#3D4752" stroke-width="5" fill="#FFFFFF" stroke-linejoin="round"></path>
            <path d="M79,39.5 L93,64 L83.585935,64 C83.8556657,64.9536636 84,65.9599762 84,67 L84,79 C84,85.0751322 79.0751322,90 73,90 L55,90 L55,105 L12,105 L12,67.854934 C4.59921308,60.6759192 0,50.6250615 0,39.5 C0,17.6847524 17.6847524,0 39.5,0 C61.3152476,0 79,17.6847524 79,39.5 Z" id="Combined-Shape" stroke="#FFD400" stroke-width="5" fill="#FFD400" stroke-linejoin="round"></path>
            <g id="ic-arrow-back-36px" transform="translate(22.000000, 17.000000)" fill="#3D4752">
                <polygon id="Path" points="66 10.5 24.74 10.5 33.12 2.12 31 0 19 12 31 24 33.12 21.88 24.74 13.5 66 13.5"></polygon>
                <polygon id="Path" transform="translate(23.500000, 35.000000) scale(-1, 1) translate(-23.500000, -35.000000) " points="47 33.5 5.74 33.5 14.12 25.12 12 23 0 35 12 47 14.12 44.88 5.74 36.5 47 36.5"></polygon>
            </g>
        </g>
        <g id="responsive" transform="translate(564.000000, 34.000000)">
            <g id="desktop">
                <rect id="Rectangle" stroke="#3D4752" stroke-width="5" x="2.5" y="2.5" width="131" height="96" rx="5"></rect>
                <rect id="Rectangle" fill="#3D4752" x="3" y="80" width="130" height="5"></rect>
                <rect id="Rectangle" fill="#7A8999" x="13" y="12" width="110" height="59"></rect>
                <g id="Group-7" transform="translate(43.000000, 98.000000)" stroke="#3D4752" stroke-width="5">
                    <path d="M10,-3.55271368e-15 L10,9 C10,14.3333333 7.33333333,17 2,17" id="Path-4"></path>
                    <path d="M0.5,17 L26,17" id="Line-9"></path>
                </g>
            </g>
            <g id="tablet" transform="translate(66.000000, 58.000000)">
                <rect id="Rectangle" stroke="#3D4752" stroke-width="5" fill="#FFFFFF" x="2.5" y="2.5" width="51" height="72" rx="5"></rect>
                <rect id="Rectangle" fill="#FFD400" x="9" y="10" width="38" height="57"></rect>
            </g>
            <g id="mobile" transform="translate(105.000000, 76.000000)" stroke="#3D4752" stroke-width="5">
                <rect id="Rectangle" fill="#FFFFFF" x="2.5" y="2.5" width="26" height="54" rx="5"></rect>
                <path d="M2.5,45.5 L28.5,45.5" id="Line-10" stroke-linecap="square"></path>
            </g>
        </g>
        <path d="M614,179.5 L614,374" id="Path" stroke="#3D4752" stroke-width="5" stroke-linecap="square"></path>
        <g id="alambic" transform="translate(515.000000, 363.000000)">
            <path d="M26,26 C12.5901277,28.7760298 0,40.6545308 0,54.8871364 C0,71.1795365 13.2075999,84.3871364 29.5,84.3871364 C45.7924001,84.3871364 59,71.1795365 59,54.8871364 C59,43.5658538 52.6225799,33.7340975 43.2642452,28.7883731 C40.9594113,27.5703067 36.6157209,26.5745802 34,26" id="Path" stroke="#3D4752" stroke-width="5" stroke-linejoin="round"></path>
            <polyline id="Path" stroke="#3D4752" stroke-width="5" stroke-linejoin="round" points="21 13 21 0 21 0 38 0 38 13"></polyline>
            <path d="M36,10 L36,28 M24,28 L24,10" id="Shape" stroke="#3D4752" stroke-width="5" stroke-linejoin="round"></path>
            <path d="M10,55 C10,65.7695526 18.7304474,74.5 29.5,74.5 C40.2695526,74.5 49,65.7695526 49,55" id="Path" fill="#7A8999"></path>
        </g>
        <circle id="Oval" stroke="#3D4752" stroke-width="5" cx="518.5" cy="342.5" r="10.5"></circle>
        <circle id="Oval" stroke="#3D4752" stroke-width="5" cx="505" cy="319" r="7"></circle>
        <circle id="Oval" stroke="#3D4752" stroke-width="5" cx="491" cy="339" r="7"></circle>
        <g id="alambic" transform="translate(589.000000, 383.000000)">
            <polygon id="Path-5" stroke="#3D4752" stroke-width="5" stroke-linejoin="round" points="-9.9475983e-14 65 44 65 29.404832 32 29.404832 10 31 10 31 0 13.404832 0 13.404832 10 15 10 15 32"></polygon>
            <polygon id="Path-6" fill="#FFD400" points="11 58 33.4893111 58 22.2446556 34"></polygon>
        </g>
        <path d="M549.5,353.619804 L571.5,367.471656 L571.5,336.5 C571.5,330.424868 566.575132,325.5 560.5,325.5 C554.424868,325.5 549.5,330.424868 549.5,336.5 L549.5,353.619804 Z" id="Path" stroke="#3D4752" stroke-width="5"></path>
        <path d="M584.5,372.678336 L606.5,374.307965 L606.5,356.5 C606.5,350.424868 601.575132,345.5 595.5,345.5 C589.424868,345.5 584.5,350.424868 584.5,356.5 L584.5,372.678336 Z" id="Path" stroke="#3D4752" stroke-width="5"></path>
        <path d="M571.5,379.198102 L584.5,383.531435 L584.5,368.5 C584.5,363.918596 582.220936,360.5 580,360.5 L576,360.5 C573.779064,360.5 571.5,363.918596 571.5,368.5 L571.5,379.198102 Z" id="Path" stroke="#3D4752" stroke-width="5" transform="translate(578.000000, 372.500000) scale(1, -1) translate(-578.000000, -372.500000) "></path>
        <g id="Group-9" transform="translate(435.000000, 576.500000) rotate(-270.000000) translate(-435.000000, -576.500000) translate(415.000000, 530.000000)" stroke="#3D4752">
            <path d="M15.5,78.6783359 L37.5,80.3079655 L37.5,62.5 C37.5,56.4248678 32.5751322,51.5 26.5,51.5 C20.4248678,51.5 15.5,56.4248678 15.5,62.5 L15.5,78.6783359 Z" id="Path" stroke-width="5"></path>
            <use id="Path" mask="url(#mask-10)" stroke-width="10" stroke-dasharray="9,5" transform="translate(9.000000, 46.500000) scale(1, -1) translate(-9.000000, -46.500000) " xlink:href="#path-9"></use>
        </g>
        <g id="planet" transform="translate(446.000000, 474.000000)">
            <circle id="Oval" fill="#E4E7EC" cx="56.5" cy="56.5" r="56.5"></circle>
            <polygon id="Path-7" fill="#FFFFFF" points="45 3 45 18 57 15 63 6"></polygon>
            <polygon id="Path-8" fill="#FFFFFF" points="10 50 20 42 29 60 7 79 7 72 12 60.5"></polygon>
            <path d="M114,63 C111.333333,41.6666667 110,31 110,31 C110,31 104.666667,31 94,31 L80,29 L74,24 L63,27 L63,33 L55.4893111,33 L54,36 L60,42 L68,50 L60,48 L57,43.5 L50,43.5 L42,52 L42,58 L50,62 L47,74 L47,84 L50,85 L70,67 L66,63 L68,56 L74,62 L80,59 L83,70 L92,70 L94,80 L114,63 Z" id="Path-9" fill="#FFFFFF"></path>
            <polygon id="Path-10" fill="#FFFFFF" points="4 31 4 34 10 40 7 31 13 28 20 31 37 24 33 15 29 18 27 18 25 10 40 0 10 14"></polygon>
        </g>
        <g id="rocket" transform="translate(508.867163, 616.409955) rotate(-36.000000) translate(-508.867163, -616.409955) translate(429.867163, 528.909955)">
            <g id="Group-6" transform="translate(78.710816, 79.166819) rotate(-45.000000) translate(-78.710816, -79.166819) translate(23.210816, 23.666819)">
                <path d="M55.2969436,108.679811 L52.0556586,108.734969 L52.0600806,108.624728 L38.0229144,108.385851 C24.4550708,48.4790971 30.5464138,13.3504801 56.2969436,3 C82.0474734,13.3504801 87.4721498,48.4790971 72.5709728,108.385851 L58.5358911,108.624692 L58.5382286,108.734969 L55.2969436,108.679811 Z" id="Combined-Shape" stroke="#3D4752" stroke-width="5" fill="#FFFFFF" stroke-linejoin="round" transform="translate(55.882087, 55.867485) rotate(45.000000) translate(-55.882087, -55.867485) "></path>
                <circle id="Oval" fill="#FFD400" cx="64.5" cy="47.5" r="14.5"></circle>
                <path d="M66.5,19.5 L91.5,44.5" id="Line-12" stroke="#3D4752" stroke-width="5" stroke-linecap="square"></path>
            </g>
            <path d="M59.9118265,118.5 L98.5,118.5" id="Line-13" stroke="#3D4752" stroke-width="5" stroke-linecap="square"></path>
            <path d="M94,142.094735 L107,142.094735 C116.333333,120.698245 115.37431,104.666667 104.122931,94 L94,142.094735 Z" id="Path-12" stroke="#3D4752" stroke-width="5" fill="#7A8999"></path>
            <path d="M45,142.094735 L58,142.094735 C67.3333333,120.698245 66.3743102,104.666667 55.1229307,94 L45,142.094735 Z" id="Path-12" stroke="#3D4752" stroke-width="5" fill="#7A8999" transform="translate(54.673876, 118.047368) scale(-1, 1) translate(-54.673876, -118.047368) "></path>
            <path d="M86.5485693,159.902861 L79,175 L71.4514307,159.902861 C70.5333895,158.492313 70,156.808446 70,155 C70,150.029437 74.0294373,146 79,146 C83.9705627,146 88,150.029437 88,155 C88,156.808446 87.4666105,158.492313 86.5485693,159.902861 Z" id="Combined-Shape" stroke="#000000" stroke-width="5" fill="#FFD400" stroke-linecap="square" stroke-linejoin="round"></path>
        </g>
        <rect id="Rectangle" fill="#FFD400" transform="translate(673.500000, 353.000000) rotate(-270.000000) translate(-673.500000, -353.000000) " x="549" y="332" width="249" height="42"></rect>
        <path d="M673.5,177 L672.904832,536.5" id="Path" stroke="#3D4752" stroke-width="5" stroke-linecap="square" stroke-dasharray="5,10"></path>
        <path d="M673.5,177 L673.413602,229.186873 M673.0035,476.901596 L672.904832,536.5" id="Shape" stroke="#3D4752" stroke-width="5" stroke-linecap="square"></path>
        <g id="comment" transform="translate(591.000000, 469.000000)">
            <path d="M55,13.25 L64.75,13.25 L55,24.4625 L55,42 L0,42 L0,0 L55,0 L55,13.25 Z" id="Combined-Shape" fill="#FFD400"></path>
            <g id="Group-8" transform="translate(14.000000, 15.000000)" fill="#FFFFFF">
                <rect id="Rectangle" x="0" y="0" width="29" height="5" rx="2"></rect>
                <rect id="Rectangle" x="0" y="9" width="29" height="5" rx="2"></rect>
            </g>
        </g>
        <g id="video" transform="translate(610.000000, 520.000000)">
            <g id="comment" fill="#FFFFFF" stroke="#3D4752" stroke-width="5">
                <path d="M59.2630977,26.75 L52.5,26.75 L52.5,5 C52.5,3.61928813 51.3807119,2.5 50,2.5 L5,2.5 C3.61928813,2.5 2.5,3.61928813 2.5,5 L2.5,48 C2.5,49.3807119 3.61928813,50.5 5,50.5 L50,50.5 C51.3807119,50.5 52.5,49.3807119 52.5,48 L52.5,34.5275623 L59.2630977,26.75 Z" id="Combined-Shape"></path>
            </g>
            <polygon id="Path-15" fill="#7A8999" points="24 18 24 36 36 27"></polygon>
        </g>
        <path d="M584.5,644 C634.48177,644 675,603.48177 675,553.5" id="Path" stroke="#3D4752" stroke-width="5" stroke-dasharray="5,10"></path>
        <g id="check" transform="translate(353.000000, 583.000000)">
            <circle id="Oval" stroke="#3D4752" stroke-width="5" cx="25" cy="25" r="25"></circle>
            <circle id="Oval" fill="#FFD400" cx="25" cy="25" r="16"></circle>
            <polyline id="Path-16" stroke="#3D4752" stroke-width="5" points="15 26 21 32 36 17"></polyline>
        </g>
        <path d="M390.5,538 L390.5,538" id="Line-14" stroke="#000000" stroke-width="0.2" stroke-linecap="square"></path>
        <g id="decor" transform="translate(266.000000, 24.000000)">
            <rect id="Rectangle" fill="#FFD400" x="0" y="25" width="16" height="16"></rect>
            <use id="Rectangle" stroke="#3D4752" mask="url(#mask-12)" stroke-width="10" stroke-dasharray="5,1" xlink:href="#path-11"></use>
        </g>
        <g id="decor" transform="translate(554.000000, 208.000000)">
            <rect id="Rectangle" fill="#FFD400" x="0" y="0" width="36" height="36"></rect>
            <use id="Rectangle" stroke="#3D4752" mask="url(#mask-14)" stroke-width="10" stroke-dasharray="5,1" xlink:href="#path-13"></use>
        </g>
        <g id="close" transform="translate(333.000000, 55.000000)" stroke="#3D4752" stroke-width="5">
            <path d="M7,7 L13.4334059,0.566594112 L7,7 L0.566594112,0.566594112 L7,7 Z M7,7 L13.2749845,13.2749845 L7,7 L0.72501548,13.2749845 L7,7 Z" id="Combined-Shape"></path>
        </g>
        <g id="close" transform="translate(353.000000, 545.000000)" stroke="#3D4752" stroke-width="5">
            <path d="M7,7 L13.4334059,0.566594112 L7,7 L0.566594112,0.566594112 L7,7 Z M7,7 L13.2749845,13.2749845 L7,7 L0.72501548,13.2749845 L7,7 Z" id="Combined-Shape"></path>
        </g>
        <g id="close" transform="translate(423.000000, 625.000000)" stroke="#3D4752" stroke-width="5">
            <path d="M7,7 L13.4334059,0.566594112 L7,7 L0.566594112,0.566594112 L7,7 Z M7,7 L13.2749845,13.2749845 L7,7 L0.72501548,13.2749845 L7,7 Z" id="Combined-Shape"></path>
        </g>
        <g id="gears" transform="translate(308.000000, 187.000000)">
            <g id="gear" transform="translate(9.000000, 0.000000)">
                <path d="M21.8906892,71.9025715 C22.7534742,72.6899383 26.10601,74.1733199 28.1099912,73.9833659 C28.4826563,73.4613547 29.462896,71.8982214 31.9265458,67.2334717 C32.2165575,66.68391 32.8299323,66.3823036 33.437507,66.4794556 C37.1061556,67.0681682 40.7980051,66.9231651 44.4130015,66.0545966 C45.0394269,65.8994433 45.6934034,66.1865494 46.0124163,66.7477114 C48.6587735,71.3950606 49.6868652,73.1205975 50.076931,73.7397607 C51.2456783,73.6861095 54.6533163,72.3651313 55.9467687,70.8135982 C55.8409144,70.1712345 55.4174973,68.3311452 53.805032,63.1313341 C53.6208745,62.5353714 53.8369333,61.8901076 54.3430038,61.5261499 C57.4562799,59.284402 60.0489849,56.4452414 62.0471658,53.0869696 C62.3705289,52.541758 63.0114549,52.2691522 63.6262798,52.4170553 C69.1510036,53.7206332 71.1941363,54.1034413 71.9452668,54.2121937 C72.4788884,53.3465252 73.332973,50.7857705 74,48.0611623 C72.5876428,47.3680475 69.8455817,46.0253188 66.5002962,44.3998341 C65.9304231,44.1214282 65.60561,43.503715 65.7013138,42.8773016 C66.2566863,39.2333738 66.0928297,35.5734956 65.2169942,31.9962692 C65.0676382,31.3858062 65.3286488,30.7477926 65.8622704,30.4171855 C70.6518144,27.4562223 72.3570835,26.2903974 72.9617579,25.8379877 C72.7282985,24.8490666 71.5203996,22.433315 70.0645406,20.0349638 C68.6014313,20.5352245 65.7854173,21.5009451 62.3516782,22.6870704 C61.7426535,22.8944249 61.0756265,22.6827203 60.7015113,22.1650593 C58.5148228,19.1315945 55.7727617,16.5983904 52.5507312,14.6335984 C52.0156595,14.3073415 51.7502987,13.6736779 51.8938546,13.0632149 C53.139455,7.76915185 53.5106701,5.78985958 53.6165243,5.05469388 C52.7551894,4.51673239 50.226287,3.67281437 47.4668252,3 C46.8026983,4.35287889 45.5411472,6.92813389 44.0069851,10.0834013 C43.7256737,10.6605136 43.091998,10.9882206 42.4641226,10.8794683 C38.6925198,10.2530549 34.8759652,10.4038581 31.1261133,11.333328 C30.5141885,11.4841312 29.8761627,11.2245756 29.5440992,10.6895142 C26.7860875,6.24081921 25.6796927,4.62403468 25.243225,4.03822217 C24.2528349,4.27312719 21.8370371,5.47955295 19.44009,6.93538404 C19.9157092,8.32741377 20.8118455,10.9432696 21.9196904,14.1507381 C22.1284989,14.7568511 21.9153402,15.4282154 21.3947691,15.8008734 C18.403298,17.9512693 15.8975965,20.6309265 13.9487175,23.7658935 C13.6094038,24.3096551 12.9539772,24.5648605 12.3348022,24.398107 C7.6032605,23.1032293 5.78198673,22.6406694 5.09755901,22.4869662 C4.31017711,23.3497346 2.83401732,26.694956 3.01527466,28.706149 C3.52134516,29.0672067 5.00765537,29.9995766 9.35493146,32.3022258 C9.9088539,32.5965821 10.2119162,33.2157453 10.1031618,33.8334585 C9.44048492,37.6223894 9.57099021,41.4693215 10.4888774,45.2655026 C10.6411336,45.893366 10.3598222,46.5458799 9.79864943,46.8663368 C5.48617475,49.3241393 3.85630873,50.29566 3.25888453,50.6726681 C3.3125367,51.839943 4.63499027,55.2475158 6.18655312,56.5423934 C6.8057282,56.4394412 8.54579868,56.0406827 13.3614437,54.557301 C13.9574179,54.370247 14.602694,54.5906517 14.9666588,55.0981626 C17.169298,58.1751283 19.9534108,60.7445832 23.2392439,62.7369257 C23.7931663,63.0718829 24.057077,63.734547 23.8859701,64.3595104 C22.527265,69.3171662 22.0472956,71.2036565 21.8906892,71.9025715 L21.8906892,71.9025715 Z M27.6678237,77 C24.9191306,77 21.4934123,75.5429807 19.9798914,74.2773311 C19.1781892,73.6046376 18.7882111,72.888451 18.821555,72.1490681 C18.8331529,71.8562145 18.8505496,71.4937719 20.6931599,64.7407412 C17.7675993,62.8270442 15.2305672,60.4784161 13.1241056,57.7412495 C5.83484975,59.9593983 5.47241658,59.7332341 4.83598394,59.3301979 C2.35839081,57.7615463 0.480987004,53.4165843 0.27802443,51.1143488 C0.185241539,50.0719639 0.415749034,49.2890878 0.963747982,48.7903668 C1.16671056,48.6033464 1.44215976,48.3525361 7.32227547,44.9919683 C6.60320806,41.5023708 6.48577972,37.9808784 6.97433962,34.4941805 C0.395452776,30.979937 0.302669885,30.5653026 0.137400361,29.8389676 C-0.506280943,26.9785706 1.23919719,22.5785173 2.72372344,20.805448 C3.39494967,20.0022752 4.11256734,19.6050381 4.851931,19.6456317 C5.12593047,19.6572299 5.4956123,19.6746271 11.9672189,21.4389977 C13.8228767,18.671386 16.0888089,16.2473698 18.7215234,14.2147916 C17.2384469,9.91332274 16.2120362,6.90069977 16.2120362,6.90069977 C15.9974758,6.26859986 16.2424806,5.57126028 16.8049768,5.21171721 C24.5784434,0.253502311 25.9977317,1.15380975 26.6051697,1.53654915 C26.9835499,1.77721104 27.3749777,2.02367202 31.3472452,8.3997624 C34.7947095,7.66762833 38.2813166,7.5270006 41.7476274,7.97932898 C43.7975494,3.77064539 45.2545307,0.808764389 45.2545307,0.808764389 C45.5502762,0.208559427 46.2200527,-0.107490528 46.8680832,0.0331372042 C55.8680236,2.02367202 56.2377054,3.66481215 56.3957263,4.36505127 C56.4899589,4.78983401 56.5972391,5.26970803 54.8329145,12.841859 C57.699036,14.7222113 60.1983751,17.0287961 62.2845404,19.7181202 C66.8468491,18.1436695 70.0971497,17.0360449 70.0971497,17.0360449 C70.7335824,16.8214789 71.4280043,17.0650403 71.787538,17.6304508 C76.744174,25.4012203 75.8453398,26.8219954 75.4611606,27.4294492 C75.2248542,27.8020402 74.9610028,28.2210238 68.1458096,32.4543535 C68.8315331,35.7221361 68.9794058,39.0464597 68.5894278,42.3635345 C73.02416,44.5236924 76.1889264,46.0792961 76.1889264,46.0792961 C76.7891157,46.3750493 77.1095066,47.0404939 76.9659831,47.6928906 C74.9740504,56.6930655 73.3344028,57.0627569 72.6341819,57.2207819 C72.2021616,57.3164668 71.7165011,57.4266493 63.8575003,55.5897902 C61.9279061,58.5995136 59.5474451,61.2076506 56.7581595,63.3620095 C59.1458692,71.1530758 58.9124622,71.518418 58.5036376,72.1650156 C56.9379263,74.6397737 52.5930775,76.5186762 50.2894523,76.7216441 C49.2514437,76.8187787 48.4656886,76.5853657 47.9640811,76.0373524 C47.7741661,75.8285855 47.5161137,75.5458803 43.9048296,69.2205318 C40.6008889,69.8946751 37.243308,70.0193553 33.897325,69.5989219 C30.1729618,76.6013131 29.7525393,76.6955482 29.0131756,76.8622718 C28.5927532,76.9565069 28.1404366,77 27.6678237,77 L27.6678237,77 Z" id="Fill-1" stroke="#3D4752" stroke-width="3"></path>
                <circle id="Oval" fill="#FFD400" cx="38" cy="39" r="22"></circle>
                <g id="code" transform="translate(14.000000, 22.000000)" fill="#3D4752" fill-rule="nonzero">
                    <path d="M13.8812727,27.7727273 C13.3234545,27.7727273 12.7609091,27.5765455 12.3118182,27.1770909 L0.351818182,16.5454545 L12.976,5.32290909 C13.9498182,4.46018182 15.4436364,4.54290909 16.3110909,5.51909091 C17.1785455,6.49527273 17.0910909,7.98909091 16.1149091,8.85654545 L7.46636364,16.5454545 L15.4507273,23.6410909 C16.4269091,24.5085455 16.5143636,26.0023636 15.6469091,26.9785455 C15.1812727,27.5056364 14.5312727,27.7727273 13.8812727,27.7727273 Z M35.024,27.768 L47.6481818,16.5454545 L35.6881818,5.91381818 C34.712,5.04636364 33.2181818,5.13381818 32.3530909,6.11 C31.4856364,7.08618182 31.5730909,8.58 32.5492727,9.44745455 L40.5336364,16.5454545 L31.8850909,24.232 C30.9089091,25.0994545 30.8214545,26.5932727 31.6889091,27.5694545 C32.1545455,28.0965455 32.8045455,28.3636364 33.4545455,28.3636364 C34.0123636,28.3636364 34.5749091,28.1674545 35.024,27.768 Z M23.9669091,31.1172727 L28.6941818,2.75363636 C28.9092727,1.46545455 28.0394545,0.248181818 26.7512727,0.0330909091 C25.4583636,-0.184363636 24.2434545,0.687818182 24.0330909,1.976 L19.3058182,30.3396364 C19.0907273,31.6278182 19.9605455,32.8450909 21.2487273,33.0601818 C21.3810909,33.0814545 21.5087273,33.0909091 21.6387273,33.0909091 C22.7732727,33.0909091 23.7754545,32.2707273 23.9669091,31.1172727 Z" id="Shape"></path>
                </g>
            </g>
            <g id="gear" transform="translate(59.000000, 96.000000) rotate(3.000000) translate(-59.000000, -96.000000) translate(41.000000, 78.000000)">
                <mask id="mask-16" fill="white">
                    <use xlink:href="#path-15"></use>
                </mask>
                <g id="Clip-2"></g>
                <path d="M14.5381028,11.1814724 C18.3800839,9.47107804 22.8811124,11.1992044 24.590794,15.0403882 C26.3012144,18.8823108 24.5738006,23.3832708 20.7318196,25.0936652 C16.8905774,26.8040596 12.3895488,25.0759333 10.6791284,21.2340107 C8.96870803,17.3928269 10.6961218,12.8918668 14.5381028,11.1814724 M2.02211077,27.5244201 C2.18613381,27.6285953 3.78277247,27.1934237 5.94093143,26.5284756 C7.08909269,28.1317394 8.537224,29.4424261 10.1663717,30.4302435 C9.57603657,32.5839366 9.15194097,34.1827675 9.14307486,34.3785578 C9.11499884,35.008042 11.8346781,36.2655329 13.2362624,35.9500519 C13.4305779,35.9064609 14.2832022,34.4073722 15.3737337,32.3408612 C17.206802,32.634916 19.1085826,32.5743318 20.9808095,32.1243836 C22.1201047,34.1251387 22.9838115,35.6138837 23.1182809,35.7609111 C23.5431153,36.2263748 26.3558888,35.1927499 27.124285,33.9773724 C27.2314171,33.8074412 26.7585579,32.0940915 26.0514856,29.8111029 C27.6769392,28.641533 28.9979896,27.1631316 29.9872997,25.5007613 C32.3937097,26.0689225 34.2068292,26.4582866 34.428482,26.4080461 C35.1296435,26.250675 36,22.314182 36,22.314182 C36,22.314182 34.2430325,21.4497494 31.852877,20.2875678 C32.1299429,18.4678264 32.0597529,16.5838067 31.6053648,14.7293402 C33.6955502,13.4371243 35.2404699,12.4374856 35.3616401,12.2453895 C35.7458382,11.6380702 33.5788131,8.24018515 33.5788131,8.24018515 C33.5788131,8.24018515 31.7664324,8.85710926 29.2994373,9.70972054 C28.1630975,8.13379345 26.739348,6.84009989 25.1360598,5.86262612 C25.6842809,3.53161347 26.0559187,1.78944933 26.0071551,1.57149411 C25.8497816,0.870343236 21.9139676,0 21.9139676,0 C21.9139676,0 21.0975466,1.65941503 19.9855887,3.94535898 C18.093413,3.62987803 16.1266142,3.6978505 14.1930634,4.17661317 C12.9673237,2.19876186 12.0297325,0.755824389 11.8442831,0.638350217 C11.2376934,0.254157957 7.83901783,2.4218889 7.83901783,2.4218889 C7.83901783,2.4218889 8.41605383,4.116029 9.22508638,6.45886296 C7.67573364,7.57228168 6.39458073,8.96128447 5.42152515,10.5268679 C3.34463886,9.95870668 1.8122795,9.55234948 1.62165814,9.54422234 C0.99216432,9.51614675 -0.26608447,12.2357847 0.0501401227,13.6373476 C0.0922541456,13.8250107 1.49753259,14.629598 3.45768177,15.6683947 C3.1244638,17.5723629 3.18209351,19.5568637 3.65495272,21.5081171 C1.76647127,22.5838554 0.380402723,23.3891815 0.238544962,23.5192158 C-0.226186975,23.9440438 0.807453693,26.7567744 2.02211077,27.5244201" id="Fill-1" fill="#FFD400" mask="url(#mask-16)"></path>
            </g>
            <g id="gear" transform="translate(16.337207, 85.276688) rotate(5.000000) translate(-16.337207, -85.276688) translate(1.337207, 70.276688)">
                <mask id="mask-18" fill="white">
                    <use xlink:href="#path-17"></use>
                </mask>
                <g id="Clip-2"></g>
                <path d="M12.3928859,9.71557069 C15.487815,8.33775299 19.1136436,9.72985477 20.4908871,12.8241417 C21.8687257,15.9190238 20.477198,19.5447972 17.3822688,20.9226149 C14.2879348,22.3004326 10.6621062,20.9083308 9.28426758,17.8134487 C7.90642892,14.7191618 9.29795669,11.0933884 12.3928859,9.71557069 M2.31055891,22.880723 C2.44268858,22.9646419 3.72886972,22.614087 5.46738667,22.0784343 C6.39229434,23.3699524 7.55884457,24.4257834 8.87121357,25.2215252 C8.3956658,26.9564446 8.05403324,28.2443917 8.04689109,28.4021117 C8.0242743,28.9091962 10.215127,29.9221749 11.344181,29.6680375 C11.500713,29.6329225 12.1875492,28.4253233 13.066033,26.7606338 C14.5426713,26.9975114 16.0746612,26.9487074 17.582844,26.5862491 C18.5006095,28.1979685 19.1963734,29.3972353 19.3046959,29.5156741 C19.6469237,29.8906309 21.9127689,29.0579886 22.5317548,28.0789346 C22.6180557,27.9420456 22.2371413,26.5618472 21.6675553,24.722773 C22.9769484,23.7806195 24.0411279,22.589685 24.8380722,21.2505534 C26.7765692,21.7082388 28.2371377,22.0218932 28.4156913,21.9814217 C28.9805159,21.8546505 29.6816363,18.6835867 29.6816363,18.6835867 C29.6816363,18.6835867 28.2663014,17.9872383 26.3408984,17.0510364 C26.5640904,15.5851336 26.5075484,14.0674511 26.1415135,12.5735753 C27.825274,11.5326236 29.0697927,10.7273591 29.167402,10.572615 C29.4768949,10.0833855 27.7312358,7.34620038 27.7312358,7.34620038 C27.7312358,7.34620038 26.2712625,7.84316703 24.2839608,8.52999278 C23.368576,7.26049596 22.2216667,6.21835393 20.9301289,5.4309445 C21.3717515,3.55318431 21.6711264,2.14977431 21.6318446,1.97419927 C21.5050715,1.40938329 18.3345547,0.708273457 18.3345547,0.708273457 C18.3345547,0.708273457 17.6768822,2.04502445 16.7811383,3.8864793 C15.2568857,3.63234187 13.67252,3.68709747 12.1149374,4.0727674 C11.127536,2.47949829 10.3722542,1.31713199 10.2228644,1.22250002 C9.73422267,0.913011811 6.99640071,2.65923952 6.99640071,2.65923952 C6.99640071,2.65923952 7.46123526,4.02396349 8.11295593,5.9112464 C6.86486622,6.80816703 5.83282638,7.92708595 5.04897605,9.1882504 C3.37592876,8.73056495 2.14152817,8.40322165 1.98797206,8.39667479 C1.48087982,8.37405834 0.46729052,10.5648778 0.722026998,11.6939146 C0.755952183,11.8450876 1.88798204,12.4932274 3.4669911,13.3300359 C3.19856551,14.863788 3.24498945,16.4624137 3.62590381,18.0342567 C2.10462709,18.9008237 0.988071871,19.5495586 0.873797563,19.6543084 C0.499430169,19.9965309 1.33208515,22.2623417 2.31055891,22.880723" id="Fill-1" fill="#FFD400" mask="url(#mask-18)"></path>
            </g>
        </g>
        <circle id="Oval" fill="#FFD400" cx="173.5" cy="506.5" r="12.5"></circle>
        <circle id="Oval" fill="#FFD400" cx="150.5" cy="525.5" r="12.5"></circle>
        <circle id="Oval" fill="#FFD400" cx="180.5" cy="535.5" r="12.5"></circle>
        <g id="arrows" transform="translate(614.500000, 300.000000) rotate(-90.000000) translate(-614.500000, -300.000000) translate(586.000000, 284.000000)">
            <g id="Group-3" transform="translate(17.000000, 0.000000)">
                <mask id="mask-20" fill="white">
                    <use xlink:href="#path-19"></use>
                </mask>
                <g id="Clip-2"></g>
                <polygon id="Fill-1" fill="#FFD400" mask="url(#mask-20)" points="21.7324923 16.4371556 21.7218769 16.4229333 21.7324923 16.4087111 21.7130308 16.4087111 11.2692615 0.846044444 0.307107692 0.846044444 10.7597231 16.4229333 0.307107692 31.9998222 11.2692615 31.9998222 21.7130308 16.4371556"></polygon>
            </g>
            <g id="Group-6">
                <mask id="mask-22" fill="white">
                    <use xlink:href="#path-21"></use>
                </mask>
                <g id="Clip-5"></g>
                <polygon id="Fill-4" fill="#FFD400" mask="url(#mask-22)" points="21.4262692 16.4371556 21.4156538 16.4229333 21.4262692 16.4087111 21.4068077 16.4087111 10.9630385 0.846044444 0.000884615385 0.846044444 10.4535 16.4229333 0.000884615385 31.9998222 10.9630385 31.9998222 21.4068077 16.4371556"></polygon>
            </g>
            <g id="Group-9" transform="translate(34.000000, 0.000000)">
                <mask id="mask-24" fill="white">
                    <use xlink:href="#path-23"></use>
                </mask>
                <g id="Clip-8"></g>
                <polygon id="Fill-7" fill="#FFD400" mask="url(#mask-24)" points="22.3593615 16.4371556 22.3788231 16.4371556 22.3682077 16.4229333 22.3788231 16.4087111 22.3593615 16.4087111 11.9173615 0.846044444 0.953438462 0.846044444 11.4078231 16.4229333 0.953438462 31.9998222 11.9173615 31.9998222"></polygon>
            </g>
        </g>
        <g id="clock" transform="translate(190.000000, 297.000000)">
            <g id="Group-3" transform="translate(0.000000, 0.988000)">
                <mask id="mask-26" fill="white">
                    <use xlink:href="#path-25"></use>
                </mask>
                <g id="Clip-2"></g>
                <path d="M29.9942,0.0124 C46.5582,0.0124 59.9882,13.4404 59.9882,30.0064 C59.9882,46.5704 46.5582,60.0004 29.9942,60.0004 C13.4282,60.0004 0.0002,46.5704 0.0002,30.0064 C0.0002,13.4404 13.4282,0.0124 29.9942,0.0124" id="Fill-1" fill="#E4E7EC" mask="url(#mask-26)"></path>
            </g>
            <path d="M29.9942,12.5706 C28.8902,12.5706 27.9942,11.6766 27.9942,10.5706 L27.9942,7.3586 C27.9942,6.2526 28.8902,5.3586 29.9942,5.3586 C31.0982,5.3586 31.9942,6.2526 31.9942,7.3586 L31.9942,10.5706 C31.9942,11.6766 31.0982,12.5706 29.9942,12.5706" id="Fill-4" fill="#FFFFFF"></path>
            <path d="M29.9942,56.6292 C28.8902,56.6292 27.9942,55.7352 27.9942,54.6292 L27.9942,51.4172 C27.9942,50.3112 28.8902,49.4172 29.9942,49.4172 C31.0982,49.4172 31.9942,50.3112 31.9942,51.4172 L31.9942,54.6292 C31.9942,55.7352 31.0982,56.6292 29.9942,56.6292" id="Fill-6" fill="#FFFFFF"></path>
            <path d="M53.629,32.9946 L50.417,32.9946 C49.311,32.9946 48.417,32.1006 48.417,30.9946 C48.417,29.8886 49.311,28.9946 50.417,28.9946 L53.629,28.9946 C54.733,28.9946 55.629,29.8886 55.629,30.9946 C55.629,32.1006 54.733,32.9946 53.629,32.9946" id="Fill-8" fill="#FFFFFF"></path>
            <path d="M9.5714,32.9946 L6.3594,32.9946 C5.2534,32.9946 4.3594,32.1006 4.3594,30.9946 C4.3594,29.8886 5.2534,28.9946 6.3594,28.9946 L9.5714,28.9946 C10.6754,28.9946 11.5714,29.8886 11.5714,30.9946 C11.5714,32.1006 10.6754,32.9946 9.5714,32.9946" id="Fill-10" fill="#FFFFFF"></path>
            <path d="M19.7844,15.307 C19.0924,15.307 18.4204,14.949 18.0504,14.307 L16.4444,11.525 C15.8924,10.569 16.2184,9.347 17.1764,8.793 C18.1324,8.241 19.3564,8.567 19.9084,9.525 L21.5144,12.307 C22.0664,13.265 21.7404,14.487 20.7824,15.039 C20.4684,15.221 20.1224,15.307 19.7844,15.307" id="Fill-12" fill="#FFFFFF"></path>
            <path d="M41.8136,53.4632 C41.1216,53.4632 40.4496,53.1032 40.0796,52.4632 L38.4736,49.6792 C37.9216,48.7232 38.2496,47.5012 39.2056,46.9472 C40.1616,46.3932 41.3836,46.7232 41.9376,47.6792 L43.5436,50.4632 C44.0956,51.4212 43.7676,52.6432 42.8116,53.1952 C42.4956,53.3772 42.1516,53.4632 41.8136,53.4632" id="Fill-14" fill="#FFFFFF"></path>
            <path d="M47.6818,22.7836 C46.9898,22.7836 46.3178,22.4256 45.9478,21.7836 C45.3958,20.8256 45.7238,19.6036 46.6798,19.0516 L49.4638,17.4436 C50.4178,16.8896 51.6418,17.2196 52.1938,18.1756 C52.7478,19.1336 52.4198,20.3556 51.4638,20.9096 L48.6798,22.5156 C48.3658,22.6976 48.0198,22.7836 47.6818,22.7836" id="Fill-16" fill="#FFFFFF"></path>
            <path d="M9.5274,44.811 C8.8354,44.811 8.1634,44.451 7.7934,43.811 C7.2414,42.853 7.5694,41.631 8.5254,41.079 L11.3074,39.473 C12.2654,38.921 13.4874,39.251 14.0394,40.205 C14.5914,41.163 14.2634,42.385 13.3074,42.937 L10.5254,44.543 C10.2094,44.725 9.8654,44.811 9.5274,44.811" id="Fill-18" fill="#FFFFFF"></path>
            <path d="M12.3058,22.7836 C11.9658,22.7836 11.6218,22.6976 11.3058,22.5156 L8.5238,20.9096 C7.5678,20.3556 7.2418,19.1316 7.7938,18.1756 C8.3458,17.2176 9.5678,16.8916 10.5258,17.4436 L13.3078,19.0516 C14.2638,19.6036 14.5918,20.8276 14.0398,21.7836 C13.6698,22.4256 12.9978,22.7836 12.3058,22.7836" id="Fill-20" fill="#FFFFFF"></path>
            <path d="M50.461,44.811 C50.123,44.811 49.779,44.725 49.463,44.543 L46.681,42.937 C45.723,42.385 45.395,41.163 45.947,40.205 C46.499,39.251 47.721,38.921 48.679,39.473 L51.461,41.079 C52.419,41.631 52.747,42.853 52.195,43.811 C51.825,44.451 51.153,44.811 50.461,44.811" id="Fill-22" fill="#FFFFFF"></path>
            <path d="M40.2032,15.307 C39.8632,15.307 39.5192,15.221 39.2052,15.039 C38.2472,14.487 37.9212,13.265 38.4732,12.307 L40.0792,9.525 C40.6332,8.565 41.8572,8.241 42.8112,8.793 C43.7692,9.347 44.0952,10.569 43.5432,11.525 L41.9372,14.307 C41.5672,14.949 40.8952,15.307 40.2032,15.307" id="Fill-24" fill="#FFFFFF"></path>
            <path d="M18.174,53.4632 C17.836,53.4632 17.492,53.3772 17.176,53.1952 C16.22,52.6432 15.892,51.4212 16.444,50.4632 L18.05,47.6792 C18.602,46.7232 19.82,46.3932 20.782,46.9472 C21.738,47.5012 22.066,48.7232 21.514,49.6792 L19.908,52.4632 C19.538,53.1032 18.866,53.4632 18.174,53.4632" id="Fill-26" fill="#FFFFFF"></path>
            <path d="M41.8116,32.9946 L29.9936,32.9946 C28.8896,32.9946 27.9936,32.1006 27.9936,30.9946 L27.9936,22.7246 C27.9936,21.6206 28.8896,20.7246 29.9936,20.7246 C31.0996,20.7246 31.9936,21.6206 31.9936,22.7246 L31.9936,28.9946 L41.8116,28.9946 C42.9156,28.9946 43.8116,29.8886 43.8116,30.9946 C43.8116,32.1006 42.9156,32.9946 41.8116,32.9946" id="Fill-28" fill="#FFFFFF"></path>
        </g>
        <g id="graph" transform="translate(388.000000, 487.000000)" fill="#E4E7EC">
            <polygon id="Fill-1" points="0 35.9566615 7.89230769 35.9566615 7.89230769 27.6918923 0 27.6918923"></polygon>
            <polygon id="Fill-2" points="12.4061538 35.9566615 20.2984615 35.9566615 20.2984615 13.8457385 12.4061538 13.8457385"></polygon>
            <polygon id="Fill-3" points="24.8136923 35.9566615 32.706 35.9566615 32.706 -0.000415384615 24.8136923 -0.000415384615"></polygon>
        </g>
        <g id="Group-16" transform="translate(530.000000, 498.000000)">
            <path d="M43.4872256,87.9548205 L7.1866359,87.9548205 C3.22271282,87.9548205 0.000456410256,84.7302821 0.000456410256,80.768641 L0.000456410256,7.18617949 C0.000456410256,3.22453846 3.22271282,0 7.1866359,0 L43.4872256,0 C47.4511487,0 50.6756872,3.22453846 50.6756872,7.18617949 L50.6756872,12.7155897 C50.6756872,13.9775641 49.6533282,14.997641 48.3936359,14.997641 C47.1339436,14.997641 46.1115846,13.9775641 46.1115846,12.7155897 L46.1115846,7.18617949 C46.1115846,5.74164103 44.9340462,4.56410256 43.4872256,4.56410256 L7.1866359,4.56410256 C5.73981538,4.56410256 4.56455897,5.74164103 4.56455897,7.18617949 L4.56455897,80.768641 C4.56455897,82.2131795 5.73981538,83.3907179 7.1866359,83.3907179 L43.4872256,83.3907179 C44.9340462,83.3907179 46.1115846,82.2131795 46.1115846,80.768641 L46.1115846,59.8057179 C46.1115846,58.5437436 47.1339436,57.5236667 48.3936359,57.5236667 C49.6533282,57.5236667 50.6756872,58.5437436 50.6756872,59.8057179 L50.6756872,80.768641 C50.6756872,84.7302821 47.4511487,87.9548205 43.4872256,87.9548205" id="Fill-1" fill="#FFD400"></path>
            <path d="M40.5442923,72.2568179 L10.1313949,72.2568179 C8.87170256,72.2568179 7.84934359,71.236741 7.84934359,69.9747667 L7.84934359,10.1279718 C7.84934359,8.86827949 8.87170256,7.84592051 10.1313949,7.84592051 L40.5442923,7.84592051 C41.8039846,7.84592051 42.8263436,8.86827949 42.8263436,10.1279718 L42.8263436,12.7135359 C42.8263436,13.9755103 41.8039846,14.9955872 40.5442923,14.9955872 C39.2846,14.9955872 38.262241,13.9755103 38.262241,12.7135359 L38.262241,12.4100231 L12.4134462,12.4100231 L12.4134462,67.6927154 L38.262241,67.6927154 L38.262241,59.8082282 C38.262241,58.5462538 39.2846,57.5261769 40.5442923,57.5261769 C41.8039846,57.5261769 42.8263436,58.5462538 42.8263436,59.8082282 L42.8263436,69.9747667 C42.8263436,71.236741 41.8039846,72.2568179 40.5442923,72.2568179" id="Fill-3" fill="#FFD400"></path>
            <path d="M28.7718744,80.1059333 L21.9029,80.1059333 C20.6432077,80.1059333 19.6208487,79.0858564 19.6208487,77.8238821 C19.6208487,76.5619077 20.6432077,75.5418308 21.9029,75.5418308 L28.7718744,75.5418308 C30.0315667,75.5418308 31.0539256,76.5619077 31.0539256,77.8238821 C31.0539256,79.0858564 30.0315667,80.1059333 28.7718744,80.1059333" id="Fill-5" fill="#FED501"></path>
            <g id="Group-9" transform="translate(23.820513, 20.493282)">
                <mask id="mask-28" fill="white">
                    <use xlink:href="#path-27"></use>
                </mask>
                <g id="Clip-8"></g>
                <polygon id="Fill-7" fill="#FFD400" mask="url(#mask-28)" points="48.5075051 0.069825641 0.636915385 0.069825641 0.636915385 31.4662872 29.4113 31.4662872 38.6878385 39.0472615 38.6878385 31.4662872 48.5075051 31.4662872"></polygon>
            </g>
            <path d="M64.4802718,30.6963282 L32.3056308,30.6963282 C31.0459385,30.6963282 30.0235795,29.6762513 30.0235795,28.4142769 C30.0235795,27.1523026 31.0459385,26.1322256 32.3056308,26.1322256 L64.4802718,26.1322256 C65.7399641,26.1322256 66.7623231,27.1523026 66.7623231,28.4142769 C66.7623231,29.6762513 65.7399641,30.6963282 64.4802718,30.6963282" id="Fill-10" fill="#FFFFFF"></path>
            <path d="M64.4802718,38.5431615 L32.3056308,38.5431615 C31.0459385,38.5431615 30.0235795,37.5230846 30.0235795,36.2611103 C30.0235795,34.9991359 31.0459385,33.979059 32.3056308,33.979059 L64.4802718,33.979059 C65.7399641,33.979059 66.7623231,34.9991359 66.7623231,36.2611103 C66.7623231,37.5230846 65.7399641,38.5431615 64.4802718,38.5431615" id="Fill-12" fill="#FFFFFF"></path>
            <path d="M48.3922667,46.3920487 L32.3060872,46.3920487 C31.0441128,46.3920487 30.0240359,45.3719718 30.0240359,44.1099974 C30.0240359,42.8480231 31.0441128,41.8279462 32.3060872,41.8279462 L48.3922667,41.8279462 C49.651959,41.8279462 50.6743179,42.8480231 50.6743179,44.1099974 C50.6743179,45.3719718 49.651959,46.3920487 48.3922667,46.3920487" id="Fill-14" fill="#FFFFFF"></path>
        </g>
    </g>
</svg>