<?xml version="1.0" encoding="UTF-8"?>
<svg width="886px" height="777px" viewBox="0 0 886 777" version="1.1" xmlns="http://www.w3.org/2000/svg" xmlns:xlink="http://www.w3.org/1999/xlink">
    <!-- Generator: Sketch 53.1 (72631) - https://sketchapp.com -->
    <title>skyrocket</title>
    <desc>Created with Sketch.</desc>
    <g id="skyrocket" stroke="none" stroke-width="1" fill="none" fill-rule="evenodd">
        <polygon id="Fill-3" fill="#FFD400" points="82 773 98 773 98 591 82 591"></polygon>
        <polygon id="Fill-4" fill="#FFD400" points="807 773 823 773 823 591 807 591"></polygon>
        <polygon id="Fill-5" fill="#FFD400" points="642 618 661 618 661 266 642 266"></polygon>
        <path d="M703.337179,779.109494 C701.987418,778.817991 703.046231,774.319098 703.337179,772.967764 C704.440984,767.839911 705.000885,762.540761 705.000885,757.21757 C705.000885,715.956327 671.501814,682.388368 630.324102,682.388368 C589.408344,682.388368 555.908273,715.743961 555.648319,756.74275 C555.64032,757.874705 554.876455,758.861408 553.783649,759.148905 C552.690842,759.437403 551.541046,758.953567 550.979145,757.970871 C541.013909,740.539774 522.391205,729.710075 502.376747,729.710075 C495.449973,729.710075 488.675173,730.971253 482.240311,733.459549 C481.517439,733.739031 480.702584,733.666907 480.038701,733.260205 C479.374819,732.854504 478.937896,732.163311 478.854911,731.388974 C473.414873,680.433994 430.680437,642.008648 379.449505,642.008648 C332.143877,642.008648 290.944169,675.657747 281.485843,722.016792 C281.340869,722.727018 280.895948,723.340076 280.266059,723.696692 C279.636171,724.053308 278.884304,724.11842 278.201425,723.876002 C272.18349,721.738311 265.884604,720.654439 259.479738,720.654439 C229.758998,720.654439 205.203345,743.92562 203.576632,773.632913 C203.503645,774.960205 203.503645,776 203.576632,777 C200.201009,778.104261 198.513197,778.104261 198.513197,777 C198.513197,775.895739 198.595293,773.892856 198.759485,770.991352 C201.672969,739.769444 227.899328,715.645791 259.479738,715.645791 C265.508671,715.645791 271.451619,716.527313 277.185604,718.270323 C288.153663,671.00872 330.71513,637 379.449505,637 C432.184171,637 476.346355,675.776953 483.444098,727.71463 C489.547018,725.713174 495.900894,724.701427 502.376747,724.701427 C521.590347,724.701427 539.625155,733.861242 551.06613,749.031436 C555.1874,708.876103 589.253371,677.37972 630.324102,677.37972 C674.258326,677.37972 710,713.194559 710,757.21757 C710,762.895373 709.403106,768.549135 708.224314,774.023587 C707.971359,775.197615 707.517779,778.486219 706.365983,778.486219 C706.191014,778.486219 703.515148,779.14756 703.337179,779.109494 Z" id="Fill-6" fill="#1A1919"></path>
        <path d="M618.706851,643.033604 C617.484272,643.033604 616.41564,642.134803 616.235702,640.887304 C616.03877,639.51756 616.985444,638.247014 618.351974,638.049619 C622.378588,637.465448 626.494171,637.113744 630.582764,637.001519 C631.98728,636.953423 633.111893,638.053627 633.14988,639.436397 C633.186867,640.82017 632.099242,641.971476 630.719717,642.009552 C626.824057,642.115765 622.903407,642.451438 619.066728,643.007552 C618.945769,643.024586 618.824811,643.033604 618.706851,643.033604 Z M654.491534,644.128798 C654.322592,644.128798 654.151651,644.110762 653.97971,644.075692 C650.182018,643.283104 646.290357,642.707952 642.411692,642.364263 C641.037165,642.242018 640.020515,641.026583 640.142473,639.648823 C640.263432,638.27006 641.480013,637.254025 642.850541,637.373264 C646.923139,637.733986 651.010732,638.338197 654.99736,639.169863 C656.348895,639.452429 657.216596,640.779087 656.935693,642.132799 C656.689778,643.31617 655.650135,644.128798 654.491534,644.128798 Z M595.591808,649.230019 C594.59815,649.230019 593.659473,648.632822 593.269607,647.651857 C592.758783,646.366281 593.383568,644.909362 594.666126,644.397336 C598.457821,642.883303 602.380471,641.579691 606.323114,640.523575 C607.659654,640.164857 609.027183,640.960451 609.382061,642.296127 C609.738938,643.632805 608.947211,645.006557 607.61367,645.363272 C603.859962,646.369287 600.126247,647.609772 596.51549,649.051661 C596.212594,649.172904 595.899702,649.230019 595.591808,649.230019 Z M677.19272,651.750067 C676.835843,651.750067 676.472968,651.672913 676.128087,651.510588 C672.610298,649.846253 668.958555,648.374304 665.273823,647.137827 C663.965273,646.698948 663.259516,645.279103 663.697366,643.966473 C664.135215,642.654845 665.552727,641.947428 666.861276,642.387309 C670.730945,643.686913 674.567624,645.232009 678.261353,646.97951 C679.509923,647.570694 680.043739,649.063685 679.454942,650.314191 C679.028089,651.220005 678.129398,651.750067 677.19272,651.750067 Z M574.562046,660.6509 C573.776317,660.6509 573.003583,660.281159 572.51675,659.588772 C571.722024,658.457506 571.992931,656.894374 573.121542,656.097778 C576.460393,653.740054 579.970185,651.558684 583.551952,649.612785 C584.767534,648.954466 586.283012,649.406372 586.939786,650.622809 C587.597559,651.838244 587.146715,653.359291 585.933132,654.018612 C582.522306,655.870322 579.179457,657.948486 575.998552,660.193985 C575.561702,660.502603 575.059875,660.6509 574.562046,660.6509 Z M697.496732,664.461535 C696.94892,664.461535 696.39711,664.281173 695.936269,663.911432 C692.899314,661.47455 689.689419,659.192979 686.394553,657.129846 C685.223956,656.396376 684.868078,654.851281 685.598827,653.67793 C686.330575,652.504579 687.872044,652.147864 689.042642,652.880332 C692.501451,655.046672 695.872291,657.442472 699.060193,660.000597 C700.137823,660.86533 700.311763,662.441487 699.44906,663.521652 C698.95523,664.13989 698.229479,664.461535 697.496732,664.461535 Z M556.728185,676.648952 C556.139387,676.648952 555.548591,676.442538 555.072755,676.020693 C554.03911,675.103856 553.943143,673.520684 554.856829,672.483607 C557.562897,669.419468 560.474895,666.483586 563.513849,663.757123 C564.542495,662.833272 566.121951,662.921449 567.042635,663.953517 C567.963318,664.983581 567.875348,666.567754 566.846702,667.490603 C563.952698,670.086805 561.177653,672.88441 558.60054,675.80426 C558.10671,676.36338 557.418947,676.648952 556.728185,676.648952 Z M714.317942,681.527726 C713.575197,681.527726 712.839451,681.197064 712.34662,680.563795 C709.955443,677.494646 707.358337,674.532712 704.625278,671.759155 C703.655612,670.775184 703.665608,669.189006 704.64727,668.217059 C705.629932,667.245111 707.212387,667.255132 708.182054,668.239103 C711.050067,671.149935 713.777128,674.259164 716.286264,677.480618 C717.135972,678.571804 716.942038,680.145958 715.854413,680.996662 C715.39757,681.354379 714.855757,681.527726 714.317942,681.527726 Z M875.662406,682.844364 C874.405839,682.844364 873.324211,681.898469 873.18126,680.617904 C873.027313,679.243149 874.015973,678.003666 875.387501,677.850359 C878.334486,677.519696 881.340452,677.352361 884.321426,677.352361 C885.437042,677.342341 886.60464,677.375407 887.742248,677.424506 C889.120774,677.48162 890.192405,678.648959 890.134425,680.031729 C890.077444,681.413498 888.901849,682.49266 887.53332,682.429533 C886.469686,682.384443 885.394057,682.362399 884.334421,682.362399 C884.330423,682.362399 884.326424,682.362399 884.322425,682.362399 C881.525388,682.362399 878.706358,682.519714 875.94231,682.829334 C875.848342,682.839354 875.754375,682.844364 875.662406,682.844364 Z M911.068219,687.130952 C910.780318,687.130952 910.488419,687.080852 910.202517,686.974639 C906.583763,685.634955 902.828056,684.570823 899.042359,683.813306 C897.688825,683.542764 896.810127,682.22312 897.081034,680.866401 C897.350941,679.509683 898.668487,678.634931 900.021022,678.900463 C904.062631,679.709083 908.071251,680.845359 911.934921,682.275224 C913.229475,682.754184 913.891248,684.19507 913.413412,685.49267 C913.04054,686.504698 912.084869,687.130952 911.068219,687.130952 Z M852.630334,689.174046 C851.677662,689.174046 850.767975,688.624946 850.350119,687.698089 C849.782314,686.437563 850.342122,684.954592 851.600688,684.38445 C855.353397,682.687049 859.269049,681.273217 863.238682,680.18203 C864.570224,679.819304 865.944751,680.601871 866.309625,681.936545 C866.6745,683.271219 865.891769,684.64898 864.560228,685.014713 C860.840508,686.035758 857.17277,687.360412 853.655981,688.9516 C853.323095,689.101901 852.973216,689.174046 852.630334,689.174046 Z M543.05889,696.348419 C542.661027,696.348419 542.258165,696.253229 541.883294,696.052827 C540.665714,695.40052 540.205872,693.882479 540.856648,692.663036 C542.779986,689.054807 544.937243,685.52273 547.269441,682.161997 C548.057169,681.025721 549.614633,680.744157 550.748243,681.535742 C551.880853,682.326326 552.160757,683.887454 551.373028,685.022729 C549.151793,688.223141 547.0965,691.587882 545.26513,695.023766 C544.815285,695.868458 543.950583,696.348419 543.05889,696.348419 Z M931.921042,698.822376 C931.381228,698.822376 930.841413,698.648027 930.381572,698.287304 C927.342618,695.897516 924.093736,693.729172 920.734892,691.842392 C919.525308,691.166037 919.095456,689.639979 919.775222,688.43256 C920.444992,687.225141 921.964469,686.794278 923.174052,687.469631 C926.762817,689.482664 930.231623,691.796299 933.470508,694.346408 C934.550137,695.200119 934.740071,696.775275 933.890364,697.863455 C933.400532,698.492715 932.660787,698.822376 931.921042,698.822376 Z M726.739666,702.019782 C725.791992,702.019782 724.885304,701.476694 724.465449,700.555849 C722.851005,697.01776 721.009638,693.535784 718.991333,690.206113 C718.27458,689.023745 718.649451,687.482657 719.829045,686.764218 C721.009638,686.04678 722.54611,686.421531 723.261863,687.6039 C725.382133,691.099904 727.316468,694.757232 729.010884,698.472675 C729.584687,699.731197 729.032877,701.217174 727.777309,701.792326 C727.440425,701.946635 727.087546,702.019782 726.739666,702.019782 Z M832.647212,702.282308 C831.964447,702.282308 831.284681,702.00375 830.790851,701.455652 C829.866169,700.429596 829.947142,698.84442 830.971789,697.917563 C834.025738,695.153024 837.319604,692.605921 840.761419,690.347396 C841.917022,689.588877 843.466488,689.912525 844.221228,691.069844 C844.976968,692.227163 844.655079,693.780274 843.499477,694.537792 C840.273587,696.656036 837.18465,699.04382 834.320636,701.636013 C833.842801,702.06888 833.244007,702.282308 832.647212,702.282308 Z M948.22543,716.327447 C947.425705,716.327447 946.645973,715.942676 946.156142,715.229247 C943.996885,712.031841 941.557725,708.97672 938.92863,706.147051 C937.988953,705.136025 938.038936,703.550849 939.048588,702.606958 C940.058241,701.663067 941.637697,701.717176 942.577374,702.729203 C945.386407,705.746248 947.985512,709.005778 950.294717,712.41561 C951.064452,713.559902 950.774552,715.118024 949.624948,715.89458 C949.205092,716.187166 948.715261,716.327447 948.22543,716.327447 Z M534.336892,718.699199 C534.128964,718.699199 533.916037,718.673147 533.705109,718.618036 C532.369569,718.269338 531.568845,716.900595 531.917725,715.561913 C532.94737,711.60198 534.223931,707.660082 535.713418,703.847444 C536.216245,702.558862 537.666746,701.922587 538.951304,702.426597 C540.236861,702.930607 540.870643,704.383518 540.367816,705.672099 C538.950304,709.303374 537.734722,713.055893 536.75406,716.826447 C536.461161,717.952703 535.44751,718.699199 534.336892,718.699199 Z M817.586396,720.878565 C817.160543,720.878565 816.727692,720.769346 816.332828,720.538885 C815.139239,719.843491 814.734378,718.309418 815.429139,717.114023 C817.496427,713.550884 819.861613,710.118007 822.458719,706.910581 C823.329419,705.83743 824.902878,705.673101 825.974509,706.544848 C827.04514,707.416594 827.209084,708.993754 826.339383,710.068908 C823.905221,713.074931 821.686985,716.293379 819.749652,719.63307 C819.285811,720.432672 818.4481,720.878565 817.586396,720.878565 Z M526.816481,722.161135 C526.629545,722.161135 526.438611,722.140093 526.248676,722.095002 C522.532955,721.228266 518.706272,720.744296 514.875591,720.655117 C513.496065,720.622051 512.403442,719.474753 512.435431,718.091982 C512.46742,716.72825 513.580037,715.64508 514.933571,715.64508 C514.952564,715.64508 514.972557,715.646082 514.99255,715.646082 C519.164115,715.743277 523.33268,716.271335 527.381286,717.215226 C528.724824,717.528854 529.561536,718.875552 529.248643,720.22225 C528.980736,721.379569 527.953089,722.161135 526.816481,722.161135 Z M734.054148,724.856535 C732.882552,724.856535 731.837911,724.027875 731.604991,722.831478 C730.859248,719.008819 729.879585,715.190169 728.690994,711.482741 C728.26914,710.165101 728.991891,708.754274 730.305439,708.331427 C731.618987,707.909582 733.027502,708.633031 733.449357,709.950671 C734.697927,713.844472 735.727572,717.855509 736.510303,721.870553 C736.775212,723.229275 735.891516,724.544911 734.536982,724.810443 C734.375038,724.841505 734.214093,724.856535 734.054148,724.856535 Z M491.500636,724.949722 C490.514976,724.949722 489.580297,724.361543 489.185433,723.389596 C488.664613,722.108028 489.278401,720.646099 490.556961,720.124053 C494.413634,718.5499 498.447245,717.371539 502.546834,716.622037 C503.906366,716.370533 505.205919,717.275346 505.453834,718.636072 C505.701748,719.997801 504.801058,721.302414 503.443526,721.550912 C499.68182,722.238289 495.981094,723.319455 492.443312,724.76435 C492.133419,724.890603 491.814528,724.949722 491.500636,724.949722 Z M773.769478,732.326501 C773.523563,732.326501 773.274649,732.290429 773.027734,732.213274 C769.383988,731.079002 765.604289,730.318478 761.791601,729.953747 C760.417074,729.822484 759.410421,728.599033 759.541376,727.221273 C759.672331,725.844514 760.89291,724.832487 762.267437,724.965754 C766.421008,725.363551 770.53959,726.192211 774.510223,727.428688 C775.82777,727.839511 776.564516,729.243324 776.155657,730.56397 C775.822771,731.638122 774.835111,732.326501 773.769478,732.326501 Z M738.345671,732.557965 C737.293034,732.557965 736.313371,731.885618 735.969489,730.826496 C735.543636,729.51086 736.261389,728.098029 737.573937,727.670172 C741.535573,726.379586 745.644159,725.496818 749.784734,725.045914 C751.152263,724.896615 752.389837,725.891609 752.538786,727.266363 C752.687735,728.642119 751.696076,729.877595 750.323548,730.026894 C746.523856,730.439721 742.754154,731.250345 739.119405,732.434718 C738.862493,732.517884 738.601583,732.557965 738.345671,732.557965 Z M958.411923,737.981831 C957.322298,737.981831 956.332639,737.27241 956.012749,736.178218 C954.933121,732.469788 953.543599,728.815467 951.904163,725.316456 C951.314366,724.064949 951.844184,722.57296 953.093754,721.981775 C954.343324,721.390591 955.832811,721.928669 956.422608,723.179174 C958.182003,726.913656 959.651497,730.814472 960.811098,734.773403 C961.200963,736.102065 960.431228,737.492852 959.111683,737.880628 C958.881762,737.948765 958.641844,737.981831 958.411923,737.981831 Z M808.935374,743.209304 C808.758435,743.209304 808.580496,743.191268 808.401558,743.15219 C807.053022,742.8576 806.197316,741.523928 806.490216,740.17222 C807.365914,736.135131 808.566501,732.137121 810.058987,728.289413 C810.558815,726.999829 812.005317,726.360548 813.293874,726.862554 C814.580431,727.363558 815.218211,728.815467 814.717384,730.10505 C813.319865,733.709271 812.195252,737.454775 811.374534,741.236352 C811.120622,742.409702 810.084978,743.209304 808.935374,743.209304 Z M794.588312,743.928746 C794.008512,743.928746 793.427712,743.728344 792.954875,743.319525 C790.058871,740.8115 786.897959,738.596062 783.560108,736.734332 C782.354523,736.061985 781.920673,734.536929 782.591442,733.328508 C783.262211,732.119085 784.784687,731.683212 785.990272,732.356561 C789.62602,734.384624 793.067836,736.796456 796.22275,739.527929 C797.26739,740.432742 797.382351,742.014911 796.480661,743.061007 C795.985831,743.635158 795.289071,743.928746 794.588312,743.928746 Z M807.170981,759.226394 C806.291284,759.226394 805.455572,758.758457 805.002728,757.965869 C803.758156,755.787505 802.35264,753.671265 800.825166,751.676268 C799.984455,750.57907 800.191384,749.00692 801.286007,748.164232 C802.38063,747.321543 803.95009,747.528959 804.790801,748.626157 C805.236647,749.210327 805.674496,749.803516 806.101349,750.40472 C806.501212,750.184279 806.962053,750.069048 807.451885,750.10011 C808.83041,750.181273 809.881048,751.366648 809.800076,752.747414 C809.722103,754.06806 809.679118,755.41075 809.670121,756.737408 C809.663123,757.869676 808.898387,758.856654 807.805763,759.14423 C807.594835,759.19934 807.381909,759.226394 807.170981,759.226394 Z M961.470871,761.728407 C961.450877,761.728407 961.430884,761.727405 961.410891,761.727405 C960.031366,761.692335 958.941741,760.54203 958.971731,759.15926 C958.991724,758.511963 959.00172,757.862662 959.00172,757.212359 C959.00172,753.982889 958.791793,750.732377 958.381934,747.548999 C958.201996,746.177251 959.171662,744.921735 960.541191,744.745382 C961.910719,744.563017 963.160289,745.53797 963.340227,746.909718 C963.780076,750.303518 964,753.769461 964,757.212359 C964,757.905748 963.990003,758.598136 963.97001,759.287517 C963.940021,760.648243 962.820406,761.728407 961.470871,761.728407 Z M959.781452,776 C959.601514,776 959.431572,775.981964 959.251634,775.943888 C957.902099,775.652303 957.042395,774.318631 957.332295,772.966923 C957.49224,772.220428 957.642188,771.471928 957.78214,770.718418 C958.032054,769.357692 959.341603,768.458892 960.691139,768.707389 C962.050671,768.956889 962.950361,770.262505 962.700447,771.623231 C962.550499,772.426841 962.390554,773.226443 962.220612,774.023039 C961.970698,775.197392 960.931056,776 959.781452,776 L959.781452,776 Z" id="Fill-7" fill="#1A1919"></path>
        <path d="M129.938582,633.036494 C128.714814,633.036494 127.644268,632.137174 127.464008,630.88795 C127.265722,629.518416 128.215093,628.247135 129.58407,628.049626 C133.617895,627.465117 137.740848,627.112207 141.836763,627.00092 C143.214753,626.963824 144.36942,628.053636 144.408476,629.438209 C144.44553,630.821779 143.355956,631.973752 141.973961,632.01185 C138.070324,632.118124 134.143654,632.453991 130.300104,633.010427 C130.178929,633.028474 130.057754,633.036494 129.938582,633.036494 Z M165.787348,634.132322 C165.618103,634.132322 165.446856,634.115278 165.274607,634.079185 C161.471115,633.286139 157.572485,632.710653 153.686875,632.366766 C152.308885,632.24445 151.291415,631.028312 151.41259,629.649755 C151.534767,628.270195 152.751524,627.254574 154.126509,627.372879 C158.206401,627.733811 162.300312,628.338371 166.295081,629.170518 C167.649036,629.453248 168.518291,630.780673 168.235884,632.135168 C167.990529,633.319224 166.949025,634.132322 165.787348,634.132322 Z M106.783145,639.236493 C105.787707,639.236493 104.847349,638.638951 104.455784,637.657419 C103.944045,636.371099 104.57095,634.913337 105.854804,634.401015 C109.654291,632.886106 113.582964,631.58174 117.533669,630.525013 C118.872602,630.16709 120.24258,630.963144 120.598094,632.299593 C120.95561,633.637044 120.162465,635.010588 118.826535,635.367509 C115.066105,636.374107 111.324703,637.61531 107.708481,639.058033 C107.404041,639.179346 107.090589,639.236493 106.783145,639.236493 Z M188.530189,641.759003 C188.171671,641.759003 187.808146,641.680801 187.462647,641.518382 C183.93956,639.853084 180.280276,638.380284 176.588946,637.143091 C175.278053,636.703958 174.571032,635.283292 175.010666,633.970906 C175.4493,632.657516 176.868349,631.947685 178.179242,632.389826 C182.056841,633.690181 185.89939,635.236171 189.600735,636.984683 C190.85054,637.576209 191.386313,639.070064 190.79546,640.321293 C190.368844,641.227631 189.468544,641.759003 188.530189,641.759003 Z M85.7157228,650.663982 C84.9285862,650.663982 84.1544683,650.294027 83.6667641,649.601239 C82.8706144,648.469318 83.1410049,646.905283 84.2716375,646.108226 C87.617469,643.749138 91.1325448,641.566506 94.7217277,639.619482 C95.9374833,638.959779 97.456677,639.411946 98.1156285,640.630089 C98.7745801,641.846228 98.3219264,643.368155 97.1071723,644.027857 C93.6892367,645.880638 90.3414024,647.960004 87.1548009,650.206802 C86.7171689,650.515599 86.2134415,650.663982 85.7157228,650.663982 Z M208.870561,654.476821 C208.320767,654.476821 207.76897,654.296355 207.307303,653.9264 C204.26491,651.488108 201.049267,649.205217 197.747499,647.140891 C196.574806,646.406997 196.218291,644.861007 196.951349,643.686978 C197.684408,642.513951 199.228638,642.156027 200.401331,642.889921 C203.866335,645.056512 207.243211,647.453698 210.436823,650.013303 C211.51538,650.878535 211.690633,652.455605 210.826385,653.536394 C210.331671,654.15499 209.604621,654.476821 208.870561,654.476821 Z M67.8489228,666.671288 C67.2590711,666.671288 66.6672164,666.464755 66.1905281,666.042666 C65.1560342,665.125299 65.058894,663.541211 65.9752172,662.503534 C68.6851303,659.437622 71.6033443,656.500042 74.646739,653.772002 C75.677227,652.847617 77.2605133,652.935844 78.1828452,653.968509 C79.1051771,655.000171 79.0170498,656.584259 77.9865618,657.507642 C75.0863738,660.105345 72.3063594,662.904568 69.7256328,665.826107 C69.2309185,666.385551 68.5419235,666.671288 67.8489228,666.671288 Z M225.721894,671.552885 C224.976819,671.552885 224.239754,671.222032 223.746041,670.588396 C221.351584,667.517472 218.749827,664.553824 216.011873,661.778663 C215.04047,660.794122 215.050485,659.207027 216.033905,658.234517 C217.018326,657.262008 218.602614,657.272034 219.575018,658.256574 C222.448167,661.16909 225.179111,664.280118 227.693742,667.503436 C228.54397,668.595253 228.350691,670.170318 227.260116,671.022517 C226.802455,671.379438 226.259671,671.552885 225.721894,671.552885 Z M54.1551487,686.382152 C53.7565732,686.382152 53.3529904,686.286906 52.9774481,686.086389 C51.7576868,685.433705 51.298023,683.914785 51.948963,682.694636 C53.8757453,679.085323 56.0378674,675.5502 58.3742412,672.187523 C59.1633807,671.050589 60.7236338,670.769865 61.8592737,671.560906 C62.9939121,672.351947 63.274317,673.913978 62.484176,675.049909 C60.2589628,678.253175 58.1999896,681.61886 56.3653403,685.056732 C55.9146896,685.901913 55.0494401,686.382152 54.1551487,686.382152 Z M238.165864,692.056795 C237.215491,692.056795 236.308181,691.513393 235.887574,690.592016 C234.270238,687.05188 232.425575,683.56789 230.403655,680.236293 C229.684617,679.05324 230.06116,677.511261 231.241865,676.792406 C232.425575,676.074553 233.963796,676.449521 234.681833,677.632574 C236.8059,681.131603 238.742697,684.790044 240.441149,688.507637 C241.015979,689.766886 240.463181,691.253723 239.205365,691.829208 C238.867878,691.983607 238.513366,692.056795 238.165864,692.056795 Z M45.4185329,708.746864 C45.2092307,708.746864 44.9969241,708.719794 44.7846175,708.664652 C43.447687,708.315751 42.6455286,706.946217 42.9940319,705.606761 C44.0265228,701.644536 45.3053695,697.700359 46.7965227,693.885514 C47.3002501,692.596187 48.7543499,691.958542 50.0402067,692.463846 C51.3280664,692.968147 51.9629832,694.421898 51.4602573,695.712228 C50.0402067,699.344601 48.8224482,703.09929 47.8390281,706.872026 C47.5456044,707.998934 46.5301381,708.746864 45.4185329,708.746864 Z M37.8846538,712.2098 C37.696382,712.2098 37.5061072,712.188746 37.3158324,712.143629 C33.5934573,711.276391 29.7599216,710.792142 25.9223801,710.702911 C24.5403844,710.669826 23.4448024,709.521864 23.4778501,708.138293 C23.5098964,706.753721 24.6665667,705.675939 26.0385478,705.690978 C30.2185839,705.788229 34.3946141,706.316593 38.4494694,707.26103 C39.7964144,707.574839 40.6336234,708.922317 40.3211722,710.270796 C40.0517832,711.427782 39.0232981,712.2098 37.8846538,712.2098 Z M245.493445,714.907762 C244.320752,714.907762 243.272238,714.076617 243.038901,712.881533 C242.292823,709.055661 241.310405,705.234801 240.119685,701.525229 C239.697075,700.206826 240.422122,698.795184 241.738022,698.372092 C243.054924,697.950003 244.46496,698.673871 244.88757,699.992273 C246.138376,703.888326 247.168864,707.901683 247.952997,711.920052 C248.21838,713.278558 247.333102,714.594955 245.976142,714.86064 C245.813908,714.891721 245.652675,714.907762 245.493445,714.907762 Z M2.50556573,715 C1.51713842,715 0.581787756,714.411481 0.185215098,713.438972 C-0.335536878,712.156663 0.279351032,710.693888 1.55919916,710.17154 C5.42277824,708.596476 9.46461473,707.417433 13.5715452,706.667498 C14.9305076,706.417854 16.2353919,707.321185 16.4837505,708.683701 C16.7311077,710.045214 15.8298062,711.350583 14.4698424,711.599224 C10.7014007,712.286999 6.99304574,713.368791 3.44892796,714.814521 C3.13948112,714.940847 2.82001981,715 2.50556573,715 L2.50556573,715 Z" id="Fill-8" fill="#1A1919"></path>
        <path d="M129.938582,690.037002 C128.714814,690.037002 127.644268,689.136684 127.464008,687.888471 C127.265722,686.518946 128.215093,685.247673 129.58407,685.049162 C133.617895,684.46566 137.740848,684.112751 141.836763,684.000462 C143.214753,683.974395 144.36942,685.054175 144.408476,686.437736 C144.44553,687.821298 143.355956,688.974266 141.973961,689.011362 C138.070324,689.118638 134.143654,689.454503 130.300104,690.010935 C130.178929,690.027979 130.057754,690.037002 129.938582,690.037002 Z M165.787348,691.13182 C165.618103,691.13182 165.446856,691.114777 165.274607,691.078684 C161.471115,690.286645 157.572485,689.710161 153.686875,689.366275 C152.308885,689.244963 151.291415,688.02783 151.41259,686.649281 C151.534767,685.270732 152.751524,684.246094 154.126509,684.373422 C158.206401,684.734351 162.300312,685.338908 166.295081,686.17105 C167.649036,686.453778 168.518291,687.780192 168.235884,689.135682 C167.990529,690.318727 166.949025,691.13182 165.787348,691.13182 Z M106.783145,696.23596 C105.787707,696.23596 104.847349,695.638422 104.455784,694.656895 C103.944045,693.371586 104.57095,691.912831 105.854804,691.401515 C109.654291,689.885612 113.582964,688.582257 117.533669,687.525537 C118.872602,687.166613 120.24258,687.962662 120.598094,689.299102 C120.95561,690.636545 120.162465,692.010081 118.826535,692.368003 C115.066105,693.373591 111.324703,694.615789 107.708481,696.057501 C107.404041,696.178813 107.090589,696.23596 106.783145,696.23596 Z M188.530189,698.758454 C188.171671,698.758454 187.808146,698.681255 187.462647,698.517834 C183.93956,696.852547 180.280276,695.380759 176.588946,694.143574 C175.278053,693.703441 174.571032,692.282783 175.010666,690.970405 C175.4493,689.658026 176.868349,688.949202 178.179242,689.389335 C182.056841,690.689682 185.89939,692.235662 189.600735,693.985166 C190.85054,694.575686 191.386313,696.069532 190.79546,697.321755 C190.368844,698.228088 189.468544,698.758454 188.530189,698.758454 Z M85.7157228,707.66438 C84.9285862,707.66438 84.1544683,707.294428 83.6667641,706.600642 C82.8706144,705.469731 83.1410049,703.905704 84.2716375,703.108653 C87.617469,700.74958 91.1325448,698.566961 94.7217277,696.619949 C95.9374833,695.961253 97.456677,696.412414 98.1156285,697.629548 C98.7745801,698.846681 98.3219264,700.368599 97.1071723,701.027294 C93.6892367,702.881067 90.3414024,704.96042 87.1548009,707.207203 C86.7171689,707.515998 86.2134415,707.66438 85.7157228,707.66438 Z M208.870561,711.476193 C208.320767,711.476193 207.76897,711.296731 207.307303,710.926779 C204.26491,708.488502 201.049267,706.204622 197.747499,704.140308 C196.574806,703.407422 196.218291,701.860439 196.951349,700.686417 C197.684408,699.513397 199.228638,699.156478 200.401331,699.889365 C203.866335,702.056945 207.243211,704.453114 210.436823,707.012703 C211.51538,707.87793 211.690633,709.455993 210.826385,710.536775 C210.331671,711.154365 209.604621,711.476193 208.870561,711.476193 Z M67.8489228,723.671588 C67.2590711,723.671588 66.6672164,723.464054 66.1905281,723.041967 C65.1560342,722.124605 65.058894,720.540528 65.9752172,719.503859 C68.6851303,716.436964 71.6033443,713.499401 74.646739,710.772381 C75.677227,709.846999 77.2605133,709.936229 78.1828452,710.967885 C79.1051771,711.99954 79.0170498,713.583618 77.9865618,714.506995 C75.0863738,717.105685 72.3063594,719.903889 69.7256328,722.82541 C69.2309185,723.385852 68.5419235,723.671588 67.8489228,723.671588 Z M225.721894,728.552152 C224.976819,728.552152 224.239754,728.2213 223.746041,727.588672 C221.351584,724.517766 218.749827,721.553134 216.011873,718.778993 C215.04047,717.793456 215.050485,716.20637 216.033905,715.233867 C217.018326,714.262366 218.602614,714.271389 219.575018,715.255923 C222.448167,718.168421 225.179111,721.280432 227.693742,724.50373 C228.54397,725.594538 228.350691,727.169593 227.260116,728.021787 C226.802455,728.379708 226.259671,728.552152 225.721894,728.552152 Z M54.1551487,743.382329 C53.7565732,743.382329 53.3529904,743.287084 52.9774481,743.085565 C51.7576868,742.433888 51.298023,740.914978 51.948963,739.693834 C53.8757453,736.084543 56.0378674,732.549442 58.3742412,729.186786 C59.1633807,728.050861 60.7236338,727.769136 61.8592737,728.561175 C62.9939121,729.351209 63.274317,730.91323 62.484176,732.050157 C60.2589628,735.2524 58.1999896,738.619067 56.3653403,742.056917 C55.9146896,742.90109 55.0494401,743.382329 54.1551487,743.382329 Z M238.165864,749.056938 C237.215491,749.056938 236.308181,748.513539 235.887574,747.592167 C234.270238,744.051051 232.425575,740.567082 230.403655,737.236508 C229.684617,736.053463 230.06116,734.511493 231.241865,733.792643 C232.425575,733.074795 233.963796,733.44976 234.681833,734.632805 C236.8059,738.13081 238.742697,741.790231 240.441149,745.507801 C241.015979,746.76604 240.463181,748.25387 239.205365,748.829352 C238.867878,748.983749 238.513366,749.056938 238.165864,749.056938 Z M45.4185329,765.7459 C45.2092307,765.7459 44.9969241,765.719833 44.7846175,765.663688 C43.447687,765.31479 42.6455286,763.946267 42.9940319,762.606819 C44.0265228,758.644619 45.3053695,754.700466 46.7965227,750.884643 C47.3002501,749.595323 48.7543499,748.958685 50.0402067,749.463985 C51.3280664,749.968284 51.9629832,751.422026 51.4602573,752.711345 C50.0402067,756.343696 48.8224482,760.098362 47.8390281,763.871074 C47.5456044,764.998977 46.5301381,765.7459 45.4185329,765.7459 Z M37.8846538,769.208815 C37.696382,769.208815 37.5061072,769.18776 37.3158324,769.143647 C33.5934573,768.276414 29.7599216,767.792168 25.9223801,767.701935 C24.5403844,767.669853 23.4448024,766.520895 23.4778501,765.138336 C23.5098964,763.753772 24.6665667,762.642912 26.0385478,762.690033 C30.2185839,762.788286 34.3946141,763.316646 38.4494694,764.261078 C39.7964144,764.574885 40.6336234,765.921352 40.3211722,767.269823 C40.0517832,768.426801 39.0232981,769.208815 37.8846538,769.208815 Z M245.493445,771.90676 C244.320752,771.90676 243.272238,771.076623 243.038901,769.880544 C242.292823,766.054695 241.310405,762.234862 240.119685,758.524309 C239.697075,757.206918 240.422122,755.795284 241.738022,755.371192 C243.054924,754.949106 244.46496,755.673972 244.88757,756.991363 C246.138376,760.887393 247.168864,764.900724 247.952997,768.919069 C248.21838,770.278569 247.333102,771.594957 245.976142,771.859639 C245.813908,771.891721 245.652675,771.90676 245.493445,771.90676 Z M2.50556573,772 C1.51713842,772 0.581787756,771.410482 0.185215098,770.438981 C-0.335536878,769.15668 0.279351032,767.693915 1.55919916,767.17157 C5.42277824,765.596515 9.46461473,764.416478 13.5715452,763.666547 C14.9305076,763.415902 16.2353919,764.321232 16.4837505,765.682737 C16.7311077,767.044242 15.8298062,768.350605 14.4698424,768.598243 C10.7014007,769.286013 6.99304574,770.367798 3.44892796,771.814523 C3.13948112,771.939845 2.82001981,772 2.50556573,772 L2.50556573,772 Z" id="Fill-9" fill="#1A1919"></path>
        <path d="M440.5,496 C439.119,496 438,494.881 438,493.5 L438,487.5 C438,486.12 439.119,485 440.5,485 C441.88,485 443,486.12 443,487.5 L443,493.5 C443,494.881 441.88,496 440.5,496" id="Fill-10" fill="#1A1919"></path>
        <path d="M440.5,521.661706 C439.119,521.661706 438,520.543927 438,519.164434 L438,506.497272 C438,505.117779 439.119,504 440.5,504 C441.88,504 443,505.117779 443,506.497272 L443,519.164434 C443,520.543927 441.88,521.661706 440.5,521.661706 Z M440.5,546.99603 C439.119,546.99603 438,545.878251 438,544.498758 L438,531.831596 C438,530.452103 439.119,529.334324 440.5,529.334324 C441.88,529.334324 443,530.452103 443,531.831596 L443,544.498758 C443,545.878251 441.88,546.99603 440.5,546.99603 Z M440.5,572.330353 C439.119,572.330353 438,571.212574 438,569.833082 L438,557.16592 C438,555.786427 439.119,554.668648 440.5,554.668648 C441.88,554.668648 443,555.786427 443,557.16592 L443,569.833082 C443,571.212574 441.88,572.330353 440.5,572.330353 Z M440.5,597.664677 C439.119,597.664677 438,596.546898 438,595.167405 L438,582.500243 C438,581.12075 439.119,580.002972 440.5,580.002972 C441.88,580.002972 443,581.12075 443,582.500243 L443,595.167405 C443,596.546898 441.88,597.664677 440.5,597.664677 Z M440.5,623 C439.119,623 438,621.881222 438,620.502728 L438,607.834567 C438,606.456073 439.119,605.337295 440.5,605.337295 C441.88,605.337295 443,606.456073 443,607.834567 L443,620.502728 C443,621.881222 441.88,623 440.5,623 L440.5,623 Z" id="Fill-11" fill="#1A1919"></path>
        <path d="M440.5,642 C439.119,642 438,640.881 438,639.5 L438,633.5 C438,632.119 439.119,631 440.5,631 C441.88,631 443,632.119 443,633.5 L443,639.5 C443,640.881 441.88,642 440.5,642" id="Fill-12" fill="#1A1919"></path>
        <path d="M415.5,459 L415.5,565" id="Fill-13" fill="#FFFFFE"></path>
        <path d="M415.5,568 C414.119,568 413,566.884972 413,565.511099 L413,459.488901 C413,458.114032 414.119,457 415.5,457 C416.881,457 418,458.114032 418,459.488901 L418,565.511099 C418,566.884972 416.881,568 415.5,568" id="Fill-14" fill="#1A1919"></path>
        <path d="M454.5,664 C453.119,664 452,662.880946 452,661.49988 L452,520.50012 C452,519.119054 453.119,518 454.5,518 C455.881,518 457,519.119054 457,520.50012 L457,661.49988 C457,662.880946 455.881,664 454.5,664" id="Fill-15" fill="#1A1919"></path>
        <path d="M413.49271,605.95805 C413.386927,605.95805 413.280146,605.95105 413.174363,605.937052 C411.807168,605.762072 410.840152,604.511214 411.013796,603.141369 C411.502793,599.299804 411.839103,595.345252 412.012747,591.3887 C412.073622,590.009857 413.24422,588.947977 414.614409,589.001971 C415.991583,589.061964 417.058394,590.229832 416.997519,591.608676 C416.817888,595.702212 416.4706,599.795748 415.96364,603.773297 C415.80297,605.036154 414.730171,605.95805 413.49271,605.95805 Z M338.376829,611.990366 C337.260121,611.990366 336.243207,611.234452 335.958791,610.09958 C335.623479,608.760732 336.434814,607.402886 337.770074,607.065924 C341.906587,606.024042 346.294584,605.742074 350.54686,606.236018 C351.91605,606.395 352.897038,607.63486 352.738363,609.006704 C352.579689,610.378549 351.346219,611.355438 349.973037,611.202455 C346.317537,610.778503 342.541285,611.020476 338.986578,611.915375 C338.782996,611.966369 338.577418,611.990366 338.376829,611.990366 Z M371.029833,622.060225 C370.342244,622.060225 369.658647,621.777257 369.16466,621.22232 C366.691734,618.439635 363.771725,616.156894 360.485468,614.439089 C359.263974,613.799161 358.790945,612.290332 359.428636,611.066471 C360.066328,609.84161 361.573236,609.368663 362.79473,610.006591 C366.618884,612.006364 370.015914,614.661064 372.892013,617.897697 C373.808133,618.92858 373.716321,620.509401 372.687432,621.427297 C372.212407,621.851249 371.619623,622.060225 371.029833,622.060225 Z M319.184208,625.444842 C318.701199,625.444842 318.212202,625.304857 317.783083,625.010891 C316.643421,624.234979 316.349025,622.679155 317.124434,621.538284 C319.55345,617.962689 322.58024,614.889038 326.11898,612.405319 C327.246666,611.614409 328.803472,611.887378 329.59385,613.01825 C330.384228,614.149122 330.110789,615.706945 328.982105,616.499855 C325.939348,618.635613 323.337686,621.277314 321.248972,624.351965 C320.765963,625.062885 319.981572,625.444842 319.184208,625.444842 Z M408.275415,629.3444 C408.013951,629.3444 407.747498,629.303404 407.486034,629.215414 C406.178717,628.779464 405.472166,627.363624 405.908271,626.053773 C407.103819,622.45818 408.147677,618.652611 409.011904,614.743054 C409.309293,613.395207 410.64156,612.543303 411.9868,612.84227 C413.33204,613.140236 414.181297,614.475085 413.882909,615.822932 C412.982756,619.90147 411.891994,623.87502 410.64156,627.634594 C410.293275,628.682475 409.319273,629.3444 408.275415,629.3444 Z M379.356749,643.99274 C377.978576,643.99274 376.861868,642.873867 376.861868,641.493023 C376.861868,637.754447 376.195235,634.10586 374.880932,630.645252 C374.390937,629.355399 375.037611,627.911562 376.324969,627.420618 C377.61133,626.928674 379.054369,627.5766 379.544364,628.867454 C381.075223,632.896997 381.85163,637.144516 381.85163,641.493023 C381.85163,642.873867 380.734921,643.99274 379.356749,643.99274 Z M313.767322,648.272255 C312.531857,648.272255 311.460056,647.354359 311.296392,646.094502 C311.099795,644.582673 311,643.034849 311,641.493023 C311,638.719338 311.320343,635.95765 311.953045,633.282954 C312.271391,631.940106 313.61264,631.1092 314.955883,631.426164 C316.296134,631.745128 317.125432,633.091975 316.808083,634.434823 C316.265197,636.732563 315.989762,639.107294 315.989762,641.493023 C315.989762,642.818873 316.075586,644.150722 316.24424,645.449575 C316.421876,646.81842 315.457854,648.072278 314.091657,648.251257 C313.98288,648.265256 313.874103,648.272255 313.767322,648.272255 Z M397.883736,650.883959 C397.400727,650.883959 396.913726,650.743975 396.484607,650.452008 C395.343947,649.676096 395.047555,648.122272 395.821966,646.980401 C397.912676,643.895751 399.844712,640.503135 401.564184,636.896544 C402.157966,635.650685 403.646911,635.122745 404.891358,635.718678 C406.134807,636.31461 406.660728,637.806441 406.066946,639.0523 C404.238697,642.883866 402.180919,646.496456 399.950495,649.788083 C399.467486,650.501003 398.683096,650.883959 397.883736,650.883959 Z M381.107157,667.758047 C380.294824,667.758047 379.498458,667.361092 379.019441,666.630175 C378.262993,665.477306 378.582338,663.927481 379.733975,663.168567 C382.859562,661.1108 385.824478,658.666077 388.547891,655.902391 C389.515905,654.919502 391.095663,654.909503 392.075653,655.879393 C393.05664,656.849283 393.066619,658.432104 392.098606,659.414993 C389.129697,662.427651 385.892339,665.096349 382.474352,667.347094 C382.052218,667.625062 381.577193,667.758047 381.107157,667.758047 Z M324.991293,668.852923 C324.419467,668.852923 323.844646,668.656945 323.375608,668.255991 C320.0654,665.433311 317.339992,662.08769 315.27423,658.313117 C314.61159,657.103254 315.054681,655.583427 316.263201,654.919502 C317.47272,654.255577 318.987611,654.700527 319.650252,655.91039 C321.422615,659.149023 323.763812,662.022697 326.609972,664.449422 C327.65882,665.344321 327.78556,666.922142 326.892393,667.973023 C326.398406,668.553957 325.696846,668.852923 324.991293,668.852923 Z M358.919681,676.212089 C357.712158,676.212089 356.650337,675.332189 356.457732,674.099329 C356.24417,672.735483 357.174262,671.456628 358.536467,671.242652 C362.384571,670.637721 366.102942,669.662831 369.587792,668.343981 C370.877147,667.856036 372.317192,668.508962 372.803195,669.799816 C373.290196,671.091669 372.639531,672.533506 371.350176,673.021451 C367.545981,674.460288 363.495293,675.523167 359.308882,676.181093 C359.17815,676.20209 359.047418,676.212089 358.919681,676.212089 Z M347.004128,677 C346.989159,677 346.97419,677 346.958223,676.999 L346.363443,676.986002 C342.251879,676.882013 338.233124,676.1161 334.41895,674.711259 C333.126602,674.235313 332.463961,672.798476 332.938987,671.502623 C333.414012,670.20677 334.846074,669.539845 336.141416,670.019791 C339.442643,671.234653 342.924499,671.897578 346.490183,671.988568 L347.04704,672.000566 C348.425213,672.024564 349.521962,673.164435 349.497014,674.544278 C349.473063,675.909124 348.361344,677 347.004128,677 L347.004128,677 Z" id="Fill-16" fill="#1A1919"></path>
        <path d="M352.5,711.909269 C347.763365,711.909269 343.909448,715.763046 343.909448,720.500491 C343.909448,725.236954 347.763365,729.090731 352.5,729.090731 C357.236635,729.090731 361.090552,725.236954 361.090552,720.500491 C361.090552,715.763046 357.236635,711.909269 352.5,711.909269 Z M352.5,734 C345.056295,734 339,727.943925 339,720.500491 C339,713.056075 345.056295,707 352.5,707 C359.943705,707 366,713.056075 366,720.500491 C366,727.943925 359.943705,734 352.5,734 L352.5,734 Z" id="Fill-17" fill="#FFFEFD"></path>
        <path d="M247,540.000489 C247,546.074714 242.075473,551 236,551 C229.924527,551 225,546.074714 225,540.000489 C225,533.925286 229.924527,529 236,529 C242.075473,529 247,533.925286 247,540.000489" id="Fill-18" fill="#FFD400"></path>
        <path d="M479.491515,562.960037 C478.116199,562.960037 477,561.843667 477,560.465914 L477,548.494123 C477,547.116369 478.116199,546 479.491515,546 C480.867827,546 481.983029,547.116369 481.983029,548.494123 L481.983029,560.465914 C481.983029,561.843667 480.867827,562.960037 479.491515,562.960037 Z M555.66011,568.136838 C555.458796,568.136838 555.254492,568.111897 555.051184,568.061017 C551.501274,567.168121 547.73211,566.92669 544.07955,567.349693 C542.71121,567.505327 541.476415,566.526633 541.317955,565.158856 C541.159495,563.791078 542.139158,562.552996 543.506501,562.39437 C547.752043,561.902529 552.135115,562.183866 556.266047,563.222418 C557.599505,563.558626 558.409746,564.913434 558.074886,566.250284 C557.790854,567.381618 556.775312,568.136838 555.66011,568.136838 Z M523.051165,578.183166 C522.462171,578.183166 521.870187,577.974657 521.395803,577.551654 C520.368302,576.635812 520.276615,575.059526 521.191499,574.029952 C524.063717,570.80156 527.456163,568.151803 531.275157,566.156505 C532.495999,565.520005 534.000874,565.99289 534.636709,567.214013 C535.27354,568.435136 534.801149,569.941586 533.581303,570.579084 C530.29948,572.294043 527.383411,574.570678 524.913822,577.348134 C524.420502,577.900831 523.737827,578.183166 523.051165,578.183166 Z M574.826835,581.560209 C574.02955,581.560209 573.247215,581.179107 572.764857,580.469778 C570.678961,577.402007 568.08081,574.766218 565.042158,572.635239 C563.914997,571.844103 563.641927,570.288768 564.431239,569.161424 C565.220551,568.033083 566.775256,567.758729 567.901421,568.549865 C571.435385,571.029024 574.457094,574.0948 576.88383,577.662393 C577.658192,578.801709 577.364194,580.353053 576.22607,581.128227 C575.797529,581.420538 575.309192,581.560209 574.826835,581.560209 Z M484.673865,586.253151 C483.6653,586.253151 482.717528,585.637601 482.341808,584.637957 C480.904702,580.818955 479.668911,576.879239 478.668318,572.928548 C478.329472,571.593693 479.136723,570.23689 480.471178,569.897689 C481.802644,569.560484 483.160021,570.367582 483.49787,571.702437 C484.453616,575.473551 485.633597,579.233691 487.00393,582.880099 C487.489277,584.169061 486.838493,585.607672 485.550879,586.092529 C485.261863,586.202271 484.964874,586.253151 484.673865,586.253151 Z M514.735486,600.066602 C513.359173,600.066602 512.243971,598.950232 512.243971,597.572479 C512.243971,593.233702 513.01933,588.995688 514.548124,584.975162 C515.038454,583.688194 516.476556,583.041718 517.763174,583.531564 C519.048796,584.021409 519.694597,585.462015 519.205263,586.748982 C517.892733,590.201846 517.227,593.843266 517.227,597.572479 C517.227,598.950232 516.111798,600.066602 514.735486,600.066602 Z M580.236412,604.33654 C580.129775,604.33654 580.021145,604.329557 579.912515,604.31559 C578.547165,604.138008 577.58544,602.885958 577.762836,601.520177 C577.931262,600.22423 578.016971,598.896359 578.016971,597.572479 C578.016971,595.192088 577.741907,592.822671 577.199754,590.530073 C576.882833,589.19023 577.711012,587.846396 579.049454,587.529144 C580.390886,587.212889 581.731321,588.040938 582.048241,589.380781 C582.68009,592.049493 583,594.805997 583,597.572479 C583,599.110854 582.900339,600.655215 582.704008,602.164658 C582.540565,603.420698 581.47021,604.33654 580.236412,604.33654 Z M495.822896,607.39234 C495.050526,607.39234 494.290116,607.034184 493.802775,606.360771 C491.470718,603.135371 489.29712,599.601697 487.342776,595.858517 C486.704948,594.637395 487.176343,593.130944 488.396188,592.492449 C489.614041,591.854951 491.119912,592.325841 491.75774,593.546964 C493.602458,597.077645 495.64849,600.404805 497.840026,603.435663 C498.64628,604.552033 498.396132,606.111358 497.281927,606.919454 C496.84043,607.238702 496.329171,607.39234 495.822896,607.39234 Z M512.949568,623.89246 C512.490133,623.89246 512.024718,623.764761 511.608136,623.498389 C508.180809,621.300568 504.906958,618.69371 501.87927,615.751643 C500.89263,614.792902 500.869708,613.213623 501.828443,612.224953 C502.786181,611.236282 504.363808,611.213336 505.351445,612.173075 C508.138951,614.88269 511.148701,617.279044 514.295983,619.297288 C515.454039,620.040537 515.792885,621.582902 515.050413,622.743168 C514.575032,623.486417 513.770771,623.89246 512.949568,623.89246 Z M569.027585,624.871154 C568.322985,624.871154 567.622371,624.572857 567.130048,623.993223 C566.237089,622.944694 566.363658,621.371401 567.412087,620.478505 C570.253411,618.055215 572.591448,615.188969 574.36142,611.957583 C575.023166,610.74943 576.537011,610.306473 577.7439,610.968912 C578.95079,611.631351 579.393283,613.147778 578.731537,614.354934 C576.668563,618.12106 573.946832,621.459194 570.642087,624.275558 C570.173682,624.675615 569.59864,624.871154 569.027585,624.871154 Z M535.151954,632.216845 C535.025385,632.216845 534.895826,632.205871 534.765271,632.185918 C530.601452,631.535451 526.557225,630.484926 522.746204,629.064274 C521.456596,628.584405 520.799833,627.148787 521.280197,625.857829 C521.760561,624.567869 523.192683,623.90942 524.484285,624.390287 C527.982371,625.694215 531.700708,626.658942 535.533654,627.257531 C536.893025,627.47003 537.823855,628.746024 537.611578,630.106817 C537.419233,631.336919 536.358844,632.216845 535.151954,632.216845 Z M547.044452,633 C545.686079,633 544.574863,631.908572 544.554931,630.543788 C544.534002,629.166034 545.632262,628.032705 547.007578,628.011754 L547.559698,628.00078 C551.118577,627.909994 554.595735,627.248552 557.892508,626.035411 C559.184109,625.558534 560.616232,626.222969 561.090616,627.515922 C561.565,628.808876 560.903254,630.242498 559.611653,630.717379 C555.803622,632.119076 551.79029,632.882277 547.68527,632.987031 L547.08332,632.999002 C547.070364,633 547.057408,633 547.044452,633 L547.044452,633 Z" id="Fill-19" fill="#1A1919"></path>
        <path d="M552.5,582.909448 C547.763365,582.909448 543.909448,586.762383 543.909448,591.5 C543.909448,596.236635 547.763365,600.090552 552.5,600.090552 C557.236635,600.090552 561.090552,596.236635 561.090552,591.5 C561.090552,586.762383 557.236635,582.909448 552.5,582.909448 Z M552.5,605 C545.056295,605 539,598.943705 539,591.5 C539,584.056295 545.056295,578 552.5,578 C559.943705,578 566,584.056295 566,591.5 C566,598.943705 559.943705,605 552.5,605 L552.5,605 Z" id="Fill-20" fill="#1A1919"></path>
        <path d="M184.5,531.909269 C179.763365,531.909269 175.909448,535.763046 175.909448,540.500491 C175.909448,545.236954 179.763365,549.090731 184.5,549.090731 C189.236635,549.090731 193.090552,545.236954 193.090552,540.500491 C193.090552,535.763046 189.236635,531.909269 184.5,531.909269 Z M184.5,554 C177.056295,554 171,547.943925 171,540.500491 C171,533.056075 177.056295,527 184.5,527 C191.943705,527 198,533.056075 198,540.500491 C198,547.943925 191.943705,554 184.5,554 L184.5,554 Z" id="Fill-21" fill="#1A1919"></path>
        <path d="M771.5,641.909269 C766.762383,641.909269 762.909448,645.763046 762.909448,650.500491 C762.909448,655.236954 766.762383,659.090731 771.5,659.090731 C776.236635,659.090731 780.090552,655.236954 780.090552,650.500491 C780.090552,645.763046 776.236635,641.909269 771.5,641.909269 Z M771.5,664 C764.056295,664 758,657.943925 758,650.500491 C758,643.056075 764.056295,637 771.5,637 C778.943705,637 785,643.056075 785,650.500491 C785,657.943925 778.943705,664 771.5,664 L771.5,664 Z" id="Fill-22" fill="#1A1919"></path>
        <path d="M464.5,467.909448 C459.762383,467.909448 455.909448,471.763365 455.909448,476.5 C455.909448,481.237617 459.762383,485.090552 464.5,485.090552 C469.236635,485.090552 473.090552,481.237617 473.090552,476.5 C473.090552,471.763365 469.236635,467.909448 464.5,467.909448 Z M464.5,490 C457.055313,490 451,483.944687 451,476.5 C451,469.056295 457.055313,463 464.5,463 C471.943705,463 478,469.056295 478,476.5 C478,483.944687 471.943705,490 464.5,490 L464.5,490 Z" id="Fill-23" fill="#1A1919"></path>
        <path d="M303.99951,293.898359 C300.083922,293.898359 296.898159,297.084252 296.898159,301 C296.898159,304.915748 300.083922,308.101641 303.99951,308.101641 C307.916078,308.101641 311.101841,304.915748 311.101841,301 C311.101841,297.084252 307.916078,293.898359 303.99951,293.898359 Z M303.99951,313 C297.384056,313 292,307.616703 292,301 C292,294.383297 297.384056,289 303.99951,289 C310.616923,289 316,294.383297 316,301 C316,307.616703 310.616923,313 303.99951,313 L303.99951,313 Z" id="Fill-24" fill="#1A1919"></path>
        <path d="M661,205.500487 C661,210.746705 656.746705,215 651.499513,215 C646.253295,215 642,210.746705 642,205.500487 C642,200.253295 646.253295,196 651.499513,196 C656.746705,196 661,200.253295 661,205.500487" id="Fill-25" fill="#FFD400"></path>
        <path d="M178,584.500487 C178,589.746705 173.746705,594 168.499513,594 C163.253295,594 159,589.746705 159,584.500487 C159,579.253295 163.253295,575 168.499513,575 C173.746705,575 178,579.253295 178,584.500487" id="Fill-26" fill="#FFD400"></path>
        <path d="M616,540.500487 C616,545.746705 611.747461,550 606.5,550 C601.253513,550 597,545.746705 597,540.500487 C597,535.253295 601.253513,531 606.5,531 C611.747461,531 616,535.253295 616,540.500487" id="Fill-27" fill="#FFD400"></path>
        <path d="M736,608.5 C736,613.746487 731.746705,618 726.499513,618 C721.253295,618 717,613.746487 717,608.5 C717,603.252539 721.253295,599 726.499513,599 C731.746705,599 736,603.252539 736,608.5" id="Fill-28" fill="#FFD400"></path>
        <path d="M303.5,346 C302.12,346 301,344.881 301,343.5 L301,331.5 C301,330.119 302.12,329 303.5,329 C304.881,329 306,330.119 306,331.5 L306,343.5 C306,344.881 304.881,346 303.5,346 Z M303.5,370 C302.12,370 301,368.881 301,367.5 L301,355.5 C301,354.119 302.12,353 303.5,353 C304.881,353 306,354.119 306,355.5 L306,367.5 C306,368.881 304.881,370 303.5,370 Z M303.5,394 C302.12,394 301,392.881 301,391.5 L301,379.5 C301,378.119 302.12,377 303.5,377 C304.881,377 306,378.119 306,379.5 L306,391.5 C306,392.881 304.881,394 303.5,394 Z M303.5,418 C302.12,418 301,416.881 301,415.5 L301,403.5 C301,402.119 302.12,401 303.5,401 C304.881,401 306,402.119 306,403.5 L306,415.5 C306,416.881 304.881,418 303.5,418 Z M303.5,442 C302.12,442 301,440.881 301,439.5 L301,427.5 C301,426.119 302.12,425 303.5,425 C304.881,425 306,426.119 306,427.5 L306,439.5 C306,440.881 304.881,442 303.5,442 Z M303.5,466 C302.12,466 301,464.881 301,463.5 L301,451.5 C301,450.119 302.12,449 303.5,449 C304.881,449 306,450.119 306,451.5 L306,463.5 C306,464.881 304.881,466 303.5,466 Z M303.5,490 C302.12,490 301,488.881 301,487.5 L301,475.5 C301,474.119 302.12,473 303.5,473 C304.881,473 306,474.119 306,475.5 L306,487.5 C306,488.881 304.881,490 303.5,490 Z M303.5,514 C302.12,514 301,512.881 301,511.5 L301,499.5 C301,498.119 302.12,497 303.5,497 C304.881,497 306,498.119 306,499.5 L306,511.5 C306,512.881 304.881,514 303.5,514 Z M303.5,538 C302.12,538 301,536.881 301,535.5 L301,523.5 C301,522.119 302.12,521 303.5,521 C304.881,521 306,522.119 306,523.5 L306,535.5 C306,536.881 304.881,538 303.5,538 Z M303.5,562 C302.12,562 301,560.881 301,559.5 L301,547.5 C301,546.119 302.12,545 303.5,545 C304.881,545 306,546.119 306,547.5 L306,559.5 C306,560.881 304.881,562 303.5,562 Z M303.5,586 C302.12,586 301,584.881 301,583.5 L301,571.5 C301,570.119 302.12,569 303.5,569 C304.881,569 306,570.119 306,571.5 L306,583.5 C306,584.881 304.881,586 303.5,586 L303.5,586 Z" id="Fill-29" fill="#1A1919"></path>
        <path d="M651.5,631 C650.119,631 649,629.882004 649,628.502242 L649,242.497758 C649,241.117996 650.119,240 651.5,240 C652.881,240 654,241.117996 654,242.497758 L654,628.502242 C654,629.882004 652.881,631 651.5,631" id="Fill-30" fill="#1A1919"></path>
        <path d="M235.5,653 C234.119,653 233,651.885569 233,650.510208 L233,565.489792 C233,564.114431 234.119,563 235.5,563 C236.881,563 238,564.114431 238,565.489792 L238,650.510208 C238,651.885569 236.881,653 235.5,653" id="Fill-31" fill="#1A1919"></path>
        <path d="M519.5,488 C518.119,488 517,486.885568 517,485.510205 L517,399.489795 C517,398.114432 518.119,397 519.5,397 C520.881,397 522,398.114432 522,399.489795 L522,485.510205 C522,486.885568 520.881,488 519.5,488" id="Fill-32" fill="#1A1919"></path>
        <path d="M341.5,426 C340.119,426 339,424.880933 339,423.49985 L339,378.50015 C339,377.119067 340.119,376 341.5,376 C342.881,376 344,377.119067 344,378.50015 L344,423.49985 C344,424.880933 342.881,426 341.5,426" id="Fill-33" fill="#1A1919"></path>
        <path d="M529.5,501 C528.119,501 527,499.880933 527,498.49985 L527,453.50015 C527,452.119067 528.119,451 529.5,451 C530.881,451 532,452.119067 532,453.50015 L532,498.49985 C532,499.880933 530.881,501 529.5,501" id="Fill-34" fill="#1A1919"></path>
        <path d="M374.658571,678.642886 C373.436717,678.642886 372.368593,677.740373 372.190905,676.491278 C371.996247,675.121982 372.945579,673.853855 374.310183,673.658528 C378.393012,673.074548 382.626576,672.878219 386.722382,673.072545 C388.099963,673.136652 389.164094,674.308618 389.099208,675.689934 C389.034322,677.071251 387.852397,678.148056 386.489791,678.074934 C382.702443,677.897637 378.788317,678.077939 375.013946,678.616843 C374.894157,678.633871 374.776364,678.642886 374.658571,678.642886 Z M409.740953,683.693356 C409.393563,683.693356 409.041182,683.620233 408.704773,683.465975 C405.222889,681.868295 401.5723,680.60117 397.855828,679.70066 C396.516181,679.376116 395.692627,678.021845 396.016059,676.677591 C396.340489,675.334338 397.685128,674.509955 399.028768,674.831495 C403.054697,675.808132 407.008752,677.181435 410.780128,678.911337 C412.033926,679.486301 412.584958,680.971792 412.011964,682.229902 C411.592701,683.150446 410.687291,683.693356 409.740953,683.693356 Z M352.168072,686.454987 C351.305587,686.454987 350.468058,686.007236 350.00587,685.204891 C349.315083,684.007883 349.722368,682.475313 350.915273,681.783153 C354.505966,679.697655 358.311282,677.950726 362.223411,676.592448 C363.529118,676.14069 364.947627,676.832851 365.398834,678.139041 C365.849043,679.446234 365.159255,680.872626 363.856543,681.324383 C360.243888,682.579488 356.731058,684.192193 353.415881,686.117421 C353.021573,686.346806 352.591329,686.454987 352.168072,686.454987 Z M429.129899,697.561613 C428.471056,697.561613 427.813212,697.302178 427.323073,696.786313 C424.679715,694.004648 421.759844,691.464388 418.644316,689.234649 C417.522286,688.431302 417.261744,686.867679 418.062338,685.741791 C418.861933,684.614901 420.421195,684.353463 421.543224,685.15681 C424.914303,687.569857 428.074752,690.319468 430.934729,693.329516 C431.887057,694.330194 431.849123,695.915853 430.851875,696.869452 C430.368723,697.332229 429.747814,697.561613 429.129899,697.561613 Z M334.175673,702.10924 C333.634624,702.10924 333.090579,701.934947 332.633382,701.573341 C331.550285,700.717906 331.363612,699.143266 332.216115,698.056443 C334.777616,694.790967 337.664546,691.752872 340.795047,689.028303 C341.836219,688.121783 343.41245,688.234972 344.314865,689.278723 C345.218279,690.323475 345.106475,691.905127 344.065304,692.811647 C341.172385,695.329871 338.505069,698.136577 336.138226,701.154639 C335.645093,701.78169 334.913378,702.10924 334.175673,702.10924 Z M442.017264,717.652305 C441.027003,717.652305 440.08965,717.058309 439.699335,716.079668 C438.276834,712.518696 436.504946,709.073919 434.429591,705.841499 C433.682902,704.67955 434.017315,703.129951 435.176279,702.380695 C436.335244,701.631438 437.879532,701.968003 438.62622,703.129951 C440.872275,706.630822 442.791904,710.360076 444.332198,714.216544 C444.845297,715.499696 444.223389,716.958141 442.944635,717.473005 C442.64017,717.59521 442.325722,717.652305 442.017264,717.652305 Z M323.260844,723.339844 C323.029251,723.339844 322.792666,723.306788 322.559076,723.237672 C321.235401,722.84902 320.477732,721.457687 320.865052,720.131463 C322.029007,716.143776 323.584276,712.246239 325.487932,708.547036 C326.119822,707.317975 327.626177,706.835165 328.850027,707.47023 C330.074876,708.105295 330.555033,709.614827 329.922144,710.844889 C328.16523,714.259616 326.729751,717.85765 325.654639,721.538823 C325.336199,722.630654 324.340947,723.339844 323.260844,723.339844 Z M320.730288,741.108642 C320.602513,741.108642 320.474737,741.099627 320.345963,741.079593 C320.324002,741.075587 318.072956,740.729005 314.655957,740.598787 C313.279375,740.5467 312.204263,739.383749 312.25717,738.001431 C312.309079,736.619113 313.448079,735.531289 314.845624,735.594395 C316.175289,735.644479 317.341241,735.725615 318.295565,735.808754 C318.34348,734.661831 318.420345,733.516911 318.527158,732.384011 C318.655932,731.005699 319.870798,729.991999 321.245384,730.125223 C322.617973,730.254439 323.625204,731.475487 323.49643,732.852797 C323.318742,734.75098 323.227902,736.686226 323.226903,738.605444 C323.226903,739.33667 322.907464,740.031836 322.353438,740.507634 C321.898237,740.898289 321.32125,741.108642 320.730288,741.108642 Z M446.504383,741.109644 C445.125804,741.109644 444.008766,739.988764 444.008766,738.605444 C444.008766,734.746973 443.645405,730.887501 442.928663,727.132203 C442.669119,725.773926 443.555562,724.462727 444.910183,724.201288 C446.262808,723.946862 447.571509,724.832346 447.831053,726.190624 C448.606691,730.254439 449,734.431444 449,738.605444 C449,739.988764 447.882962,741.109644 446.504383,741.109644 Z M291.291993,744.430212 C290.338667,744.430212 289.428266,743.879288 289.012996,742.94973 C288.448986,741.687613 289.011997,740.206128 290.269788,739.640179 C293.834527,738.037492 297.92634,736.887563 302.431428,736.221446 C303.796031,736.018105 305.063804,736.965694 305.263454,738.333989 C305.464101,739.702284 304.522755,740.974417 303.158151,741.175755 C299.106268,741.774759 295.456678,742.795471 292.311203,744.210844 C291.979785,744.360095 291.633393,744.430212 291.291993,744.430212 Z M276.496978,761 C276.265385,761 276.029799,760.966945 275.795211,760.89883 C274.472534,760.510179 273.713866,759.119847 274.101186,757.792621 C275.270133,753.780893 277.177782,750.233945 279.772226,747.249941 C280.677635,746.208194 282.254865,746.099011 283.29404,747.009538 C284.332217,747.918061 284.439029,749.499714 283.533619,750.542463 C281.418335,752.976545 279.856078,755.888428 278.890774,759.197978 C278.573331,760.290811 277.577081,761 276.496978,761 L276.496978,761 Z" id="Fill-35" fill="#1A1919"></path>
        <path d="M588,758 C588,733.699667 607.700221,714 632,714 C656.299779,714 676,733.699667 676,758" id="Fill-36" fill="#FFD400"></path>
        <path d="M441.947997,290.748666 L441.947997,290.796539 C441.948997,291.458785 441.685982,292.094102 441.216955,292.562861 C440.747928,293.031619 440.111892,293.293924 439.447854,293.293924 C424.421996,293.293924 412.197297,281.103213 412.197297,266.116907 C412.197297,251.131597 424.421996,238.940886 439.447854,238.940886 C440.828933,238.940886 441.947997,240.05693 441.947997,241.434282 C441.947997,241.451237 441.942997,241.468192 441.942997,241.486145 C454.897737,242.275055 465.161324,252.998652 465.161324,266.116907 C465.161324,279.234164 454.899737,289.956763 441.947997,290.748666 Z M441.571976,217 C441.149951,217.323144 440.628922,217.522616 440.056889,217.522616 C439.484856,217.522616 438.963827,217.323144 438.541802,217 L407,217 L407,402 L431.531402,402 L431.531402,298.280716 C431.531402,296.903364 432.650466,295.78732 434.031545,295.78732 L447.531316,295.78732 C448.912395,295.78732 450.031459,296.903364 450.031459,298.280716 C450.031459,299.658068 448.912395,300.774112 447.531316,300.774112 L447.531316,375.821338 C448.912395,375.821338 450.031459,376.937382 450.031459,378.314734 L450.031459,402 L477,402 L477,217 L441.571976,217 L441.571976,217 Z" id="Fill-37" fill="#FFFFFE"></path>
        <path d="M441.764121,242 C441.736098,243.345211 440.6312,244.428522 439.267092,244.428522 C426.989116,244.428522 417,254.329115 417,266.499504 C417,277.830624 425.658035,287.195514 436.761056,288.432592 L436.728029,266.503472 C436.726027,265.13346 437.843936,264.02138 439.226059,264.019395 C439.227059,264.019395 439.229061,264.019395 439.230062,264.019395 C440.609182,264.019395 441.730093,265.127508 441.732095,266.495536 L441.769125,291 C454.730656,290.212318 465,279.546859 465,266.499504 C465,253.451157 454.728655,242.784706 441.764121,242" id="Fill-38" fill="#FFD400"></path>
        <polygon id="Fill-39" fill="#FFFFFE" points="450 440 460 440 460 408 450 408"></polygon>
        <polygon id="Fill-40" fill="#FFFFFE" points="423 440 431 440 431 408 423 408"></polygon>
        <path d="M396.125526,359.249593 C396.125526,360.630292 395.017331,361.749048 393.649666,361.749048 C392.282991,361.749048 391.173805,360.630292 391.173805,359.249593 L391.173805,322.602594 L377,345.10968 L377,449 L401,404.24777 L401,307 L396.07799,314.816294 C396.1077,314.973259 396.125526,315.134224 396.125526,315.300188 L396.125526,359.249593" id="Fill-41" fill="#FFD400"></path>
        <path d="M488.405576,361.863567 C486.993773,361.863567 485.849814,360.747683 485.849814,359.370529 L485.849814,316.202093 L481,308 L481,404.306031 L503,448 L503,345.20908 L500.507621,340.993853 L500.507621,378.709518 C500.507621,380.086672 499.363662,381.202556 497.951859,381.202556 C496.541078,381.202556 495.396097,380.086672 495.396097,378.709518 L495.396097,332.348997 L490.961338,324.846949 L490.961338,359.370529 C490.961338,360.747683 489.817379,361.863567 488.405576,361.863567" id="Fill-42" fill="#FFFFFE"></path>
        <path d="M447,301 L436,301 L436,456 L444.499773,456 L444.499773,378.5 C444.499773,377.12337 445.618874,376.00791 447,376.00791 L447,301" id="Fill-43" fill="#FFFFFE"></path>
        <path d="M442.550692,172.230198 L442.550692,212 L475,212 L442,148 L442,170.677236 C442.339116,171.104675 442.550692,171.639973 442.550692,172.230198" id="Fill-44" fill="#FFD400"></path>
        <path d="M502.990792,447.757966 L481.43116,404.007932 L481.43116,307.578327 L486.183897,315.790944 L486.183897,359.014772 C486.183897,360.393693 487.304958,361.511008 488.688501,361.511008 C490.072044,361.511008 491.193105,360.393693 491.193105,359.014772 L491.193105,324.446893 L495.539094,331.958567 L495.539094,378.378576 C495.539094,379.757496 496.661157,380.874812 498.043698,380.874812 C499.427241,380.874812 500.548302,379.757496 500.548302,378.378576 L500.548302,340.614516 L502.990792,344.835152 L502.990792,447.757966 Z M449.405289,402.090823 L449.405289,378.378576 C449.405289,376.999655 448.284228,375.882339 446.900685,375.882339 C445.517142,375.882339 444.396081,376.999655 444.396081,378.378576 L444.396081,456.007528 L435.881429,456.007528 L435.881429,300.749624 L446.900685,300.749624 C448.284228,300.749624 449.405289,299.632308 449.405289,298.253387 C449.405289,296.874467 448.284228,295.757151 446.900685,295.757151 L433.376825,295.757151 C431.993282,295.757151 430.872221,296.874467 430.872221,298.253387 L430.872221,402.090823 L406.297046,402.090823 L406.297046,216.880081 L437.895131,216.880081 C438.317908,217.203593 438.839867,217.403292 439.412921,217.403292 C439.985974,217.403292 440.507934,217.203593 440.930711,216.880081 L476.421952,216.880081 L476.421952,402.090823 L449.405289,402.090823 Z M449.405289,439.532369 L459.516877,439.532369 L459.516877,407.083295 L449.405289,407.083295 L449.405289,439.532369 Z M423.203123,439.532369 L430.872221,439.532369 L430.872221,407.083295 L423.203123,407.083295 L423.203123,439.532369 Z M441.359499,147.900088 L474.798969,211.887609 L441.917525,211.887609 L441.917525,172.125561 C441.917525,171.535451 441.703131,171.000258 441.359499,170.572903 C440.900656,170.002762 440.204376,169.629325 439.412921,169.629325 C438.029378,169.629325 436.908317,170.747639 436.908317,172.125561 L436.908317,211.887609 L407.921031,211.887609 L441.359499,147.900088 Z M401.287838,403.955012 L377.009208,448.649622 L377.009208,344.893065 L391.347565,322.414957 L391.347565,359.014772 C391.347565,360.393693 392.469628,361.511008 393.852169,361.511008 C395.235713,361.511008 396.356773,360.393693 396.356773,359.014772 L396.356773,315.121953 C396.356773,314.956203 396.33874,314.795445 396.308685,314.638682 L401.287838,306.832452 L401.287838,403.955012 Z M507.664383,342.919041 L481.43116,297.585395 L481.43116,214.582545 C481.437171,214.515646 481.451197,214.451743 481.451197,214.383845 C481.451197,213.860634 481.289901,213.375365 481.014394,212.973971 L443.581584,141.342975 C443.14979,140.51722 442.293215,140 441.359499,140 C440.425783,140 439.57021,140.51722 439.138416,141.342975 L401.571359,213.230584 C401.559337,213.253549 401.556331,213.278512 401.545311,213.300478 C401.473179,213.451251 401.416074,213.606018 401.374998,213.764778 C401.366983,213.794733 401.353959,213.822691 401.347948,213.853644 C401.311882,214.0154 401.294851,214.180152 401.292847,214.344904 C401.291845,214.358883 401.287838,214.370864 401.287838,214.383845 L401.287838,297.526483 L372.390718,342.82718 C372.135249,343.227576 372,343.691876 372,344.166161 L372,458.503764 C372,459.646041 372.778431,460.643537 373.889473,460.923116 C374.094851,460.975038 374.30123,461 374.504604,461 C375.407263,461 376.261834,460.511736 376.706652,459.691972 L405.285186,407.083295 L418.193915,407.083295 L418.193915,442.028605 C418.193915,443.407526 419.314976,444.524841 420.698519,444.524841 L430.872221,444.524841 L430.872221,458.503764 C430.872221,459.882685 431.993282,461 433.376825,461 L446.900685,461 C448.284228,461 449.405289,459.882685 449.405289,458.503764 L449.405289,444.524841 L462.021481,444.524841 C463.405024,444.524841 464.526085,443.407526 464.526085,442.028605 L464.526085,407.083295 L477.366689,407.083295 L503.247263,459.604105 C503.67505,460.472795 504.555669,461 505.494394,461 C505.68274,461 505.87309,460.979032 506.062438,460.935098 C507.196523,460.672494 508,459.665013 508,458.503764 L508,344.166161 C508,343.72882 507.884788,343.298469 507.664383,342.919041 L507.664383,342.919041 Z" id="Fill-45" fill="#1A1919"></path>
        <path d="M352.5,388 C351.119,388 350,389.115428 350,390.489795 L350,476.510205 C350,477.885568 351.119,479 352.5,479 C353.881,479 355,477.885568 355,476.510205 L355,390.489795 C355,389.115428 353.881,388 352.5,388" id="Fill-46" fill="#1A1919"></path>
        <path d="M439.478904,243.954401 C440.853404,243.954401 441.966719,242.87236 441.994955,241.528726 C441.994955,241.510891 441.999997,241.494046 441.999997,241.477201 C441.999997,240.108795 440.871556,239 439.478904,239 C424.327136,239 412,251.111529 412,265.999505 C412,280.888471 424.327136,293 439.478904,293 C440.148507,293 440.789873,292.739398 441.26283,292.273685 C441.735787,291.807971 442.001006,291.17678 441.999997,290.518836 L441.999997,290.471274 L441.962685,265.995541 C441.960668,264.629117 440.831218,263.522304 439.441592,263.522304 C439.440584,263.522304 439.438567,263.522304 439.437558,263.522304 C438.044907,263.524286 436.918482,264.635062 436.920499,266.003468 L436.953778,287.906876 C425.766176,286.671248 417.042186,277.317339 417.042186,265.999505 C417.042186,253.843386 427.107397,243.954401 439.478904,243.954401" id="Fill-47" fill="#1A1919"></path>
        <path d="M822.5,580.032307 C821.119,580.032307 820,578.910179 820,577.527556 L820,565.504751 C820,564.121127 821.119,563 822.5,563 C823.88,563 825,564.121127 825,565.504751 L825,577.527556 C825,578.910179 823.88,580.032307 822.5,580.032307 Z M822.5,604.077918 C821.119,604.077918 820,602.955789 820,601.573167 L820,589.550361 C820,588.166737 821.119,587.04561 822.5,587.04561 C823.88,587.04561 825,588.166737 825,589.550361 L825,601.573167 C825,602.955789 823.88,604.077918 822.5,604.077918 Z M822.5,628.123528 C821.119,628.123528 820,627.001399 820,625.618777 L820,613.595972 C820,612.212347 821.119,611.091221 822.5,611.091221 C823.88,611.091221 825,612.212347 825,613.595972 L825,625.618777 C825,627.001399 823.88,628.123528 822.5,628.123528 Z M822.5,652.169138 C821.119,652.169138 820,651.04701 820,649.664387 L820,637.641582 C820,636.257958 821.119,635.136831 822.5,635.136831 C823.88,635.136831 825,636.257958 825,637.641582 L825,649.664387 C825,651.04701 823.88,652.169138 822.5,652.169138 Z M822.5,676.214749 C821.119,676.214749 820,675.09262 820,673.709998 L820,661.687192 C820,660.303568 821.119,659.182441 822.5,659.182441 C823.88,659.182441 825,660.303568 825,661.687192 L825,673.709998 C825,675.09262 823.88,676.214749 822.5,676.214749 Z M822.5,689 C821.119,689 820,687.878873 820,686.495249 L820,685.732803 C820,684.349178 821.119,683.228052 822.5,683.228052 C823.88,683.228052 825,684.349178 825,685.732803 L825,686.495249 C825,687.878873 823.88,689 822.5,689 L822.5,689 Z" id="Fill-48" fill="#1A1919"></path>
    </g>
</svg>