<?xml version="1.0" encoding="UTF-8"?>
<svg width="1112px" height="777px" viewBox="0 0 1112 777" version="1.1" xmlns="http://www.w3.org/2000/svg" xmlns:xlink="http://www.w3.org/1999/xlink">
    <!-- Generator: Sketch 53.1 (72631) - https://sketchapp.com -->
    <title>skyrocket</title>
    <desc>Created with Sketch.</desc>
    <g id="skyrocket" stroke="none" stroke-width="1" fill="none" fill-rule="evenodd">
        <polygon id="Fill-3" fill="#FFD400" points="167.826 766.502 184.325 766.502 184.325 584.121 167.826 584.121"></polygon>
        <polygon id="Fill-4" fill="#FFD400" points="892.29 766.502 908.789 766.502 908.789 584.121 892.29 584.121"></polygon>
        <polygon id="Fill-5" fill="#FFD400" points="728.185 610.993 747.684 610.993 747.684 259.387 728.185 259.387"></polygon>
        <path d="M792.205,769.002 C792.03,769.002 791.853,768.984 791.675,768.946 C790.325,768.655 789.467,767.324 789.758,765.975 C790.862,760.856 791.422,755.566 791.422,750.252 C791.422,709.062 757.917,675.552 716.732,675.552 C675.809,675.552 642.303,708.85 642.043,749.778 C642.035,750.908 641.271,751.893 640.178,752.18 C639.085,752.468 637.935,751.985 637.373,751.004 C627.406,733.603 608.78,722.792 588.762,722.792 C581.834,722.792 575.058,724.051 568.622,726.535 C567.899,726.814 567.084,726.742 566.42,726.336 C565.756,725.931 565.319,725.241 565.236,724.468 C559.795,673.601 517.053,635.242 465.813,635.242 C418.499,635.242 377.292,668.833 367.832,715.112 C367.687,715.821 367.242,716.433 366.612,716.789 C365.982,717.145 365.23,717.21 364.547,716.968 C358.528,714.834 352.228,713.752 345.822,713.752 C316.096,713.752 291.536,736.983 289.909,766.639 C289.836,767.964 288.74,769.002 287.413,769.002 L233.822,769.002 C232.441,769.002 231.322,767.883 231.322,766.502 C231.322,765.121 232.441,764.002 233.822,764.002 L285.091,764.002 C288.005,732.834 314.236,708.752 345.822,708.752 C351.852,708.752 357.796,709.632 363.531,711.372 C374.501,664.192 417.07,630.242 465.813,630.242 C518.557,630.242 562.727,668.952 569.826,720.8 C575.93,718.802 582.285,717.792 588.762,717.792 C607.979,717.792 626.017,726.936 637.46,742.08 C641.582,701.994 675.654,670.552 716.732,670.552 C760.674,670.552 796.422,706.305 796.422,750.252 C796.422,755.92 795.825,761.564 794.646,767.029 C794.393,768.201 793.357,769.002 792.205,769.002" id="Fill-6" fill="#1A1919"></path>
        <path d="M704.268,636.302 C703.045,636.302 701.976,635.405 701.796,634.16 C701.599,632.793 702.546,631.525 703.913,631.328 C707.941,630.745 712.058,630.394 716.148,630.282 C717.553,630.234 718.678,631.332 718.716,632.712 C718.753,634.093 717.665,635.242 716.285,635.28 C712.388,635.386 708.466,635.721 704.628,636.276 C704.507,636.293 704.386,636.302 704.268,636.302 Z M740.065,637.395 C739.896,637.395 739.725,637.377 739.553,637.342 C735.754,636.551 731.861,635.977 727.981,635.634 C726.606,635.512 725.589,634.299 725.711,632.924 C725.832,631.548 727.049,630.534 728.42,630.653 C732.494,631.013 736.583,631.616 740.571,632.446 C741.923,632.728 742.791,634.052 742.51,635.403 C742.264,636.584 741.224,637.395 740.065,637.395 Z M681.145,642.486 C680.151,642.486 679.212,641.89 678.822,640.911 C678.311,639.628 678.936,638.174 680.219,637.663 C684.012,636.152 687.936,634.851 691.88,633.797 C693.217,633.439 694.585,634.233 694.94,635.566 C695.297,636.9 694.505,638.271 693.171,638.627 C689.416,639.631 685.681,640.869 682.069,642.308 C681.766,642.429 681.453,642.486 681.145,642.486 Z M762.774,645.001 C762.417,645.001 762.054,644.924 761.709,644.762 C758.19,643.101 754.537,641.632 750.851,640.398 C749.542,639.96 748.836,638.543 749.274,637.233 C749.712,635.924 751.13,635.218 752.439,635.657 C756.31,636.954 760.148,638.496 763.843,640.24 C765.092,640.83 765.626,642.32 765.037,643.568 C764.61,644.472 763.711,645.001 762.774,645.001 Z M660.108,653.884 C659.322,653.884 658.549,653.515 658.062,652.824 C657.267,651.695 657.538,650.135 658.667,649.34 C662.007,646.987 665.518,644.81 669.101,642.868 C670.317,642.211 671.833,642.662 672.49,643.876 C673.148,645.089 672.697,646.607 671.483,647.265 C668.071,649.113 664.727,651.187 661.545,653.428 C661.108,653.736 660.606,653.884 660.108,653.884 Z M783.085,657.687 C782.537,657.687 781.985,657.507 781.524,657.138 C778.486,654.706 775.275,652.429 771.979,650.37 C770.808,649.638 770.452,648.096 771.183,646.925 C771.915,645.754 773.457,645.398 774.628,646.129 C778.088,648.291 781.46,650.682 784.649,653.235 C785.727,654.098 785.901,655.671 785.038,656.749 C784.544,657.366 783.818,657.687 783.085,657.687 Z M642.268,669.85 C641.679,669.85 641.088,669.644 640.612,669.223 C639.578,668.308 639.482,666.728 640.396,665.693 C643.103,662.635 646.016,659.705 649.056,656.984 C650.085,656.062 651.665,656.15 652.586,657.18 C653.507,658.208 653.419,659.789 652.39,660.71 C649.495,663.301 646.719,666.093 644.141,669.007 C643.647,669.565 642.959,669.85 642.268,669.85 Z M799.912,674.719 C799.169,674.719 798.433,674.389 797.94,673.757 C795.548,670.694 792.95,667.738 790.216,664.97 C789.246,663.988 789.256,662.405 790.238,661.435 C791.221,660.465 792.804,660.475 793.774,661.457 C796.643,664.362 799.371,667.465 801.881,670.68 C802.731,671.769 802.537,673.34 801.449,674.189 C800.992,674.546 800.45,674.719 799.912,674.719 Z M961.312,676.033 C960.055,676.033 958.973,675.089 958.83,673.811 C958.676,672.439 959.665,671.202 961.037,671.049 C963.985,670.719 966.992,670.552 969.974,670.552 C971.09,670.542 972.258,670.575 973.396,670.624 C974.775,670.681 975.847,671.846 975.789,673.226 C975.732,674.605 974.556,675.682 973.187,675.619 C972.123,675.574 971.047,675.552 969.987,675.552 C969.983,675.552 969.979,675.552 969.975,675.552 C967.177,675.552 964.357,675.709 961.592,676.018 C961.498,676.028 961.404,676.033 961.312,676.033 Z M996.73,680.311 C996.442,680.311 996.15,680.261 995.864,680.155 C992.244,678.818 988.487,677.756 984.7,677 C983.346,676.73 982.467,675.413 982.738,674.059 C983.008,672.705 984.326,671.832 985.679,672.097 C989.722,672.904 993.732,674.038 997.597,675.465 C998.892,675.943 999.554,677.381 999.076,678.676 C998.703,679.686 997.747,680.311 996.73,680.311 Z M938.272,682.35 C937.319,682.35 936.409,681.802 935.991,680.877 C935.423,679.619 935.983,678.139 937.242,677.57 C940.996,675.876 944.913,674.465 948.884,673.376 C950.216,673.014 951.591,673.795 951.956,675.127 C952.321,676.459 951.538,677.834 950.206,678.199 C946.485,679.218 942.816,680.54 939.298,682.128 C938.965,682.278 938.615,682.35 938.272,682.35 Z M628.594,689.51 C628.196,689.51 627.793,689.415 627.418,689.215 C626.2,688.564 625.74,687.049 626.391,685.832 C628.315,682.231 630.473,678.706 632.806,675.352 C633.594,674.218 635.152,673.937 636.286,674.727 C637.419,675.516 637.699,677.074 636.911,678.207 C634.689,681.401 632.633,684.759 630.801,688.188 C630.351,689.031 629.486,689.51 628.594,689.51 Z M1017.59,691.979 C1017.05,691.979 1016.51,691.805 1016.05,691.445 C1013.01,689.06 1009.76,686.896 1006.4,685.013 C1005.19,684.338 1004.76,682.815 1005.44,681.61 C1006.11,680.405 1007.63,679.975 1008.84,680.649 C1012.43,682.658 1015.9,684.967 1019.14,687.512 C1020.22,688.364 1020.41,689.936 1019.56,691.022 C1019.07,691.65 1018.33,691.979 1017.59,691.979 Z M812.338,695.17 C811.39,695.17 810.483,694.628 810.063,693.709 C808.448,690.178 806.606,686.703 804.587,683.38 C803.87,682.2 804.245,680.662 805.425,679.945 C806.606,679.229 808.143,679.603 808.859,680.783 C810.98,684.272 812.915,687.922 814.61,691.63 C815.184,692.886 814.632,694.369 813.376,694.943 C813.039,695.097 812.686,695.17 812.338,695.17 Z M918.282,695.432 C917.599,695.432 916.919,695.154 916.425,694.607 C915.5,693.583 915.581,692.001 916.606,691.076 C919.661,688.317 922.956,685.775 926.399,683.521 C927.555,682.764 929.105,683.087 929.86,684.242 C930.616,685.397 930.294,686.947 929.138,687.703 C925.911,689.817 922.821,692.2 919.956,694.787 C919.478,695.219 918.879,695.432 918.282,695.432 Z M1033.9,709.449 C1033.1,709.449 1032.32,709.065 1031.83,708.353 C1029.67,705.162 1027.23,702.113 1024.6,699.289 C1023.66,698.28 1023.71,696.698 1024.72,695.756 C1025.73,694.814 1027.31,694.868 1028.25,695.878 C1031.06,698.889 1033.66,702.142 1035.97,705.545 C1036.74,706.687 1036.45,708.242 1035.3,709.017 C1034.88,709.309 1034.39,709.449 1033.9,709.449 Z M619.869,711.816 C619.661,711.816 619.448,711.79 619.237,711.735 C617.901,711.387 617.1,710.021 617.449,708.685 C618.479,704.733 619.756,700.799 621.246,696.994 C621.749,695.708 623.2,695.073 624.485,695.576 C625.771,696.079 626.405,697.529 625.902,698.815 C624.484,702.439 623.268,706.184 622.287,709.947 C621.994,711.071 620.98,711.816 619.869,711.816 Z M903.216,713.991 C902.79,713.991 902.357,713.882 901.962,713.652 C900.768,712.958 900.363,711.427 901.058,710.234 C903.126,706.678 905.492,703.252 908.09,700.051 C908.961,698.98 910.535,698.816 911.607,699.686 C912.678,700.556 912.842,702.13 911.972,703.203 C909.537,706.203 907.318,709.415 905.38,712.748 C904.916,713.546 904.078,713.991 903.216,713.991 Z M612.346,715.271 C612.159,715.271 611.968,715.25 611.778,715.205 C608.061,714.34 604.233,713.857 600.401,713.768 C599.021,713.735 597.928,712.59 597.96,711.21 C597.992,709.849 599.105,708.768 600.459,708.768 C600.478,708.768 600.498,708.769 600.518,708.769 C604.691,708.866 608.861,709.393 612.911,710.335 C614.255,710.648 615.092,711.992 614.779,713.336 C614.511,714.491 613.483,715.271 612.346,715.271 Z M819.655,717.961 C818.483,717.961 817.438,717.134 817.205,715.94 C816.459,712.125 815.479,708.314 814.29,704.614 C813.868,703.299 814.591,701.891 815.905,701.469 C817.219,701.048 818.628,701.77 819.05,703.085 C820.299,706.971 821.329,710.974 822.112,714.981 C822.377,716.337 821.493,717.65 820.138,717.915 C819.976,717.946 819.815,717.961 819.655,717.961 Z M577.018,718.054 C576.032,718.054 575.097,717.467 574.702,716.497 C574.181,715.218 574.795,713.759 576.074,713.238 C579.932,711.667 583.967,710.491 588.068,709.743 C589.428,709.492 590.728,710.395 590.976,711.753 C591.224,713.112 590.323,714.414 588.965,714.662 C585.202,715.348 581.5,716.427 577.961,717.869 C577.651,717.995 577.332,718.054 577.018,718.054 Z M859.384,725.416 C859.138,725.416 858.889,725.38 858.642,725.303 C854.997,724.171 851.216,723.412 847.402,723.048 C846.027,722.917 845.02,721.696 845.151,720.321 C845.282,718.947 846.503,717.937 847.878,718.07 C852.033,718.467 856.153,719.294 860.125,720.528 C861.443,720.938 862.18,722.339 861.771,723.657 C861.438,724.729 860.45,725.416 859.384,725.416 Z M823.948,725.647 C822.895,725.647 821.915,724.976 821.571,723.919 C821.145,722.606 821.863,721.196 823.176,720.769 C827.139,719.481 831.249,718.6 835.391,718.15 C836.759,718.001 837.997,718.994 838.146,720.366 C838.295,721.739 837.303,722.972 835.93,723.121 C832.129,723.533 828.358,724.342 824.722,725.524 C824.465,725.607 824.204,725.647 823.948,725.647 Z M1044.09,731.06 C1043,731.06 1042.01,730.352 1041.69,729.26 C1040.61,725.559 1039.22,721.912 1037.58,718.42 C1036.99,717.171 1037.52,715.682 1038.77,715.092 C1040.02,714.502 1041.51,715.039 1042.1,716.287 C1043.86,720.014 1045.33,723.907 1046.49,727.858 C1046.88,729.184 1046.11,730.572 1044.79,730.959 C1044.56,731.027 1044.32,731.06 1044.09,731.06 Z M894.562,736.277 C894.385,736.277 894.207,736.259 894.028,736.22 C892.679,735.926 891.823,734.595 892.116,733.246 C892.992,729.217 894.193,725.227 895.686,721.387 C896.186,720.1 897.633,719.462 898.922,719.963 C900.209,720.463 900.847,721.912 900.346,723.199 C898.948,726.796 897.823,730.534 897.002,734.308 C896.748,735.479 895.712,736.277 894.562,736.277 Z M880.21,736.995 C879.63,736.995 879.049,736.795 878.576,736.387 C875.679,733.884 872.517,731.673 869.178,729.815 C867.972,729.144 867.538,727.622 868.209,726.416 C868.88,725.209 870.403,724.774 871.609,725.446 C875.246,727.47 878.689,729.877 881.845,732.603 C882.89,733.506 883.005,735.085 882.103,736.129 C881.608,736.702 880.911,736.995 880.21,736.995 Z M892.797,752.262 C891.917,752.262 891.081,751.795 890.628,751.004 C889.383,748.83 887.977,746.718 886.449,744.727 C885.608,743.632 885.815,742.063 886.91,741.222 C888.005,740.381 889.575,740.588 890.416,741.683 C890.862,742.266 891.3,742.858 891.727,743.458 C892.127,743.238 892.588,743.123 893.078,743.154 C894.457,743.235 895.508,744.418 895.427,745.796 C895.349,747.114 895.306,748.454 895.297,749.778 C895.29,750.908 894.525,751.893 893.432,752.18 C893.221,752.235 893.008,752.262 892.797,752.262 Z M1047.15,754.759 C1047.13,754.759 1047.11,754.758 1047.09,754.758 C1045.71,754.723 1044.62,753.575 1044.65,752.195 C1044.67,751.549 1044.68,750.901 1044.68,750.252 C1044.68,747.029 1044.47,743.785 1044.06,740.608 C1043.88,739.239 1044.85,737.986 1046.22,737.81 C1047.59,737.628 1048.84,738.601 1049.02,739.97 C1049.46,743.357 1049.68,746.816 1049.68,750.252 C1049.68,750.944 1049.67,751.635 1049.65,752.323 C1049.62,753.681 1048.5,754.759 1047.15,754.759 Z M1045.46,769.002 C1045.28,769.002 1045.11,768.984 1044.93,768.946 C1043.58,768.655 1042.72,767.324 1043.01,765.975 C1043.17,765.23 1043.32,764.483 1043.46,763.731 C1043.71,762.373 1045.02,761.476 1046.37,761.724 C1047.73,761.973 1048.63,763.276 1048.38,764.634 C1048.23,765.436 1048.07,766.234 1047.9,767.029 C1047.65,768.201 1046.61,769.002 1045.46,769.002 L1045.46,769.002 Z" id="Fill-7" fill="#1A1919"></path>
        <path d="M216.136,625.964 C214.914,625.964 213.845,625.067 213.665,623.821 C213.467,622.455 214.415,621.187 215.782,620.99 C219.81,620.407 223.927,620.055 228.017,619.944 C229.393,619.907 230.546,620.994 230.585,622.375 C230.622,623.755 229.534,624.904 228.154,624.942 C224.256,625.048 220.335,625.383 216.497,625.938 C216.376,625.956 216.255,625.964 216.136,625.964 Z M251.933,627.057 C251.764,627.057 251.593,627.04 251.421,627.004 C247.623,626.213 243.73,625.639 239.85,625.296 C238.474,625.174 237.458,623.961 237.579,622.586 C237.701,621.21 238.916,620.197 240.289,620.315 C244.363,620.675 248.451,621.278 252.44,622.108 C253.792,622.39 254.66,623.714 254.378,625.065 C254.133,626.246 253.093,627.057 251.933,627.057 Z M193.014,632.148 C192.02,632.148 191.081,631.552 190.69,630.573 C190.179,629.29 190.805,627.836 192.087,627.325 C195.881,625.814 199.804,624.513 203.749,623.459 C205.086,623.102 206.454,623.896 206.809,625.229 C207.166,626.563 206.374,627.933 205.04,628.289 C201.285,629.293 197.549,630.531 193.938,631.97 C193.634,632.091 193.321,632.148 193.014,632.148 Z M274.643,634.664 C274.285,634.664 273.922,634.586 273.577,634.424 C270.059,632.763 266.405,631.294 262.719,630.06 C261.41,629.622 260.704,628.205 261.143,626.896 C261.581,625.586 262.998,624.878 264.307,625.319 C268.179,626.616 272.016,628.158 275.712,629.902 C276.96,630.492 277.495,631.982 276.905,633.23 C276.479,634.134 275.58,634.664 274.643,634.664 Z M171.977,643.546 C171.191,643.546 170.418,643.177 169.931,642.486 C169.136,641.357 169.406,639.797 170.535,639.002 C173.876,636.649 177.386,634.472 180.97,632.53 C182.184,631.872 183.701,632.323 184.359,633.538 C185.017,634.751 184.565,636.269 183.352,636.927 C179.939,638.775 176.596,640.849 173.414,643.09 C172.977,643.398 172.474,643.546 171.977,643.546 Z M294.954,647.349 C294.405,647.349 293.854,647.169 293.393,646.8 C290.355,644.368 287.144,642.091 283.847,640.032 C282.676,639.3 282.32,637.758 283.052,636.587 C283.784,635.417 285.326,635.06 286.497,635.792 C289.957,637.953 293.329,640.344 296.518,642.897 C297.595,643.76 297.77,645.333 296.907,646.411 C296.413,647.028 295.687,647.349 294.954,647.349 Z M154.136,659.512 C153.547,659.512 152.956,659.306 152.48,658.885 C151.447,657.97 151.35,656.39 152.265,655.355 C154.971,652.297 157.885,649.367 160.924,646.646 C161.953,645.724 163.534,645.812 164.455,646.842 C165.376,647.871 165.288,649.451 164.259,650.372 C161.363,652.963 158.587,655.755 156.01,658.669 C155.516,659.227 154.828,659.512 154.136,659.512 Z M311.781,664.381 C311.037,664.381 310.301,664.051 309.808,663.419 C307.417,660.356 304.819,657.4 302.085,654.632 C301.115,653.65 301.125,652.067 302.107,651.097 C303.09,650.127 304.672,650.137 305.643,651.119 C308.512,654.024 311.239,657.127 313.75,660.342 C314.599,661.431 314.406,663.002 313.317,663.852 C312.86,664.208 312.318,664.381 311.781,664.381 Z M140.462,679.172 C140.064,679.172 139.661,679.077 139.286,678.877 C138.068,678.226 137.609,676.711 138.259,675.494 C140.183,671.894 142.342,668.368 144.675,665.014 C145.463,663.88 147.021,663.6 148.155,664.389 C149.288,665.178 149.568,666.736 148.779,667.869 C146.557,671.064 144.501,674.421 142.669,677.85 C142.219,678.693 141.355,679.172 140.462,679.172 Z M324.207,684.832 C323.258,684.832 322.352,684.29 321.932,683.371 C320.317,679.84 318.475,676.365 316.456,673.042 C315.738,671.862 316.114,670.324 317.293,669.607 C318.475,668.891 320.011,669.265 320.728,670.445 C322.849,673.935 324.783,677.584 326.479,681.292 C327.053,682.548 326.501,684.031 325.245,684.605 C324.908,684.759 324.554,684.832 324.207,684.832 Z M131.738,701.479 C131.529,701.479 131.317,701.452 131.105,701.397 C129.77,701.049 128.969,699.683 129.317,698.347 C130.348,694.395 131.625,690.461 133.114,686.656 C133.617,685.37 135.069,684.734 136.353,685.238 C137.639,685.741 138.273,687.191 137.771,688.478 C136.353,692.101 135.137,695.846 134.155,699.609 C133.862,700.733 132.848,701.479 131.738,701.479 Z M124.215,704.933 C124.027,704.933 123.837,704.912 123.647,704.867 C119.93,704.002 116.102,703.519 112.27,703.43 C110.89,703.397 109.796,702.252 109.829,700.872 C109.861,699.491 111.016,698.416 112.386,698.431 C116.56,698.528 120.73,699.055 124.779,699.997 C126.124,700.31 126.96,701.654 126.648,702.999 C126.379,704.153 125.352,704.933 124.215,704.933 Z M331.524,707.624 C330.353,707.624 329.306,706.795 329.073,705.603 C328.328,701.787 327.347,697.976 326.158,694.276 C325.736,692.961 326.46,691.553 327.774,691.131 C329.089,690.71 330.497,691.432 330.919,692.747 C332.168,696.633 333.197,700.636 333.98,704.644 C334.245,705.999 333.361,707.312 332.006,707.577 C331.844,707.608 331.683,707.624 331.524,707.624 Z M88.887,707.716 C87.9,707.716 86.966,707.129 86.57,706.159 C86.05,704.88 86.664,703.421 87.942,702.9 C91.8,701.329 95.836,700.153 99.937,699.405 C101.294,699.156 102.597,700.057 102.845,701.416 C103.092,702.774 102.192,704.076 100.834,704.324 C97.071,705.01 93.368,706.089 89.829,707.531 C89.52,707.657 89.201,707.716 88.887,707.716 L88.887,707.716 Z" id="Fill-8" fill="#1A1919"></path>
        <path d="M216.136,682.944 C214.914,682.944 213.845,682.046 213.665,680.801 C213.467,679.435 214.415,678.167 215.782,677.969 C219.81,677.387 223.927,677.035 228.017,676.923 C229.393,676.897 230.546,677.974 230.585,679.354 C230.622,680.734 229.534,681.884 228.154,681.921 C224.256,682.028 220.335,682.363 216.497,682.918 C216.376,682.935 216.255,682.944 216.136,682.944 Z M251.933,684.036 C251.764,684.036 251.593,684.019 251.421,683.983 C247.623,683.193 243.73,682.618 239.85,682.275 C238.474,682.154 237.458,680.94 237.579,679.565 C237.701,678.19 238.916,677.168 240.289,677.295 C244.363,677.655 248.451,678.258 252.44,679.088 C253.792,679.37 254.66,680.693 254.378,682.045 C254.133,683.225 253.093,684.036 251.933,684.036 Z M193.014,689.127 C192.02,689.127 191.081,688.531 190.69,687.552 C190.179,686.27 190.805,684.815 192.087,684.305 C195.881,682.793 199.804,681.493 203.749,680.439 C205.086,680.081 206.454,680.875 206.809,682.208 C207.166,683.542 206.374,684.912 205.04,685.269 C201.285,686.272 197.549,687.511 193.938,688.949 C193.634,689.07 193.321,689.127 193.014,689.127 Z M274.643,691.643 C274.285,691.643 273.922,691.566 273.577,691.403 C270.059,689.742 266.405,688.274 262.719,687.04 C261.41,686.601 260.704,685.184 261.143,683.875 C261.581,682.566 262.998,681.859 264.307,682.298 C268.179,683.595 272.016,685.137 275.712,686.882 C276.96,687.471 277.495,688.961 276.905,690.21 C276.479,691.114 275.58,691.643 274.643,691.643 Z M171.977,700.526 C171.191,700.526 170.418,700.157 169.931,699.465 C169.136,698.337 169.406,696.777 170.535,695.982 C173.876,693.629 177.386,691.452 180.97,689.51 C182.184,688.853 183.701,689.303 184.359,690.517 C185.017,691.731 184.565,693.249 183.352,693.906 C179.939,695.755 176.596,697.829 173.414,700.07 C172.977,700.378 172.474,700.526 171.977,700.526 Z M294.954,704.328 C294.405,704.328 293.854,704.149 293.393,703.78 C290.355,701.348 287.144,699.07 283.847,697.011 C282.676,696.28 282.32,694.737 283.052,693.566 C283.784,692.396 285.326,692.04 286.497,692.771 C289.957,694.933 293.329,697.323 296.518,699.876 C297.595,700.739 297.77,702.313 296.907,703.391 C296.413,704.007 295.687,704.328 294.954,704.328 Z M154.136,716.492 C153.547,716.492 152.956,716.285 152.48,715.864 C151.447,714.949 151.35,713.369 152.265,712.335 C154.971,709.276 157.885,706.346 160.924,703.626 C161.953,702.703 163.534,702.792 164.455,703.821 C165.376,704.85 165.288,706.43 164.259,707.351 C161.363,709.943 158.587,712.734 156.01,715.648 C155.516,716.207 154.828,716.492 154.136,716.492 Z M311.781,721.36 C311.037,721.36 310.301,721.03 309.808,720.399 C307.417,717.336 304.819,714.379 302.085,711.612 C301.115,710.629 301.125,709.046 302.107,708.076 C303.09,707.107 304.672,707.116 305.643,708.098 C308.512,711.003 311.239,714.107 313.75,717.322 C314.599,718.41 314.406,719.981 313.317,720.831 C312.86,721.188 312.318,721.36 311.781,721.36 Z M140.462,736.152 C140.064,736.152 139.661,736.057 139.286,735.856 C138.068,735.206 137.609,733.691 138.259,732.473 C140.183,728.873 142.342,725.347 144.675,721.993 C145.463,720.86 147.021,720.579 148.155,721.369 C149.288,722.157 149.568,723.715 148.779,724.849 C146.557,728.043 144.501,731.401 142.669,734.83 C142.219,735.672 141.355,736.152 140.462,736.152 Z M324.207,741.812 C323.258,741.812 322.352,741.27 321.932,740.351 C320.317,736.819 318.475,733.344 316.456,730.022 C315.738,728.842 316.114,727.304 317.293,726.587 C318.475,725.871 320.011,726.245 320.728,727.425 C322.849,730.914 324.783,734.564 326.479,738.272 C327.053,739.527 326.501,741.011 325.245,741.585 C324.908,741.739 324.554,741.812 324.207,741.812 Z M131.738,758.458 C131.529,758.458 131.317,758.432 131.105,758.376 C129.77,758.028 128.969,756.663 129.317,755.327 C130.348,751.375 131.625,747.441 133.114,743.635 C133.617,742.349 135.069,741.714 136.353,742.218 C137.639,742.721 138.273,744.171 137.771,745.457 C136.353,749.08 135.137,752.825 134.155,756.588 C133.862,757.713 132.848,758.458 131.738,758.458 Z M124.215,761.912 C124.027,761.912 123.837,761.891 123.647,761.847 C119.93,760.982 116.102,760.499 112.27,760.409 C110.89,760.377 109.796,759.231 109.829,757.852 C109.861,756.471 111.016,755.363 112.386,755.41 C116.56,755.508 120.73,756.035 124.779,756.977 C126.124,757.29 126.96,758.633 126.648,759.978 C126.379,761.132 125.352,761.912 124.215,761.912 Z M331.524,764.603 C330.353,764.603 329.306,763.775 329.073,762.582 C328.328,758.766 327.347,754.956 326.158,751.255 C325.736,749.941 326.46,748.533 327.774,748.11 C329.089,747.689 330.497,748.412 330.919,749.726 C332.168,753.612 333.197,757.615 333.98,761.623 C334.245,762.979 333.361,764.292 332.006,764.556 C331.844,764.588 331.683,764.603 331.524,764.603 Z M88.887,764.696 C87.9,764.696 86.966,764.108 86.57,763.139 C86.05,761.86 86.664,760.401 87.942,759.88 C91.8,758.309 95.836,757.132 99.937,756.384 C101.294,756.134 102.597,757.037 102.845,758.395 C103.092,759.753 102.192,761.056 100.834,761.303 C97.071,761.989 93.368,763.068 89.829,764.511 C89.52,764.636 89.201,764.696 88.887,764.696 L88.887,764.696 Z" id="Fill-9" fill="#1A1919"></path>
        <path d="M526.374,489.126 C524.993,489.126 523.874,488.007 523.874,486.626 L523.874,480.626 C523.874,479.246 524.993,478.126 526.374,478.126 C527.754,478.126 528.874,479.246 528.874,480.626 L528.874,486.626 C528.874,488.007 527.754,489.126 526.374,489.126" id="Fill-10" fill="#1A1919"></path>
        <path d="M526.374,514.489 C524.993,514.489 523.874,513.37 523.874,511.989 L523.874,499.308 C523.874,497.927 524.993,496.808 526.374,496.808 C527.754,496.808 528.874,497.927 528.874,499.308 L528.874,511.989 C528.874,513.37 527.754,514.489 526.374,514.489 Z M526.374,539.851 C524.993,539.851 523.874,538.732 523.874,537.351 L523.874,524.67 C523.874,523.289 524.993,522.17 526.374,522.17 C527.754,522.17 528.874,523.289 528.874,524.67 L528.874,537.351 C528.874,538.732 527.754,539.851 526.374,539.851 Z M526.374,565.213 C524.993,565.213 523.874,564.094 523.874,562.713 L523.874,550.032 C523.874,548.651 524.993,547.532 526.374,547.532 C527.754,547.532 528.874,548.651 528.874,550.032 L528.874,562.713 C528.874,564.094 527.754,565.213 526.374,565.213 Z M526.374,590.575 C524.993,590.575 523.874,589.456 523.874,588.075 L523.874,575.394 C523.874,574.013 524.993,572.894 526.374,572.894 C527.754,572.894 528.874,574.013 528.874,575.394 L528.874,588.075 C528.874,589.456 527.754,590.575 526.374,590.575 Z M526.374,615.938 C524.993,615.938 523.874,614.818 523.874,613.438 L523.874,600.756 C523.874,599.376 524.993,598.256 526.374,598.256 C527.754,598.256 528.874,599.376 528.874,600.756 L528.874,613.438 C528.874,614.818 527.754,615.938 526.374,615.938 L526.374,615.938 Z" id="Fill-11" fill="#1A1919"></path>
        <path d="M526.374,634.619 C524.993,634.619 523.874,633.5 523.874,632.119 L523.874,626.119 C523.874,624.738 524.993,623.619 526.374,623.619 C527.754,623.619 528.874,624.738 528.874,626.119 L528.874,632.119 C528.874,633.5 527.754,634.619 526.374,634.619" id="Fill-12" fill="#1A1919"></path>
        <path d="M501.254,452.128 L501.254,558.623" id="Fill-13" fill="#FFFFFE"></path>
        <path d="M501.254,561.123 C499.873,561.123 498.754,560.003 498.754,558.623 L498.754,452.128 C498.754,450.747 499.873,449.628 501.254,449.628 C502.635,449.628 503.754,450.747 503.754,452.128 L503.754,558.623 C503.754,560.003 502.635,561.123 501.254,561.123" id="Fill-14" fill="#1A1919"></path>
        <path d="M540.623,657.118 C539.242,657.118 538.123,655.999 538.123,654.618 L538.123,513.625 C538.123,512.244 539.242,511.125 540.623,511.125 C542.004,511.125 543.123,512.244 543.123,513.625 L543.123,654.618 C543.123,655.999 542.004,657.118 540.623,657.118" id="Fill-15" fill="#1A1919"></path>
        <path d="M499.133,598.847 C499.027,598.847 498.92,598.84 498.814,598.826 C497.444,598.651 496.475,597.4 496.649,596.03 C497.139,592.188 497.476,588.233 497.65,584.276 C497.711,582.897 498.884,581.835 500.257,581.889 C501.637,581.949 502.706,583.117 502.645,584.496 C502.465,588.59 502.117,592.684 501.609,596.662 C501.448,597.925 500.373,598.847 499.133,598.847 Z M423.863,604.88 C422.744,604.88 421.725,604.124 421.44,602.989 C421.104,601.65 421.917,600.292 423.255,599.955 C427.4,598.913 431.797,598.631 436.058,599.125 C437.43,599.284 438.413,600.524 438.254,601.896 C438.095,603.268 436.859,604.245 435.483,604.092 C431.82,603.668 428.036,603.91 424.474,604.805 C424.27,604.856 424.064,604.88 423.863,604.88 Z M456.583,614.951 C455.894,614.951 455.209,614.668 454.714,614.113 C452.236,611.33 449.31,609.047 446.017,607.329 C444.793,606.689 444.319,605.18 444.958,603.956 C445.597,602.731 447.107,602.258 448.331,602.896 C452.163,604.896 455.567,607.551 458.449,610.788 C459.367,611.819 459.275,613.4 458.244,614.318 C457.768,614.742 457.174,614.951 456.583,614.951 Z M404.631,618.336 C404.147,618.336 403.657,618.196 403.227,617.902 C402.085,617.126 401.79,615.57 402.567,614.429 C405.001,610.853 408.034,607.779 411.58,605.295 C412.71,604.504 414.27,604.777 415.062,605.908 C415.854,607.039 415.58,608.597 414.449,609.39 C411.4,611.526 408.793,614.168 406.7,617.243 C406.216,617.954 405.43,618.336 404.631,618.336 Z M493.905,622.236 C493.643,622.236 493.376,622.195 493.114,622.107 C491.804,621.671 491.096,620.255 491.533,618.945 C492.731,615.349 493.777,611.543 494.643,607.633 C494.941,606.285 496.276,605.433 497.624,605.732 C498.972,606.03 499.823,607.365 499.524,608.713 C498.622,612.792 497.529,616.766 496.276,620.526 C495.927,621.574 494.951,622.236 493.905,622.236 Z M464.927,636.886 C463.546,636.886 462.427,635.767 462.427,634.386 C462.427,630.647 461.759,626.998 460.442,623.537 C459.951,622.247 460.599,620.803 461.889,620.312 C463.178,619.82 464.624,620.468 465.115,621.759 C466.649,625.789 467.427,630.037 467.427,634.386 C467.427,635.767 466.308,636.886 464.927,636.886 Z M399.203,641.166 C397.965,641.166 396.891,640.248 396.727,638.988 C396.53,637.476 396.43,635.928 396.43,634.386 C396.43,631.612 396.751,628.85 397.385,626.175 C397.704,624.832 399.048,624.001 400.394,624.318 C401.737,624.637 402.568,625.984 402.25,627.327 C401.706,629.625 401.43,632 401.43,634.386 C401.43,635.712 401.516,637.044 401.685,638.343 C401.863,639.712 400.897,640.966 399.528,641.145 C399.419,641.159 399.31,641.166 399.203,641.166 Z M483.492,643.778 C483.008,643.778 482.52,643.638 482.09,643.346 C480.947,642.57 480.65,641.016 481.426,639.874 C483.521,636.789 485.457,633.396 487.18,629.789 C487.775,628.543 489.267,628.015 490.514,628.611 C491.76,629.207 492.287,630.699 491.692,631.945 C489.86,635.777 487.798,639.39 485.563,642.682 C485.079,643.395 484.293,643.778 483.492,643.778 Z M466.681,660.654 C465.867,660.654 465.069,660.257 464.589,659.526 C463.831,658.373 464.151,656.823 465.305,656.064 C468.437,654.006 471.408,651.561 474.137,648.797 C475.107,647.814 476.69,647.804 477.672,648.774 C478.655,649.744 478.665,651.327 477.695,652.31 C474.72,655.323 471.476,657.992 468.051,660.243 C467.628,660.521 467.152,660.654 466.681,660.654 Z M410.45,661.749 C409.877,661.749 409.301,661.553 408.831,661.152 C405.514,658.329 402.783,654.983 400.713,651.208 C400.049,649.998 400.493,648.478 401.704,647.814 C402.916,647.15 404.434,647.595 405.098,648.805 C406.874,652.044 409.22,654.918 412.072,657.345 C413.123,658.24 413.25,659.818 412.355,660.869 C411.86,661.45 411.157,661.749 410.45,661.749 Z M444.448,669.109 C443.238,669.109 442.174,668.229 441.981,666.996 C441.767,665.632 442.699,664.353 444.064,664.139 C447.92,663.534 451.646,662.559 455.138,661.24 C456.43,660.752 457.873,661.405 458.36,662.696 C458.848,663.988 458.196,665.43 456.904,665.918 C453.092,667.357 449.033,668.42 444.838,669.078 C444.707,669.099 444.576,669.109 444.448,669.109 Z M432.508,669.897 C432.493,669.897 432.478,669.897 432.462,669.896 L431.866,669.883 C427.746,669.779 423.719,669.013 419.897,667.608 C418.602,667.132 417.938,665.695 418.414,664.399 C418.89,663.103 420.325,662.436 421.623,662.916 C424.931,664.131 428.42,664.794 431.993,664.885 L432.551,664.897 C433.932,664.921 435.031,666.061 435.006,667.441 C434.982,668.806 433.868,669.897 432.508,669.897 L432.508,669.897 Z" id="Fill-16" fill="#1A1919"></path>
        <path d="M438.361,705.115 C433.537,705.115 429.612,709.04 429.612,713.865 C429.612,718.689 433.537,722.614 438.361,722.614 C443.185,722.614 447.11,718.689 447.11,713.865 C447.11,709.04 443.185,705.115 438.361,705.115 Z M438.361,727.614 C430.78,727.614 424.612,721.446 424.612,713.865 C424.612,706.283 430.78,700.115 438.361,700.115 C445.942,700.115 452.11,706.283 452.11,713.865 C452.11,721.446 445.942,727.614 438.361,727.614 L438.361,727.614 Z" id="Fill-17" fill="#FFFEFD"></path>
        <path d="M332.846,533.244 C332.846,539.456 327.81,544.493 321.597,544.493 C315.384,544.493 310.348,539.456 310.348,533.244 C310.348,527.031 315.384,521.994 321.597,521.994 C327.81,521.994 332.846,527.031 332.846,533.244" id="Fill-18" fill="#FFD400"></path>
        <path d="M565.09,555.535 C563.71,555.535 562.59,554.416 562.59,553.035 L562.59,541.035 C562.59,539.654 563.71,538.535 565.09,538.535 C566.471,538.535 567.59,539.654 567.59,541.035 L567.59,553.035 C567.59,554.416 566.471,555.535 565.09,555.535 Z M641.518,560.724 C641.316,560.724 641.111,560.699 640.907,560.648 C637.345,559.753 633.563,559.511 629.898,559.935 C628.525,560.091 627.286,559.11 627.127,557.739 C626.968,556.368 627.951,555.127 629.323,554.968 C633.583,554.475 637.981,554.757 642.126,555.798 C643.464,556.135 644.277,557.493 643.941,558.833 C643.656,559.967 642.637,560.724 641.518,560.724 Z M608.798,570.794 C608.207,570.794 607.613,570.585 607.137,570.161 C606.106,569.243 606.014,567.663 606.932,566.631 C609.814,563.395 613.218,560.739 617.05,558.739 C618.275,558.101 619.785,558.575 620.423,559.799 C621.062,561.023 620.588,562.533 619.364,563.172 C616.071,564.891 613.145,567.173 610.667,569.957 C610.172,570.511 609.487,570.794 608.798,570.794 Z M660.75,574.179 C659.95,574.179 659.165,573.797 658.681,573.086 C656.588,570.011 653.981,567.369 650.932,565.233 C649.801,564.44 649.527,562.881 650.319,561.751 C651.111,560.62 652.671,560.345 653.801,561.138 C657.347,563.623 660.379,566.696 662.814,570.272 C663.591,571.414 663.296,572.969 662.154,573.746 C661.724,574.039 661.234,574.179 660.75,574.179 Z M570.29,578.883 C569.278,578.883 568.327,578.266 567.95,577.264 C566.508,573.436 565.268,569.487 564.264,565.527 C563.924,564.189 564.734,562.829 566.073,562.489 C567.409,562.151 568.771,562.96 569.11,564.298 C570.069,568.078 571.253,571.847 572.628,575.502 C573.115,576.794 572.462,578.236 571.17,578.722 C570.88,578.832 570.582,578.883 570.29,578.883 Z M600.454,592.729 C599.073,592.729 597.954,591.61 597.954,590.229 C597.954,585.88 598.732,581.632 600.266,577.602 C600.758,576.312 602.201,575.664 603.492,576.155 C604.782,576.646 605.43,578.09 604.939,579.38 C603.622,582.841 602.954,586.491 602.954,590.229 C602.954,591.61 601.835,592.729 600.454,592.729 Z M666.178,597.009 C666.071,597.009 665.962,597.002 665.853,596.988 C664.483,596.81 663.518,595.555 663.696,594.186 C663.865,592.887 663.951,591.556 663.951,590.229 C663.951,587.843 663.675,585.468 663.131,583.17 C662.813,581.827 663.644,580.48 664.987,580.162 C666.333,579.845 667.678,580.675 667.996,582.018 C668.63,584.693 668.951,587.456 668.951,590.229 C668.951,591.771 668.851,593.319 668.654,594.832 C668.49,596.091 667.416,597.009 666.178,597.009 Z M581.477,600.072 C580.702,600.072 579.939,599.713 579.45,599.038 C577.11,595.805 574.929,592.263 572.968,588.511 C572.328,587.287 572.801,585.777 574.025,585.137 C575.247,584.498 576.758,584.97 577.398,586.194 C579.249,589.733 581.302,593.068 583.501,596.106 C584.31,597.225 584.059,598.788 582.941,599.598 C582.498,599.918 581.985,600.072 581.477,600.072 Z M598.662,616.611 C598.201,616.611 597.734,616.483 597.316,616.216 C593.877,614.013 590.592,611.4 587.554,608.451 C586.564,607.49 586.541,605.907 587.503,604.916 C588.464,603.925 590.047,603.902 591.038,604.864 C593.835,607.58 596.855,609.982 600.013,612.005 C601.175,612.75 601.515,614.296 600.77,615.459 C600.293,616.204 599.486,616.611 598.662,616.611 Z M654.931,617.592 C654.224,617.592 653.521,617.293 653.027,616.712 C652.131,615.661 652.258,614.084 653.31,613.189 C656.161,610.76 658.507,607.887 660.283,604.648 C660.947,603.437 662.466,602.993 663.677,603.657 C664.888,604.321 665.332,605.841 664.668,607.051 C662.598,610.826 659.867,614.172 656.551,616.995 C656.081,617.396 655.504,617.592 654.931,617.592 Z M620.94,624.955 C620.813,624.955 620.683,624.944 620.552,624.924 C616.374,624.272 612.316,623.219 608.492,621.795 C607.198,621.314 606.539,619.875 607.021,618.581 C607.503,617.288 608.94,616.628 610.236,617.11 C613.746,618.417 617.477,619.384 621.323,619.984 C622.687,620.197 623.621,621.476 623.408,622.84 C623.215,624.073 622.151,624.955 620.94,624.955 Z M632.873,625.74 C631.51,625.74 630.395,624.646 630.375,623.278 C630.354,621.897 631.456,620.761 632.836,620.74 L633.39,620.729 C636.961,620.638 640.45,619.975 643.758,618.759 C645.054,618.281 646.491,618.947 646.967,620.243 C647.443,621.539 646.779,622.976 645.483,623.452 C641.662,624.857 637.635,625.622 633.516,625.727 L632.912,625.739 C632.899,625.74 632.886,625.74 632.873,625.74 L632.873,625.74 Z" id="Fill-19" fill="#1A1919"></path>
        <path d="M638.269,575.372 C633.445,575.372 629.52,579.296 629.52,584.121 C629.52,588.945 633.445,592.87 638.269,592.87 C643.093,592.87 647.018,588.945 647.018,584.121 C647.018,579.296 643.093,575.372 638.269,575.372 Z M638.269,597.87 C630.688,597.87 624.52,591.702 624.52,584.121 C624.52,576.54 630.688,570.372 638.269,570.372 C645.85,570.372 652.018,576.54 652.018,584.121 C652.018,591.702 645.85,597.87 638.269,597.87 L638.269,597.87 Z" id="Fill-20" fill="#1A1919"></path>
        <path d="M270.39,524.494 C265.566,524.494 261.641,528.419 261.641,533.244 C261.641,538.068 265.566,541.993 270.39,541.993 C275.214,541.993 279.139,538.068 279.139,533.244 C279.139,528.419 275.214,524.494 270.39,524.494 Z M270.39,546.993 C262.809,546.993 256.641,540.825 256.641,533.244 C256.641,525.662 262.809,519.494 270.39,519.494 C277.971,519.494 284.139,525.662 284.139,533.244 C284.139,540.825 277.971,546.993 270.39,546.993 L270.39,546.993 Z" id="Fill-21" fill="#1A1919"></path>
        <path d="M857.042,635.242 C852.217,635.242 848.293,639.167 848.293,643.992 C848.293,648.816 852.217,652.741 857.042,652.741 C861.866,652.741 865.791,648.816 865.791,643.992 C865.791,639.167 861.866,635.242 857.042,635.242 Z M857.042,657.741 C849.461,657.741 843.293,651.573 843.293,643.992 C843.293,636.41 849.461,630.242 857.042,630.242 C864.623,630.242 870.791,636.41 870.791,643.992 C870.791,651.573 864.623,657.741 857.042,657.741 L857.042,657.741 Z" id="Fill-22" fill="#1A1919"></path>
        <path d="M550.752,460.628 C545.927,460.628 542.003,464.553 542.003,469.377 C542.003,474.202 545.927,478.126 550.752,478.126 C555.576,478.126 559.501,474.202 559.501,469.377 C559.501,464.553 555.576,460.628 550.752,460.628 Z M550.752,483.126 C543.17,483.126 537.003,476.959 537.003,469.377 C537.003,461.796 543.17,455.628 550.752,455.628 C558.333,455.628 564.501,461.796 564.501,469.377 C564.501,476.959 558.333,483.126 550.752,483.126 L550.752,483.126 Z" id="Fill-23" fill="#1A1919"></path>
        <path d="M389.879,286.51 C385.882,286.51 382.63,289.762 382.63,293.759 C382.63,297.756 385.882,301.008 389.879,301.008 C393.877,301.008 397.129,297.756 397.129,293.759 C397.129,289.762 393.877,286.51 389.879,286.51 Z M389.879,306.008 C383.126,306.008 377.63,300.513 377.63,293.759 C377.63,287.005 383.126,281.51 389.879,281.51 C396.634,281.51 402.129,287.005 402.129,293.759 C402.129,300.513 396.634,306.008 389.879,306.008 L389.879,306.008 Z" id="Fill-24" fill="#1A1919"></path>
        <path d="M747.684,198.434 C747.684,203.818 743.319,208.183 737.934,208.183 C732.55,208.183 728.185,203.818 728.185,198.434 C728.185,193.049 732.55,188.684 737.934,188.684 C743.319,188.684 747.684,193.049 747.684,198.434" id="Fill-25" fill="#FFD400"></path>
        <path d="M264.636,577.401 C264.636,582.785 260.271,587.15 254.886,587.15 C249.502,587.15 245.137,582.785 245.137,577.401 C245.137,572.016 249.502,567.651 254.886,567.651 C260.271,567.651 264.636,572.016 264.636,577.401" id="Fill-26" fill="#FFD400"></path>
        <path d="M701.864,533.244 C701.864,538.628 697.5,542.993 692.115,542.993 C686.731,542.993 682.366,538.628 682.366,533.244 C682.366,527.859 686.731,523.494 692.115,523.494 C697.5,523.494 701.864,527.859 701.864,533.244" id="Fill-27" fill="#FFD400"></path>
        <path d="M821.847,601.307 C821.847,606.691 817.482,611.056 812.097,611.056 C806.713,611.056 802.348,606.691 802.348,601.307 C802.348,595.922 806.713,591.558 812.097,591.558 C817.482,591.558 821.847,595.922 821.847,601.307" id="Fill-28" fill="#FFD400"></path>
        <path d="M389.879,339.007 C388.499,339.007 387.379,337.888 387.379,336.507 L387.379,324.507 C387.379,323.126 388.499,322.007 389.879,322.007 C391.26,322.007 392.379,323.126 392.379,324.507 L392.379,336.507 C392.379,337.888 391.26,339.007 389.879,339.007 Z M389.879,363.007 C388.499,363.007 387.379,361.888 387.379,360.507 L387.379,348.507 C387.379,347.126 388.499,346.007 389.879,346.007 C391.26,346.007 392.379,347.126 392.379,348.507 L392.379,360.507 C392.379,361.888 391.26,363.007 389.879,363.007 Z M389.879,387.007 C388.499,387.007 387.379,385.888 387.379,384.507 L387.379,372.507 C387.379,371.126 388.499,370.007 389.879,370.007 C391.26,370.007 392.379,371.126 392.379,372.507 L392.379,384.507 C392.379,385.888 391.26,387.007 389.879,387.007 Z M389.879,411.007 C388.499,411.007 387.379,409.888 387.379,408.507 L387.379,396.507 C387.379,395.126 388.499,394.007 389.879,394.007 C391.26,394.007 392.379,395.126 392.379,396.507 L392.379,408.507 C392.379,409.888 391.26,411.007 389.879,411.007 Z M389.879,435.007 C388.499,435.007 387.379,433.888 387.379,432.507 L387.379,420.507 C387.379,419.126 388.499,418.007 389.879,418.007 C391.26,418.007 392.379,419.126 392.379,420.507 L392.379,432.507 C392.379,433.888 391.26,435.007 389.879,435.007 Z M389.879,459.007 C388.499,459.007 387.379,457.888 387.379,456.507 L387.379,444.507 C387.379,443.126 388.499,442.007 389.879,442.007 C391.26,442.007 392.379,443.126 392.379,444.507 L392.379,456.507 C392.379,457.888 391.26,459.007 389.879,459.007 Z M389.879,483.007 C388.499,483.007 387.379,481.888 387.379,480.507 L387.379,468.507 C387.379,467.126 388.499,466.007 389.879,466.007 C391.26,466.007 392.379,467.126 392.379,468.507 L392.379,480.507 C392.379,481.888 391.26,483.007 389.879,483.007 Z M389.879,507.007 C388.499,507.007 387.379,505.888 387.379,504.507 L387.379,492.507 C387.379,491.126 388.499,490.007 389.879,490.007 C391.26,490.007 392.379,491.126 392.379,492.507 L392.379,504.507 C392.379,505.888 391.26,507.007 389.879,507.007 Z M389.879,531.007 C388.499,531.007 387.379,529.888 387.379,528.507 L387.379,516.507 C387.379,515.126 388.499,514.007 389.879,514.007 C391.26,514.007 392.379,515.126 392.379,516.507 L392.379,528.507 C392.379,529.888 391.26,531.007 389.879,531.007 Z M389.879,555.007 C388.499,555.007 387.379,553.888 387.379,552.507 L387.379,540.507 C387.379,539.126 388.499,538.007 389.879,538.007 C391.26,538.007 392.379,539.126 392.379,540.507 L392.379,552.507 C392.379,553.888 391.26,555.007 389.879,555.007 Z M389.879,579.007 C388.499,579.007 387.379,577.888 387.379,576.507 L387.379,564.507 C387.379,563.126 388.499,562.007 389.879,562.007 C391.26,562.007 392.379,563.126 392.379,564.507 L392.379,576.507 C392.379,577.888 391.26,579.007 389.879,579.007 L389.879,579.007 Z" id="Fill-29" fill="#1A1919"></path>
        <path d="M737.934,624.159 C736.553,624.159 735.434,623.04 735.434,621.659 L735.434,235.308 C735.434,233.927 736.553,232.808 737.934,232.808 C739.315,232.808 740.434,233.927 740.434,235.308 L740.434,621.659 C740.434,623.04 739.315,624.159 737.934,624.159" id="Fill-30" fill="#1A1919"></path>
        <path d="M321.597,646.492 C320.216,646.492 319.097,645.373 319.097,643.992 L319.097,558.623 C319.097,557.242 320.216,556.123 321.597,556.123 C322.978,556.123 324.097,557.242 324.097,558.623 L324.097,643.992 C324.097,645.373 322.978,646.492 321.597,646.492" id="Fill-31" fill="#1A1919"></path>
        <path d="M605.119,481.315 C603.738,481.315 602.619,480.196 602.619,478.815 L602.619,392.442 C602.619,391.061 603.738,389.942 605.119,389.942 C606.5,389.942 607.619,391.061 607.619,392.442 L607.619,478.815 C607.619,480.196 606.5,481.315 605.119,481.315" id="Fill-32" fill="#1A1919"></path>
        <path d="M427.112,419.379 C425.731,419.379 424.612,418.26 424.612,416.879 L424.612,371.882 C424.612,370.501 425.731,369.382 427.112,369.382 C428.493,369.382 429.612,370.501 429.612,371.882 L429.612,416.879 C429.612,418.26 428.493,419.379 427.112,419.379" id="Fill-33" fill="#1A1919"></path>
        <path d="M615.771,494.376 C614.39,494.376 613.271,493.257 613.271,491.876 L613.271,446.879 C613.271,445.498 614.39,444.379 615.771,444.379 C617.152,444.379 618.271,445.498 618.271,446.879 L618.271,491.876 C618.271,493.257 617.152,494.376 615.771,494.376" id="Fill-34" fill="#1A1919"></path>
        <path d="M461.151,671.269 C459.927,671.269 458.857,670.368 458.679,669.121 C458.484,667.754 459.435,666.488 460.802,666.293 C464.892,665.71 469.133,665.514 473.236,665.708 C474.616,665.772 475.682,666.942 475.617,668.321 C475.552,669.7 474.368,670.775 473.003,670.702 C469.209,670.525 465.288,670.705 461.507,671.243 C461.387,671.26 461.269,671.269 461.151,671.269 Z M496.295,676.311 C495.947,676.311 495.594,676.238 495.257,676.084 C491.769,674.489 488.112,673.224 484.389,672.325 C483.047,672.001 482.222,670.649 482.546,669.307 C482.871,667.966 484.218,667.143 485.564,667.464 C489.597,668.439 493.558,669.81 497.336,671.537 C498.592,672.111 499.144,673.594 498.57,674.85 C498.15,675.769 497.243,676.311 496.295,676.311 Z M438.621,679.068 C437.757,679.068 436.918,678.621 436.455,677.82 C435.763,676.625 436.171,675.095 437.366,674.404 C440.963,672.322 444.775,670.578 448.694,669.222 C450.002,668.771 451.423,669.462 451.875,670.766 C452.326,672.071 451.635,673.495 450.33,673.946 C446.711,675.199 443.192,676.809 439.871,678.731 C439.476,678.96 439.045,679.068 438.621,679.068 Z M515.718,690.156 C515.058,690.156 514.399,689.897 513.908,689.382 C511.26,686.605 508.335,684.069 505.214,681.843 C504.09,681.041 503.829,679.48 504.631,678.356 C505.432,677.231 506.994,676.97 508.118,677.772 C511.495,680.181 514.661,682.926 517.526,685.931 C518.48,686.93 518.442,688.513 517.443,689.465 C516.959,689.927 516.337,690.156 515.718,690.156 Z M420.597,694.696 C420.055,694.696 419.51,694.522 419.052,694.161 C417.967,693.307 417.78,691.735 418.634,690.65 C421.2,687.39 424.092,684.357 427.228,681.637 C428.271,680.732 429.85,680.845 430.754,681.887 C431.659,682.93 431.547,684.509 430.504,685.414 C427.606,687.928 424.934,690.73 422.563,693.743 C422.069,694.369 421.336,694.696 420.597,694.696 Z M528.628,710.213 C527.636,710.213 526.697,709.62 526.306,708.643 C524.881,705.088 523.106,701.649 521.027,698.422 C520.279,697.262 520.614,695.715 521.775,694.967 C522.936,694.219 524.483,694.555 525.231,695.715 C527.481,699.21 529.404,702.933 530.947,706.783 C531.461,708.064 530.838,709.52 529.557,710.034 C529.252,710.156 528.937,710.213 528.628,710.213 Z M409.663,715.891 C409.431,715.891 409.194,715.858 408.96,715.789 C407.634,715.401 406.875,714.012 407.263,712.688 C408.429,708.707 409.987,704.816 411.894,701.123 C412.527,699.896 414.036,699.414 415.262,700.048 C416.489,700.682 416.97,702.189 416.336,703.417 C414.576,706.826 413.138,710.418 412.061,714.093 C411.742,715.183 410.745,715.891 409.663,715.891 Z M407.128,733.63 C407,733.63 406.872,733.621 406.743,733.601 C406.721,733.597 404.466,733.251 401.043,733.121 C399.664,733.069 398.587,731.908 398.64,730.528 C398.692,729.148 399.833,728.062 401.233,728.125 C402.565,728.175 403.733,728.256 404.689,728.339 C404.737,727.194 404.814,726.051 404.921,724.92 C405.05,723.544 406.267,722.532 407.644,722.665 C409.019,722.794 410.028,724.013 409.899,725.388 C409.721,727.283 409.63,729.215 409.629,731.131 C409.629,731.861 409.309,732.555 408.754,733.03 C408.298,733.42 407.72,733.63 407.128,733.63 Z M533.123,733.631 C531.742,733.631 530.623,732.512 530.623,731.131 C530.623,727.279 530.259,723.426 529.541,719.677 C529.281,718.321 530.169,717.012 531.526,716.751 C532.881,716.497 534.192,717.381 534.452,718.737 C535.229,722.794 535.623,726.964 535.623,731.131 C535.623,732.512 534.504,733.631 533.123,733.631 Z M377.638,736.946 C376.683,736.946 375.771,736.396 375.355,735.468 C374.79,734.208 375.354,732.729 376.614,732.164 C380.185,730.564 384.284,729.416 388.797,728.751 C390.164,728.548 391.434,729.494 391.634,730.86 C391.835,732.226 390.892,733.496 389.525,733.697 C385.466,734.295 381.81,735.314 378.659,736.727 C378.327,736.876 377.98,736.946 377.638,736.946 Z M362.817,753.488 C362.585,753.488 362.349,753.455 362.114,753.387 C360.789,752.999 360.029,751.611 360.417,750.286 C361.588,746.281 363.499,742.74 366.098,739.761 C367.005,738.721 368.585,738.612 369.626,739.521 C370.666,740.428 370.773,742.007 369.866,743.048 C367.747,745.478 366.182,748.385 365.215,751.689 C364.897,752.78 363.899,753.488 362.817,753.488 L362.817,753.488 Z" id="Fill-35" fill="#1A1919"></path>
        <path d="M674.36,750.987 C674.36,726.743 694.015,707.089 718.259,707.089 C742.503,707.089 762.158,726.743 762.158,750.987" id="Fill-36" fill="#FFD400"></path>
        <path d="M527.54,284.084 L527.54,284.132 C527.541,284.796 527.278,285.433 526.809,285.903 C526.34,286.373 525.704,286.636 525.04,286.636 C510.015,286.636 497.791,274.413 497.791,259.387 C497.791,244.362 510.015,232.139 525.04,232.139 C526.421,232.139 527.54,233.258 527.54,234.639 C527.54,234.656 527.535,234.673 527.535,234.691 C540.489,235.482 550.752,246.234 550.752,259.387 C550.752,272.539 540.491,283.29 527.54,284.084 Z M527.164,210.14 C526.742,210.464 526.221,210.664 525.649,210.664 C525.077,210.664 524.556,210.464 524.134,210.14 L492.594,210.14 L492.594,395.63 L517.124,395.63 L517.124,291.636 C517.124,290.255 518.243,289.136 519.624,289.136 L533.123,289.136 C534.504,289.136 535.623,290.255 535.623,291.636 C535.623,293.017 534.504,294.136 533.123,294.136 L533.123,369.382 C534.504,369.382 535.623,370.501 535.623,371.882 L535.623,395.63 L562.59,395.63 L562.59,210.14 L527.164,210.14 L527.164,210.14 Z" id="Fill-37" fill="#FFFFFE"></path>
        <path d="M527.535,234.691 C527.507,236.047 526.403,237.139 525.04,237.139 C512.772,237.139 502.791,247.119 502.791,259.387 C502.791,270.809 511.442,280.249 522.536,281.496 L522.503,259.391 C522.501,258.01 523.618,256.889 524.999,256.887 C525,256.887 525.002,256.887 525.003,256.887 C526.381,256.887 527.501,258.004 527.503,259.383 L527.54,284.084 C540.491,283.29 550.752,272.539 550.752,259.387 C550.752,246.234 540.489,235.482 527.535,234.691" id="Fill-38" fill="#FFD400"></path>
        <polygon id="Fill-39" fill="#FFFFFE" points="535.623 433.128 545.716 433.128 545.716 400.63 535.623 400.63"></polygon>
        <polygon id="Fill-40" fill="#FFFFFE" points="509.469 433.128 517.124 433.128 517.124 400.63 509.469 400.63"></polygon>
        <path d="M482.672,352.489 C482.672,353.87 481.553,354.989 480.172,354.989 C478.792,354.989 477.672,353.87 477.672,352.489 L477.672,315.834 L463.36,338.346 L463.36,442.259 L487.594,397.497 L487.594,300.228 L482.624,308.046 C482.654,308.203 482.672,308.364 482.672,308.53 L482.672,352.489" id="Fill-41" fill="#FFD400"></path>
        <path d="M574.834,354.989 C573.453,354.989 572.334,353.87 572.334,352.489 L572.334,309.2 L567.59,300.975 L567.59,397.55 L589.11,441.366 L589.11,338.288 L586.672,334.061 L586.672,371.882 C586.672,373.263 585.553,374.382 584.172,374.382 C582.792,374.382 581.672,373.263 581.672,371.882 L581.672,325.392 L577.334,317.869 L577.334,352.489 C577.334,353.87 576.215,354.989 574.834,354.989" id="Fill-42" fill="#FFFFFE"></path>
        <path d="M533.123,294.136 L522.124,294.136 L522.124,449.628 L530.623,449.628 L530.623,371.882 C530.623,370.501 531.742,369.382 533.123,369.382 L533.123,294.136" id="Fill-43" fill="#FFFFFE"></path>
        <path d="M528.149,165.318 L528.149,205.14 L560.97,205.14 L527.592,141.056 L527.592,163.763 C527.935,164.191 528.149,164.727 528.149,165.318" id="Fill-44" fill="#FFD400"></path>
        <path d="M589.11,441.366 L567.59,397.55 L567.59,300.975 L572.334,309.2 L572.334,352.489 C572.334,353.87 573.453,354.989 574.834,354.989 C576.215,354.989 577.334,353.87 577.334,352.489 L577.334,317.869 L581.672,325.392 L581.672,371.882 C581.672,373.263 582.792,374.382 584.172,374.382 C585.553,374.382 586.672,373.263 586.672,371.882 L586.672,334.061 L589.11,338.288 L589.11,441.366 Z M535.623,395.63 L535.623,371.882 C535.623,370.501 534.504,369.382 533.123,369.382 C531.742,369.382 530.623,370.501 530.623,371.882 L530.623,449.628 L522.124,449.628 L522.124,294.136 L533.123,294.136 C534.504,294.136 535.623,293.017 535.623,291.636 C535.623,290.255 534.504,289.136 533.123,289.136 L519.624,289.136 C518.243,289.136 517.124,290.255 517.124,291.636 L517.124,395.63 L492.594,395.63 L492.594,210.14 L524.134,210.14 C524.556,210.464 525.077,210.664 525.649,210.664 C526.221,210.664 526.742,210.464 527.164,210.14 L562.59,210.14 L562.59,395.63 L535.623,395.63 Z M535.623,433.128 L545.716,433.128 L545.716,400.63 L535.623,400.63 L535.623,433.128 Z M509.469,433.128 L517.124,433.128 L517.124,400.63 L509.469,400.63 L509.469,433.128 Z M527.592,141.056 L560.97,205.14 L528.149,205.14 L528.149,165.318 C528.149,164.727 527.935,164.191 527.592,163.763 C527.134,163.192 526.439,162.818 525.649,162.818 C524.268,162.818 523.149,163.938 523.149,165.318 L523.149,205.14 L494.215,205.14 L527.592,141.056 Z M487.594,397.497 L463.36,442.259 L463.36,338.346 L477.672,315.834 L477.672,352.489 C477.672,353.87 478.792,354.989 480.172,354.989 C481.553,354.989 482.672,353.87 482.672,352.489 L482.672,308.53 C482.672,308.364 482.654,308.203 482.624,308.046 L487.594,300.228 L487.594,397.497 Z M593.775,336.369 L567.59,290.967 L567.59,207.839 C567.596,207.772 567.61,207.708 567.61,207.64 C567.61,207.116 567.449,206.63 567.174,206.228 L529.81,134.489 C529.379,133.662 528.524,133.144 527.592,133.144 C526.66,133.144 525.806,133.662 525.375,134.489 L487.877,206.485 C487.865,206.508 487.862,206.533 487.851,206.555 C487.779,206.706 487.722,206.861 487.681,207.02 C487.673,207.05 487.66,207.078 487.654,207.109 C487.618,207.271 487.601,207.436 487.599,207.601 C487.598,207.615 487.594,207.627 487.594,207.64 L487.594,290.908 L458.75,336.277 C458.495,336.678 458.36,337.143 458.36,337.618 L458.36,452.128 C458.36,453.272 459.137,454.271 460.246,454.551 C460.451,454.603 460.657,454.628 460.86,454.628 C461.761,454.628 462.614,454.139 463.058,453.318 L491.584,400.63 L504.469,400.63 L504.469,435.628 C504.469,437.009 505.588,438.128 506.969,438.128 L517.124,438.128 L517.124,452.128 C517.124,453.509 518.243,454.628 519.624,454.628 L533.123,454.628 C534.504,454.628 535.623,453.509 535.623,452.128 L535.623,438.128 L548.216,438.128 C549.597,438.128 550.716,437.009 550.716,435.628 L550.716,400.63 L563.533,400.63 L589.366,453.23 C589.793,454.1 590.672,454.628 591.609,454.628 C591.797,454.628 591.987,454.607 592.176,454.563 C593.308,454.3 594.11,453.291 594.11,452.128 L594.11,337.618 C594.11,337.18 593.995,336.749 593.775,336.369 L593.775,336.369 Z" id="Fill-45" fill="#1A1919"></path>
        <path d="M438.361,380.504 C436.98,380.504 435.861,381.624 435.861,383.004 L435.861,469.377 C435.861,470.758 436.98,471.877 438.361,471.877 C439.742,471.877 440.861,470.758 440.861,469.377 L440.861,383.004 C440.861,381.624 439.742,380.504 438.361,380.504" id="Fill-46" fill="#1A1919"></path>
        <path d="M525.04,237.139 C526.403,237.139 527.507,236.047 527.535,234.691 C527.535,234.673 527.54,234.656 527.54,234.639 C527.54,233.258 526.421,232.139 525.04,232.139 C510.015,232.139 497.791,244.362 497.791,259.387 C497.791,274.413 510.015,286.636 525.04,286.636 C525.704,286.636 526.34,286.373 526.809,285.903 C527.278,285.433 527.541,284.796 527.54,284.132 L527.54,284.084 L527.503,259.383 C527.501,258.004 526.381,256.887 525.003,256.887 C525.002,256.887 525,256.887 524.999,256.887 C523.618,256.889 522.501,258.01 522.503,259.391 L522.536,281.496 C511.442,280.249 502.791,270.809 502.791,259.387 C502.791,247.119 512.772,237.139 525.04,237.139" id="Fill-47" fill="#1A1919"></path>
        <path d="M908.789,573.123 C907.408,573.123 906.289,572.003 906.289,570.623 L906.289,558.623 C906.289,557.242 907.408,556.123 908.789,556.123 C910.169,556.123 911.289,557.242 911.289,558.623 L911.289,570.623 C911.289,572.003 910.169,573.123 908.789,573.123 Z M908.789,597.123 C907.408,597.123 906.289,596.003 906.289,594.623 L906.289,582.623 C906.289,581.242 907.408,580.123 908.789,580.123 C910.169,580.123 911.289,581.242 911.289,582.623 L911.289,594.623 C911.289,596.003 910.169,597.123 908.789,597.123 Z M908.789,621.123 C907.408,621.123 906.289,620.003 906.289,618.623 L906.289,606.623 C906.289,605.242 907.408,604.123 908.789,604.123 C910.169,604.123 911.289,605.242 911.289,606.623 L911.289,618.623 C911.289,620.003 910.169,621.123 908.789,621.123 Z M908.789,645.123 C907.408,645.123 906.289,644.003 906.289,642.623 L906.289,630.623 C906.289,629.242 907.408,628.123 908.789,628.123 C910.169,628.123 911.289,629.242 911.289,630.623 L911.289,642.623 C911.289,644.003 910.169,645.123 908.789,645.123 Z M908.789,669.123 C907.408,669.123 906.289,668.003 906.289,666.623 L906.289,654.623 C906.289,653.242 907.408,652.123 908.789,652.123 C910.169,652.123 911.289,653.242 911.289,654.623 L911.289,666.623 C911.289,668.003 910.169,669.123 908.789,669.123 Z M908.789,681.884 C907.408,681.884 906.289,680.765 906.289,679.384 L906.289,678.623 C906.289,677.242 907.408,676.123 908.789,676.123 C910.169,676.123 911.289,677.242 911.289,678.623 L911.289,679.384 C911.289,680.765 910.169,681.884 908.789,681.884 L908.789,681.884 Z" id="Fill-48" fill="#1A1919"></path>
    </g>
</svg>