<?xml version="1.0" encoding="UTF-8"?>
<svg width="90px" height="90px" viewBox="0 0 90 90" version="1.1" xmlns="http://www.w3.org/2000/svg" xmlns:xlink="http://www.w3.org/1999/xlink">
    <!-- Generator: Sketch 52.4 (67378) - http://www.bohemiancoding.com/sketch -->
    <title>team</title>
    <desc>Created with Sketch.</desc>
    <g id="team" stroke="none" stroke-width="1" fill="none" fill-rule="evenodd">
        <rect id="Rectangle" fill="#FFEC5B" x="0" y="0" width="64" height="64"></rect>
        <g id="031-team" transform="translate(26.000000, 26.000000)" fill="#000000" fill-rule="nonzero">
            <path d="M64,36.9310968 C64,33.3099355 61.9375484,30.1409032 58.8387097,28.6110968 L58.8387097,12.3870968 C58.8387097,5.55664516 53.2820645,0 46.4516129,0 C39.6211613,0 34.0645161,5.55664516 34.0645161,12.3870968 L34.0645161,13.6072258 C32.7587097,13.3842581 31.4012903,13.3605161 30.0366452,13.572129 C29.9633548,13.5834839 29.8910968,13.6030968 29.8178065,13.6154839 C29.8890323,13.2108387 29.9354839,12.8020645 29.9354839,12.3870968 L29.9354839,8.25806452 C29.9354839,6.62503226 28.6658065,5.28309677 27.0606452,5.16954839 C24.9734194,1.96541935 21.3821935,0 17.5483871,0 C11.2877419,0 6.19354839,5.09419355 6.19354839,11.3548387 L6.19354839,12.3870968 C6.19354839,14.7458065 7.37135484,16.9486452 9.29032258,18.2926452 L9.29032258,18.3514839 C9.29032258,20.9527742 10.5021935,23.2732903 12.3870968,24.7876129 L12.3870968,26.9976774 L7.7636129,27.7677419 C3.26503226,28.516129 0,32.3705806 0,36.9310968 L0,45.4193548 L18.2585806,45.4193548 C14.7437419,46.7994839 12.3870968,50.1739355 12.3870968,54.0531613 L12.3870968,64 L51.6129032,64 L51.6129032,54.0531613 C51.6129032,50.1739355 49.2562581,46.7994839 45.7414194,45.4193548 L64,45.4193548 L64,36.9310968 Z M36.1290323,12.3870968 C36.1290323,6.69522581 40.7597419,2.06451613 46.4516129,2.06451613 C52.1434839,2.06451613 56.7741935,6.69522581 56.7741935,12.3870968 L56.7741935,27.8812903 C56.5956129,27.8410323 56.4190968,27.7976774 56.2363871,27.7667097 L51.6129032,26.9966452 L51.6129032,24.7865806 C53.4978065,23.2712258 54.7096774,20.9517419 54.7096774,18.3504516 L54.7024516,11.8100645 L53.2387097,12.484129 C53.2180645,12.4944516 51.1556129,13.4193548 46.4516129,13.4193548 C41.7476129,13.4193548 39.6851613,12.4944516 39.6727742,12.4892903 L38.1935484,11.780129 L38.1935484,15.0905806 C37.5380645,14.7117419 36.8443871,14.4010323 36.1290323,14.1470968 L36.1290323,12.3870968 Z M42.7540645,19.6769032 C42.0830968,18.4990968 41.2335484,17.467871 40.2580645,16.5935484 L40.2580645,14.8335484 C41.4854194,15.1421935 43.5096774,15.483871 46.4516129,15.483871 C49.3935484,15.483871 51.4178065,15.1421935 52.6451613,14.8335484 L52.6451613,18.3504516 C52.6451613,21.7661935 49.8673548,24.544 46.4516129,24.544 C46.1058065,24.544 45.7620645,24.5058065 45.4193548,24.4469677 L45.4193548,22.9264516 C45.4193548,21.3212903 44.2725161,19.9803871 42.7540645,19.6769032 Z M44.5212903,31.2030968 C45.0952258,29.8312258 45.4193548,28.3530323 45.4193548,26.8387097 L45.4193548,26.5341935 C45.7620645,26.5775484 46.1068387,26.6095484 46.4516129,26.6095484 C47.5468387,26.6095484 48.5914839,26.3907097 49.5483871,26.0015484 L49.5483871,27.7047742 L46.4516129,36.9950968 L44.5212903,31.2030968 Z M44.6059355,37.9860645 L41.7785806,35.1587097 C42.2874839,34.6859355 42.7385806,34.1646452 43.1483871,33.6123871 L44.6059355,37.9860645 Z M51.2815484,29.0332903 L52.9125161,29.3047742 L53.5886452,32.6926452 L48.2972903,37.9850323 L51.2815484,29.0332903 Z M30.3504516,15.611871 C34.8005161,14.9223226 39.1494194,17.1385806 41.1850323,21.1148387 L41.4740645,21.6774194 L42.1047742,21.6774194 C42.7943226,21.6774194 43.3548387,22.2379355 43.3548387,22.9264516 L43.3548387,26.8387097 C43.3548387,28.9692903 42.6033548,31.0255484 41.2892903,32.6627097 L41.284129,26.3298065 L39.8575484,26.9192258 C39.8348387,26.9295484 37.4905806,27.8709677 32,27.8709677 C26.5094194,27.8709677 24.1651613,26.9295484 24.1486452,26.9223226 L22.7096774,26.3060645 L22.7096774,30.2668387 C21.8745806,28.5316129 21.5246452,26.5796129 21.7445161,24.6141935 C22.2503226,20.0887742 25.8694194,16.3034839 30.3504516,15.611871 Z M20.4686452,30.2616774 C20.7019355,30.8645161 20.9723871,31.4529032 21.2985806,32.0144516 L19.4776774,30.9212903 L20.4686452,30.2616774 Z M17.5845161,29.7032258 L14.4516129,27.3548387 L14.4516129,26.0005161 C15.4085161,26.3896774 16.4531613,26.6085161 17.5483871,26.6085161 C18.2627097,26.6085161 18.9625806,26.5063226 19.6449032,26.3246452 C19.6727742,26.9522581 19.739871,27.5747097 19.8606452,28.1858065 L17.5845161,29.7032258 Z M21.7940645,34.7179355 L22.8056774,35.3249032 C23.1101935,37.5566452 24.2074839,39.5334194 25.8064516,40.9692903 L25.8064516,43.3548387 L21.5566452,43.3548387 L20.6843871,36.3819355 L21.7940645,34.7179355 Z M26.5837419,45.5060645 L30.1956129,48.3953548 L27.1514839,50.2224516 L24.3509677,46.0211613 L26.5837419,45.5060645 Z M27.8709677,43.8905806 L27.8709677,42.3741935 C29.1169032,42.9956129 30.5156129,43.3548387 32,43.3548387 C33.4843871,43.3548387 34.8830968,42.9966452 36.1290323,42.3741935 L36.1290323,43.8905806 L32,47.1938065 L27.8709677,43.8905806 Z M37.4162581,45.5050323 L39.6490323,46.020129 L36.8485161,50.2214194 L33.8043871,48.3943226 L37.4162581,45.5050323 Z M32,41.2903226 C28.0165161,41.2903226 24.7741935,38.048 24.7741935,34.0645161 L24.7741935,29.248 C26.1233548,29.5628387 28.4665806,29.9354839 32,29.9354839 C35.5334194,29.9354839 37.8766452,29.5628387 39.2258065,29.248 L39.2258065,34.0645161 C39.2258065,38.048 35.9834839,41.2903226 32,41.2903226 Z M9.29032258,11.780129 L9.29032258,15.4683871 C8.63380645,14.5899355 8.25806452,13.5122581 8.25806452,12.3870968 L8.25806452,11.3548387 C8.25806452,6.23174194 12.4252903,2.06451613 17.5483871,2.06451613 C20.8454194,2.06451613 23.9256774,3.84516129 25.5855484,6.71070968 L25.883871,7.22580645 L26.8387097,7.22580645 C27.4085161,7.22580645 27.8709677,7.68825806 27.8709677,8.25806452 L27.8709677,12.3870968 C27.8709677,13.0343226 27.7409032,13.6650323 27.4993548,14.272 C26.912,14.5042581 26.3463226,14.7819355 25.8043871,15.099871 L25.8002581,11.8110968 L24.3365161,12.4851613 C24.3148387,12.4944516 22.2523871,13.4193548 17.5483871,13.4193548 C12.8443871,13.4193548 10.7819355,12.4944516 10.7695484,12.4892903 L9.29032258,11.780129 Z M11.3548387,18.3504516 L11.3548387,14.8335484 C12.5821935,15.1421935 14.6064516,15.483871 17.5483871,15.483871 C20.4903226,15.483871 22.5145806,15.1421935 23.7419355,14.8335484 L23.7419355,16.603871 C21.6,18.5372903 20.123871,21.1994839 19.7316129,24.1352258 C19.0296774,24.4025806 18.2988387,24.5450323 17.5483871,24.5450323 C14.1326452,24.544 11.3548387,21.7661935 11.3548387,18.3504516 Z M13.1530323,28.9610323 L15.7006452,30.8717419 L12.7411613,32.6482581 L10.7674839,29.3594839 L13.1530323,28.9610323 Z M13.540129,43.3548387 L8.25806452,43.3548387 L8.25806452,40.2580645 L6.19354839,40.2580645 L6.19354839,43.3548387 L2.06451613,43.3548387 L2.06451613,36.9310968 C2.06451613,33.3832258 4.60387097,30.3855484 8.10219355,29.8033548 L8.57909677,29.723871 L12.0330323,35.4807742 L13.3027097,34.7189677 L14.4113548,36.3819355 L13.540129,43.3548387 Z M15.620129,43.3548387 L16.5543226,35.876129 L15.0740645,33.6557419 L17.5483871,32.1713548 L20.0216774,33.6547097 L18.5414194,35.8750968 L19.4756129,43.3548387 L15.620129,43.3548387 Z M27.9793548,61.9354839 L20.6451613,61.9354839 L20.6451613,56.7741935 L18.5806452,56.7741935 L18.5806452,61.9354839 L14.4516129,61.9354839 L14.4516129,54.0531613 C14.4516129,50.6683871 16.7545806,47.7729032 20.0526452,47.0131613 L22.2007742,46.5176774 L26.5259355,53.0043871 L27.7543226,52.2673548 L28.868129,53.9375484 L27.9793548,61.9354839 Z M33.9437419,61.9354839 L30.0572903,61.9354839 L31.003871,53.4172903 L29.5277419,51.2030968 L32,49.7197419 L34.4732903,51.2030968 L32.9971613,53.4172903 L33.9437419,61.9354839 Z M49.5483871,54.0531613 L49.5483871,61.9354839 L45.4193548,61.9354839 L45.4193548,56.7741935 L43.3548387,56.7741935 L43.3548387,61.9354839 L36.0206452,61.9354839 L35.131871,53.9375484 L36.2456774,52.2673548 L37.4740645,53.0043871 L41.7992258,46.5176774 L43.9473548,47.0131613 C47.2454194,47.7729032 49.5483871,50.6683871 49.5483871,54.0531613 Z M61.9354839,43.3548387 L57.8064516,43.3548387 L57.8064516,40.2580645 L55.7419355,40.2580645 L55.7419355,43.3548387 L38.1935484,43.3548387 L38.1935484,40.9692903 C39.3589677,39.9225806 40.2580645,38.5889032 40.7793548,37.0766452 L46.4516129,42.7499355 L55.8307097,33.371871 L55.0895484,29.668129 L55.8978065,29.8033548 C59.396129,30.3865806 61.9354839,33.3842581 61.9354839,36.9310968 L61.9354839,43.3548387 Z" id="Shape"></path>
        </g>
    </g>
</svg>